{"glyphs":{"0":{"ha":889,"x_min":43,"x_max":846,"o":"m 447 -24 q 147 107 251 -24 q 43 533 43 238 q 146 953 43 825 q 443 1082 249 1082 q 742 951 639 1082 q 846 526 846 821 q 744 106 846 235 q 447 -24 642 -24 m 442 199 q 525 224 492 199 q 578 322 558 249 q 597 529 597 394 q 577 736 597 664 q 524 834 557 808 q 440 860 490 860 q 358 834 390 860 q 309 736 326 808 q 292 531 292 664 q 310 322 292 394 q 360 224 328 249 q 442 199 392 199 z "},"1":{"ha":889,"x_min":139,"x_max":667,"o":"m 418 643 q 432 769 418 714 l 415 776 q 356 708 390 739 q 252 642 308 667 q 139 611 196 617 l 139 835 q 426 1060 351 876 l 667 1060 l 667 0 l 418 0 l 418 643 z "},"2":{"ha":889,"x_min":51,"x_max":838,"o":"m 71 0 l 71 176 l 399 476 q 530 622 488 557 q 572 739 572 686 q 539 837 572 800 q 435 874 506 874 q 318 826 358 874 q 274 676 278 779 l 51 676 q 156 980 57 878 q 439 1082 254 1082 q 622 1043 542 1082 q 749 932 703 1004 q 794 761 794 860 q 724 534 794 639 q 557 335 654 429 l 485 264 q 411 208 458 238 l 421 192 q 476 216 458 210 q 529 222 494 222 l 838 222 l 838 0 l 71 0 z "},"3":{"ha":889,"x_min":35,"x_max":844,"o":"m 446 -24 q 238 21 329 -24 q 94 149 147 65 q 35 344 40 232 l 283 344 q 451 185 303 185 q 560 223 524 185 q 596 326 596 261 q 556 424 596 390 q 426 457 515 457 l 363 457 l 363 651 l 417 651 q 510 683 476 651 q 544 765 544 714 q 516 845 544 817 q 428 874 488 874 q 297 751 318 874 l 78 751 q 129 926 83 851 q 254 1042 175 1001 q 435 1082 333 1082 q 615 1043 536 1082 q 737 937 693 1004 q 781 785 781 869 q 742 647 781 704 q 628 592 703 590 l 628 569 q 792 494 740 565 q 844 324 844 424 q 795 143 844 222 q 655 20 746 64 q 446 -24 564 -24 z "},"4":{"ha":889,"x_min":44,"x_max":846,"o":"m 728 0 l 479 0 l 479 229 l 44 229 l 44 465 l 489 1060 l 728 1060 l 728 451 l 846 451 l 846 229 l 728 229 l 728 0 m 263 438 q 312 449 293 447 q 360 451 331 451 l 479 451 l 479 640 q 481 697 479 678 q 493 747 483 717 l 476 753 q 431 681 450 707 l 319 521 q 254 454 297 488 l 263 438 z "},"5":{"ha":889,"x_min":42,"x_max":835,"o":"m 497 735 q 674 688 597 735 q 792 558 750 642 q 835 364 835 474 q 786 160 835 247 q 648 24 738 72 q 440 -24 558 -24 q 246 18 332 -24 q 106 136 160 60 q 42 314 53 213 l 290 314 q 345 227 308 256 q 442 199 382 199 q 547 243 508 199 q 586 364 586 288 q 545 484 586 436 q 442 532 504 532 q 353 509 389 532 q 290 435 317 486 l 58 435 l 176 1060 l 788 1060 l 788 838 l 356 838 l 343 774 q 314 678 336 736 l 329 668 q 401 717 357 700 q 497 735 444 735 z "},"6":{"ha":889,"x_min":47,"x_max":840,"o":"m 457 -24 q 156 110 265 -24 q 47 507 47 244 q 158 935 47 788 q 464 1082 268 1082 q 726 993 628 1082 q 840 747 825 904 l 621 747 q 568 841 610 808 q 464 874 526 874 q 346 835 389 874 q 285 725 303 797 q 276 681 282 714 q 258 621 271 647 l 276 613 q 496 710 360 710 q 674 669 596 710 q 795 549 751 628 q 839 361 839 471 q 790 160 839 247 q 655 24 742 72 q 457 -24 568 -24 m 453 185 q 555 233 519 185 q 590 361 590 281 q 555 480 590 436 q 453 524 519 524 q 345 479 383 524 q 307 361 307 435 q 346 233 307 282 q 453 185 385 185 z "},"7":{"ha":889,"x_min":81,"x_max":806,"o":"m 507 744 q 540 801 522 776 q 594 865 557 826 l 582 881 q 512 845 543 853 q 440 838 481 838 l 81 838 l 81 1060 l 806 1060 l 806 842 l 415 0 l 144 0 l 507 744 z "},"8":{"ha":889,"x_min":36,"x_max":853,"o":"m 444 -24 q 231 19 324 -24 q 87 139 138 63 q 36 313 36 215 q 81 470 36 400 q 225 574 125 540 l 225 592 q 117 671 150 617 q 85 793 85 725 q 130 942 85 876 q 257 1045 175 1008 q 444 1082 339 1082 q 632 1045 550 1082 q 759 942 714 1008 q 804 793 804 876 q 772 671 804 725 q 664 592 739 617 l 664 574 q 808 470 764 540 q 853 313 853 400 q 802 139 853 215 q 658 19 751 63 q 444 -24 565 -24 m 444 653 q 535 688 503 653 q 568 774 568 722 q 536 856 568 824 q 444 888 504 888 q 353 856 385 888 q 321 774 321 824 q 353 688 321 722 q 444 653 386 653 m 444 185 q 561 228 518 185 q 604 336 604 272 q 561 448 604 404 q 444 492 518 492 q 328 448 371 492 q 285 336 285 404 q 328 228 285 272 q 444 185 371 185 z "},"9":{"ha":889,"x_min":49,"x_max":842,"o":"m 432 1082 q 733 948 624 1082 q 842 551 842 814 q 731 124 842 271 q 425 -24 621 -24 q 163 65 261 -24 q 49 311 64 154 l 268 311 q 321 217 279 250 q 425 185 363 185 q 543 223 500 185 q 604 333 586 261 q 613 378 607 344 q 631 438 618 411 l 613 446 q 393 349 531 349 q 215 390 293 349 q 94 509 138 431 q 50 697 50 588 q 99 899 50 811 q 234 1034 147 986 q 432 1082 321 1082 m 436 874 q 334 826 369 874 q 299 697 299 778 q 334 578 299 622 q 436 535 369 535 q 544 579 506 535 q 582 697 582 624 q 543 825 582 776 q 436 874 504 874 z "}," ":{"ha":361,"x_min":0,"x_max":0,"o":""},"A":{"ha":1000,"x_min":3,"x_max":997,"o":"m 267 0 l 3 0 l 365 1060 l 635 1060 l 997 0 l 733 0 l 676 190 l 324 190 l 267 0 m 389 406 l 611 406 l 538 656 q 511 806 511 744 l 489 806 q 463 656 489 744 l 389 406 z "},"Á":{"ha":1000,"x_min":3,"x_max":997,"o":"m 267 0 l 3 0 l 365 1060 l 635 1060 l 997 0 l 733 0 l 676 190 l 324 190 l 267 0 m 389 406 l 611 406 l 538 656 q 511 806 511 744 l 489 806 q 463 656 489 744 l 389 406 m 572 1131 l 404 1131 l 563 1332 l 788 1332 l 572 1131 z "},"Ă":{"ha":1000,"x_min":3,"x_max":997,"o":"m 267 0 l 3 0 l 365 1060 l 635 1060 l 997 0 l 733 0 l 676 190 l 324 190 l 267 0 m 389 406 l 611 406 l 538 656 q 511 806 511 744 l 489 806 q 463 656 489 744 l 389 406 m 500 1114 q 327 1172 386 1114 q 263 1332 268 1229 l 389 1332 q 426 1261 396 1285 q 500 1238 457 1238 q 574 1262 544 1238 q 610 1332 603 1286 l 738 1332 q 672 1172 732 1231 q 500 1114 611 1114 z "},"Â":{"ha":1000,"x_min":3,"x_max":997,"o":"m 267 0 l 3 0 l 365 1060 l 635 1060 l 997 0 l 733 0 l 676 190 l 324 190 l 267 0 m 389 406 l 611 406 l 538 656 q 511 806 511 744 l 489 806 q 463 656 489 744 l 389 406 m 256 1131 l 490 1378 l 510 1378 l 744 1131 l 563 1131 l 542 1160 q 510 1232 510 1203 l 490 1232 q 458 1160 490 1203 l 438 1131 l 256 1131 z "},"Ä":{"ha":1000,"x_min":3,"x_max":997,"o":"m 267 0 l 3 0 l 365 1060 l 635 1060 l 997 0 l 733 0 l 676 190 l 324 190 l 267 0 m 389 406 l 611 406 l 538 656 q 511 806 511 744 l 489 806 q 463 656 489 744 l 389 406 m 347 1114 q 253 1147 292 1114 q 215 1233 215 1179 q 253 1321 215 1288 q 347 1354 292 1354 q 441 1321 403 1354 q 479 1233 479 1288 q 441 1147 479 1179 q 347 1114 403 1114 m 651 1114 q 558 1147 596 1114 q 519 1233 519 1179 q 558 1321 519 1288 q 651 1354 596 1354 q 745 1321 707 1354 q 783 1233 783 1288 q 745 1147 783 1179 q 651 1114 707 1114 z "},"À":{"ha":1000,"x_min":3,"x_max":997,"o":"m 267 0 l 3 0 l 365 1060 l 635 1060 l 997 0 l 733 0 l 676 190 l 324 190 l 267 0 m 389 406 l 611 406 l 538 656 q 511 806 511 744 l 489 806 q 463 656 489 744 l 389 406 m 438 1332 l 596 1131 l 428 1131 l 213 1332 l 438 1332 z "},"Ā":{"ha":1000,"x_min":3,"x_max":997,"o":"m 267 0 l 3 0 l 365 1060 l 635 1060 l 997 0 l 733 0 l 676 190 l 324 190 l 267 0 m 389 406 l 611 406 l 538 656 q 511 806 511 744 l 489 806 q 463 656 489 744 l 389 406 m 710 1132 l 290 1132 l 290 1240 l 710 1240 l 710 1132 z "},"Ą":{"ha":1000,"x_min":3,"x_max":997,"o":"m 267 0 l 3 0 l 365 1060 l 635 1060 l 997 0 l 733 0 l 676 190 l 324 190 l 267 0 m 389 406 l 611 406 l 538 656 q 511 806 511 744 l 489 806 q 463 656 489 744 l 389 406 z "},"Å":{"ha":1000,"x_min":3,"x_max":997,"o":"m 353 1022 q 315 1133 315 1068 q 340 1226 315 1183 q 408 1293 365 1268 q 500 1318 450 1318 q 592 1293 550 1318 q 660 1226 635 1268 q 685 1133 685 1183 q 649 1022 685 1069 l 997 0 l 733 0 l 676 190 l 324 190 l 267 0 l 3 0 l 353 1022 m 500 1064 q 549 1084 531 1064 q 568 1136 568 1104 q 550 1183 568 1165 q 500 1201 532 1201 q 450 1183 468 1201 q 432 1136 432 1164 q 451 1084 432 1104 q 500 1064 471 1064 m 389 406 l 611 406 l 538 656 q 511 806 511 744 l 489 806 q 463 656 489 744 l 389 406 z "},"Ã":{"ha":1000,"x_min":3,"x_max":997,"o":"m 267 0 l 3 0 l 365 1060 l 635 1060 l 997 0 l 733 0 l 676 190 l 324 190 l 267 0 m 389 406 l 611 406 l 538 656 q 511 806 511 744 l 489 806 q 463 656 489 744 l 389 406 m 592 1107 q 514 1124 544 1107 q 451 1172 483 1142 q 424 1196 433 1189 q 403 1203 414 1203 q 364 1108 368 1203 l 240 1108 q 290 1276 244 1214 q 411 1338 336 1338 q 483 1320 453 1338 q 546 1272 513 1303 q 573 1249 563 1257 q 593 1242 583 1242 q 618 1265 608 1242 q 629 1332 628 1288 l 757 1332 q 711 1162 750 1217 q 592 1107 672 1107 z "},"Æ":{"ha":1428,"x_min":3,"x_max":1425,"o":"m 267 0 l 3 0 l 365 1060 l 1061 1060 l 1139 838 l 714 838 l 781 640 l 1207 640 l 1282 419 l 857 419 l 924 222 l 1350 222 l 1425 0 l 733 0 l 676 190 l 324 190 l 267 0 m 389 406 l 611 406 l 538 656 q 511 806 511 744 l 489 806 q 463 656 489 744 l 389 406 z "},"Ǽ":{"ha":1428,"x_min":3,"x_max":1425,"o":"m 267 0 l 3 0 l 365 1060 l 1061 1060 l 1139 838 l 714 838 l 781 640 l 1207 640 l 1282 419 l 857 419 l 924 222 l 1350 222 l 1425 0 l 733 0 l 676 190 l 324 190 l 267 0 m 389 406 l 611 406 l 538 656 q 511 806 511 744 l 489 806 q 463 656 489 744 l 389 406 m 786 1131 l 618 1131 l 776 1332 l 1001 1332 l 786 1131 z "},"B":{"ha":976,"x_min":83,"x_max":931,"o":"m 83 0 l 83 1060 l 517 1060 q 814 968 726 1060 q 876 794 876 904 q 828 631 876 693 q 707 568 781 568 l 707 546 q 815 517 764 546 q 899 435 867 488 q 931 314 931 382 q 825 78 931 158 q 536 0 722 0 l 83 0 m 496 632 q 628 736 628 632 q 594 813 628 788 q 541 833 572 829 q 463 838 510 838 l 332 838 l 332 632 l 496 632 m 504 222 q 592 229 557 222 q 650 254 628 236 q 682 335 682 279 q 644 417 682 396 q 522 438 606 438 l 332 438 l 332 222 l 504 222 z "},"C":{"ha":1082,"x_min":44,"x_max":1043,"o":"m 574 -24 q 281 51 400 -24 q 103 252 161 126 q 44 531 44 378 q 103 808 44 683 q 280 1008 161 933 q 574 1082 399 1082 q 900 979 778 1082 q 1043 701 1022 876 l 771 701 q 705 820 760 781 q 568 860 650 860 q 375 772 443 860 q 307 531 307 683 q 375 288 307 378 q 568 199 443 199 q 704 239 650 199 q 771 360 758 279 l 1043 360 q 900 80 1022 183 q 574 -24 778 -24 z "},"Ć":{"ha":1082,"x_min":44,"x_max":1043,"o":"m 574 -24 q 281 51 400 -24 q 103 252 161 126 q 44 531 44 378 q 103 808 44 683 q 280 1008 161 933 q 574 1082 399 1082 q 900 979 778 1082 q 1043 701 1022 876 l 771 701 q 705 820 760 781 q 568 860 650 860 q 375 772 443 860 q 307 531 307 683 q 375 288 307 378 q 568 199 443 199 q 704 239 650 199 q 771 360 758 279 l 1043 360 q 900 80 1022 183 q 574 -24 778 -24 m 613 1131 l 444 1131 l 603 1332 l 828 1332 l 613 1131 z "},"Č":{"ha":1082,"x_min":44,"x_max":1043,"o":"m 574 -24 q 281 51 400 -24 q 103 252 161 126 q 44 531 44 378 q 103 808 44 683 q 280 1008 161 933 q 574 1082 399 1082 q 900 979 778 1082 q 1043 701 1022 876 l 771 701 q 705 820 760 781 q 568 860 650 860 q 375 772 443 860 q 307 531 307 683 q 375 288 307 378 q 568 199 443 199 q 704 239 650 199 q 771 360 758 279 l 1043 360 q 900 80 1022 183 q 574 -24 778 -24 m 531 1086 l 296 1332 l 478 1332 l 499 1303 q 531 1231 531 1260 l 550 1231 q 582 1303 550 1260 l 603 1332 l 785 1332 l 550 1086 l 531 1086 z "},"Ç":{"ha":1082,"x_min":44,"x_max":1043,"o":"m 568 199 q 704 239 650 199 q 771 360 758 279 l 1043 360 q 901 81 1022 185 q 576 -24 781 -22 q 546 -44 568 -31 l 553 -57 q 581 -56 563 -56 q 657 -72 629 -56 q 691 -107 681 -86 q 701 -158 701 -128 q 649 -256 701 -222 q 513 -289 596 -289 q 379 -268 446 -289 l 379 -183 q 500 -211 454 -211 q 547 -199 531 -211 q 563 -164 563 -186 q 516 -108 563 -122 q 389 -93 469 -93 l 460 -14 q 229 88 322 10 q 90 281 136 165 q 44 531 44 396 q 103 808 44 683 q 280 1008 161 933 q 574 1082 399 1082 q 900 979 778 1082 q 1043 701 1022 876 l 771 701 q 705 820 760 781 q 568 860 650 860 q 375 772 443 860 q 307 531 307 683 q 375 288 307 378 q 568 199 443 199 z "},"Ċ":{"ha":1082,"x_min":44,"x_max":1043,"o":"m 574 -24 q 281 51 400 -24 q 103 252 161 126 q 44 531 44 378 q 103 808 44 683 q 280 1008 161 933 q 574 1082 399 1082 q 900 979 778 1082 q 1043 701 1022 876 l 771 701 q 705 820 760 781 q 568 860 650 860 q 375 772 443 860 q 307 531 307 683 q 375 288 307 378 q 568 199 443 199 q 704 239 650 199 q 771 360 758 279 l 1043 360 q 900 80 1022 183 q 574 -24 778 -24 m 540 1114 q 447 1147 485 1114 q 408 1233 408 1179 q 447 1321 408 1288 q 540 1354 485 1354 q 634 1321 596 1354 q 672 1233 672 1288 q 634 1147 672 1179 q 540 1114 596 1114 z "},"D":{"ha":1008,"x_min":83,"x_max":964,"o":"m 83 0 l 83 1060 l 404 1060 q 819 924 675 1060 q 964 532 964 788 q 819 138 964 275 q 404 0 675 0 l 83 0 m 401 222 q 636 298 557 222 q 715 532 715 374 q 632 759 715 681 q 401 838 549 838 l 332 838 l 332 222 l 401 222 z "},"Ð":{"ha":1008,"x_min":1,"x_max":964,"o":"m 404 1060 q 819 924 675 1060 q 964 532 964 788 q 819 138 964 275 q 404 0 675 0 l 83 0 l 83 446 l 1 446 l 1 614 l 83 614 l 83 1060 l 404 1060 m 401 222 q 636 298 557 222 q 715 532 715 374 q 632 759 715 681 q 401 838 549 838 l 332 838 l 332 614 l 586 614 l 586 446 l 332 446 l 332 222 l 401 222 z "},"Ď":{"ha":1008,"x_min":83,"x_max":964,"o":"m 83 0 l 83 1060 l 404 1060 q 819 924 675 1060 q 964 532 964 788 q 819 138 964 275 q 404 0 675 0 l 83 0 m 401 222 q 636 298 557 222 q 715 532 715 374 q 632 759 715 681 q 401 838 549 838 l 332 838 l 332 222 l 401 222 m 474 1086 l 239 1332 l 421 1332 l 442 1303 q 474 1231 474 1260 l 493 1231 q 525 1303 493 1260 l 546 1332 l 728 1332 l 493 1086 l 474 1086 z "},"Đ":{"ha":1008,"x_min":1,"x_max":964,"o":"m 404 1060 q 819 924 675 1060 q 964 532 964 788 q 819 138 964 275 q 404 0 675 0 l 83 0 l 83 446 l 1 446 l 1 614 l 83 614 l 83 1060 l 404 1060 m 401 222 q 636 298 557 222 q 715 532 715 374 q 632 759 715 681 q 401 838 549 838 l 332 838 l 332 614 l 586 614 l 586 446 l 332 446 l 332 222 l 401 222 z "},"E":{"ha":867,"x_min":83,"x_max":807,"o":"m 807 0 l 83 0 l 83 1060 l 807 1060 l 807 838 l 332 838 l 332 640 l 761 640 l 761 419 l 332 419 l 332 222 l 807 222 l 807 0 z "},"É":{"ha":867,"x_min":83,"x_max":807,"o":"m 807 0 l 83 0 l 83 1060 l 807 1060 l 807 838 l 332 838 l 332 640 l 761 640 l 761 419 l 332 419 l 332 222 l 807 222 l 807 0 m 518 1131 l 350 1131 l 508 1332 l 733 1332 l 518 1131 z "},"Ě":{"ha":867,"x_min":83,"x_max":807,"o":"m 807 0 l 83 0 l 83 1060 l 807 1060 l 807 838 l 332 838 l 332 640 l 761 640 l 761 419 l 332 419 l 332 222 l 807 222 l 807 0 m 436 1086 l 201 1332 l 383 1332 l 404 1303 q 436 1231 436 1260 l 456 1231 q 488 1303 456 1260 l 508 1332 l 690 1332 l 456 1086 l 436 1086 z "},"Ê":{"ha":867,"x_min":83,"x_max":807,"o":"m 807 0 l 83 0 l 83 1060 l 807 1060 l 807 838 l 332 838 l 332 640 l 761 640 l 761 419 l 332 419 l 332 222 l 807 222 l 807 0 m 201 1131 l 436 1378 l 456 1378 l 690 1131 l 508 1131 l 488 1160 q 456 1232 456 1203 l 436 1232 q 404 1160 436 1203 l 383 1131 l 201 1131 z "},"Ë":{"ha":867,"x_min":83,"x_max":807,"o":"m 807 0 l 83 0 l 83 1060 l 807 1060 l 807 838 l 332 838 l 332 640 l 761 640 l 761 419 l 332 419 l 332 222 l 807 222 l 807 0 m 293 1114 q 199 1147 238 1114 q 161 1233 161 1179 q 199 1321 161 1288 q 293 1354 238 1354 q 387 1321 349 1354 q 425 1233 425 1288 q 387 1147 425 1179 q 293 1114 349 1114 m 597 1114 q 503 1147 542 1114 q 465 1233 465 1179 q 503 1321 465 1288 q 597 1354 542 1354 q 691 1321 653 1354 q 729 1233 729 1288 q 691 1147 729 1179 q 597 1114 653 1114 z "},"Ė":{"ha":867,"x_min":83,"x_max":807,"o":"m 807 0 l 83 0 l 83 1060 l 807 1060 l 807 838 l 332 838 l 332 640 l 761 640 l 761 419 l 332 419 l 332 222 l 807 222 l 807 0 m 446 1114 q 352 1147 390 1114 q 314 1233 314 1179 q 352 1321 314 1288 q 446 1354 390 1354 q 540 1321 501 1354 q 578 1233 578 1288 q 540 1147 578 1179 q 446 1114 501 1114 z "},"È":{"ha":867,"x_min":83,"x_max":807,"o":"m 807 0 l 83 0 l 83 1060 l 807 1060 l 807 838 l 332 838 l 332 640 l 761 640 l 761 419 l 332 419 l 332 222 l 807 222 l 807 0 m 383 1332 l 542 1131 l 374 1131 l 158 1332 l 383 1332 z "},"Ē":{"ha":867,"x_min":83,"x_max":807,"o":"m 807 0 l 83 0 l 83 1060 l 807 1060 l 807 838 l 332 838 l 332 640 l 761 640 l 761 419 l 332 419 l 332 222 l 807 222 l 807 0 m 656 1132 l 236 1132 l 236 1240 l 656 1240 l 656 1132 z "},"Ę":{"ha":867,"x_min":83,"x_max":807,"o":"m 807 0 l 83 0 l 83 1060 l 807 1060 l 807 838 l 332 838 l 332 640 l 761 640 l 761 419 l 332 419 l 332 222 l 807 222 l 807 0 z "},"F":{"ha":842,"x_min":83,"x_max":807,"o":"m 332 0 l 83 0 l 83 1060 l 807 1060 l 807 838 l 332 838 l 332 640 l 761 640 l 761 419 l 332 419 l 332 0 z "},"G":{"ha":1149,"x_min":43,"x_max":1081,"o":"m 572 -24 q 279 51 399 -24 q 101 252 160 126 q 43 531 43 378 q 101 808 43 683 q 278 1008 160 933 q 572 1082 397 1082 q 921 980 792 1082 q 1076 701 1050 878 l 804 701 q 572 860 767 860 q 377 771 449 860 q 306 531 306 682 q 381 288 306 376 q 600 199 457 199 q 744 231 686 199 q 824 319 803 263 q 829 340 828 331 q 832 354 831 349 q 838 383 835 372 q 850 403 842 394 l 833 419 q 799 398 815 404 q 753 392 782 392 l 611 392 l 611 592 l 1081 592 l 1081 0 l 854 0 l 854 136 l 832 136 q 782 29 832 68 q 572 -24 715 -24 z "},"Ğ":{"ha":1149,"x_min":43,"x_max":1081,"o":"m 572 -24 q 279 51 399 -24 q 101 252 160 126 q 43 531 43 378 q 101 808 43 683 q 278 1008 160 933 q 572 1082 397 1082 q 921 980 792 1082 q 1076 701 1050 878 l 804 701 q 572 860 767 860 q 377 771 449 860 q 306 531 306 682 q 381 288 306 376 q 600 199 457 199 q 744 231 686 199 q 824 319 803 263 q 829 340 828 331 q 832 354 831 349 q 838 383 835 372 q 850 403 842 394 l 833 419 q 799 398 815 404 q 753 392 782 392 l 611 392 l 611 592 l 1081 592 l 1081 0 l 854 0 l 854 136 l 832 136 q 782 29 832 68 q 572 -24 715 -24 m 575 1114 q 402 1172 461 1114 q 338 1332 343 1229 l 464 1332 q 501 1261 471 1285 q 575 1238 532 1238 q 649 1262 619 1238 q 685 1332 678 1286 l 813 1332 q 747 1172 807 1231 q 575 1114 686 1114 z "},"Ģ":{"ha":1149,"x_min":43,"x_max":1081,"o":"m 572 -24 q 279 51 399 -24 q 101 252 160 126 q 43 531 43 378 q 101 808 43 683 q 278 1008 160 933 q 572 1082 397 1082 q 921 980 792 1082 q 1076 701 1050 878 l 804 701 q 572 860 767 860 q 377 771 449 860 q 306 531 306 682 q 381 288 306 376 q 600 199 457 199 q 744 231 686 199 q 824 319 803 263 q 829 340 828 331 q 832 354 831 349 q 838 383 835 372 q 850 403 842 394 l 833 419 q 799 398 815 404 q 753 392 782 392 l 611 392 l 611 592 l 1081 592 l 1081 0 l 854 0 l 854 136 l 832 136 q 782 29 832 68 q 572 -24 715 -24 m 499 -221 q 590 -182 574 -221 q 594 -161 594 -174 l 583 -161 q 539 -182 571 -182 q 496 -167 513 -182 q 479 -121 479 -151 q 504 -67 479 -87 q 569 -46 529 -46 q 644 -74 618 -46 q 671 -146 671 -103 q 499 -272 671 -272 l 499 -221 z "},"Ġ":{"ha":1149,"x_min":43,"x_max":1081,"o":"m 572 -24 q 279 51 399 -24 q 101 252 160 126 q 43 531 43 378 q 101 808 43 683 q 278 1008 160 933 q 572 1082 397 1082 q 921 980 792 1082 q 1076 701 1050 878 l 804 701 q 572 860 767 860 q 377 771 449 860 q 306 531 306 682 q 381 288 306 376 q 600 199 457 199 q 744 231 686 199 q 824 319 803 263 q 829 340 828 331 q 832 354 831 349 q 838 383 835 372 q 850 403 842 394 l 833 419 q 799 398 815 404 q 753 392 782 392 l 611 392 l 611 592 l 1081 592 l 1081 0 l 854 0 l 854 136 l 832 136 q 782 29 832 68 q 572 -24 715 -24 m 575 1114 q 481 1147 519 1114 q 443 1233 443 1179 q 481 1321 443 1288 q 575 1354 519 1354 q 669 1321 631 1354 q 707 1233 707 1288 q 669 1147 707 1179 q 575 1114 631 1114 z "},"H":{"ha":1069,"x_min":83,"x_max":983,"o":"m 332 0 l 83 0 l 83 1060 l 332 1060 l 332 640 l 735 640 l 735 1060 l 983 1060 l 983 0 l 735 0 l 735 418 l 332 418 l 332 0 z "},"I":{"ha":417,"x_min":83,"x_max":332,"o":"m 332 0 l 83 0 l 83 1060 l 332 1060 l 332 0 z "},"Í":{"ha":417,"x_min":83,"x_max":496,"o":"m 332 0 l 83 0 l 83 1060 l 332 1060 l 332 0 m 281 1131 l 113 1131 l 271 1332 l 496 1332 l 281 1131 z "},"Î":{"ha":417,"x_min":-36,"x_max":453,"o":"m 332 0 l 83 0 l 83 1060 l 332 1060 l 332 0 m -36 1131 l 199 1378 l 218 1378 l 453 1131 l 271 1131 l 250 1160 q 218 1232 218 1203 l 199 1232 q 167 1160 199 1203 l 146 1131 l -36 1131 z "},"Ï":{"ha":417,"x_min":-76,"x_max":492,"o":"m 332 0 l 83 0 l 83 1060 l 332 1060 l 332 0 m 56 1114 q -38 1147 0 1114 q -76 1233 -76 1179 q -38 1321 -76 1288 q 56 1354 0 1354 q 149 1321 111 1354 q 188 1233 188 1288 q 149 1147 188 1179 q 56 1114 111 1114 m 360 1114 q 266 1147 304 1114 q 228 1233 228 1179 q 266 1321 228 1288 q 360 1354 304 1354 q 453 1321 415 1354 q 492 1233 492 1288 q 453 1147 492 1179 q 360 1114 415 1114 z "},"İ":{"ha":417,"x_min":76,"x_max":340,"o":"m 332 0 l 83 0 l 83 1060 l 332 1060 l 332 0 m 208 1114 q 115 1147 153 1114 q 76 1233 76 1179 q 115 1321 76 1288 q 208 1354 153 1354 q 302 1321 264 1354 q 340 1233 340 1288 q 302 1147 340 1179 q 208 1114 264 1114 z "},"Ì":{"ha":417,"x_min":-79,"x_max":332,"o":"m 332 0 l 83 0 l 83 1060 l 332 1060 l 332 0 m 146 1332 l 304 1131 l 136 1131 l -79 1332 l 146 1332 z "},"Ī":{"ha":417,"x_min":-1,"x_max":418,"o":"m 332 0 l 83 0 l 83 1060 l 332 1060 l 332 0 m 418 1132 l -1 1132 l -1 1240 l 418 1240 l 418 1132 z "},"Į":{"ha":417,"x_min":50,"x_max":332,"o":"m 332 0 l 83 0 l 83 1060 l 332 1060 l 332 0 z "},"J":{"ha":558,"x_min":11,"x_max":481,"o":"m 11 0 l 11 222 l 147 222 q 231 306 231 222 l 231 1060 l 481 1060 l 481 303 q 447 118 481 183 q 341 26 413 53 q 147 0 269 0 l 11 0 z "},"K":{"ha":965,"x_min":83,"x_max":965,"o":"m 83 0 l 83 1060 l 332 1060 l 332 574 l 354 574 q 370 642 354 608 q 410 708 386 675 l 661 1060 l 960 1060 l 571 546 l 965 0 l 664 0 l 410 364 q 326 504 357 440 l 307 492 q 327 446 322 469 q 332 363 332 422 l 332 0 l 83 0 z "},"Ķ":{"ha":965,"x_min":83,"x_max":965,"o":"m 83 0 l 83 1060 l 332 1060 l 332 574 l 354 574 q 370 642 354 608 q 410 708 386 675 l 661 1060 l 960 1060 l 571 546 l 965 0 l 664 0 l 410 364 q 326 504 357 440 l 307 492 q 327 446 322 469 q 332 363 332 422 l 332 0 l 83 0 m 407 -221 q 499 -182 482 -221 q 503 -161 503 -174 l 492 -161 q 447 -182 479 -182 q 404 -167 421 -182 q 388 -121 388 -151 q 413 -67 388 -87 q 478 -46 438 -46 q 553 -74 526 -46 q 579 -146 579 -103 q 407 -272 579 -272 l 407 -221 z "},"L":{"ha":775,"x_min":83,"x_max":764,"o":"m 764 0 l 83 0 l 83 1060 l 332 1060 l 332 222 l 764 222 l 764 0 z "},"Ĺ":{"ha":775,"x_min":83,"x_max":764,"o":"m 764 0 l 83 0 l 83 1060 l 332 1060 l 332 222 l 764 222 l 764 0 m 281 1131 l 113 1131 l 271 1332 l 496 1332 l 281 1131 z "},"Ľ":{"ha":775,"x_min":83,"x_max":782,"o":"m 764 0 l 83 0 l 83 1060 l 332 1060 l 332 222 l 764 222 l 764 0 z "},"Ļ":{"ha":775,"x_min":83,"x_max":764,"o":"m 764 0 l 83 0 l 83 1060 l 332 1060 l 332 222 l 764 222 l 764 0 m 347 -221 q 439 -182 422 -221 q 443 -161 443 -174 l 432 -161 q 388 -182 419 -182 q 344 -167 361 -182 q 328 -121 328 -151 q 353 -67 328 -87 q 418 -46 378 -46 q 493 -74 467 -46 q 519 -146 519 -103 q 347 -272 519 -272 l 347 -221 z "},"Ł":{"ha":826,"x_min":43,"x_max":826,"o":"m 826 0 l 146 0 l 146 388 l 43 338 l 43 529 l 146 582 l 146 1060 l 394 1060 l 394 710 l 590 811 l 590 619 l 394 518 l 394 222 l 826 222 l 826 0 z "},"M":{"ha":1318,"x_min":83,"x_max":1233,"o":"m 83 0 l 83 1060 l 483 1060 l 625 444 q 640 359 633 410 q 647 257 647 308 l 669 257 q 676 359 669 308 q 692 444 683 410 l 832 1060 l 1233 1060 l 1233 0 l 985 0 l 985 667 q 987 753 985 719 q 996 846 989 786 l 974 849 q 939 667 957 739 l 779 0 l 538 0 l 378 667 q 343 849 360 739 l 321 846 q 330 753 328 786 q 332 667 332 719 l 332 0 l 83 0 z "},"N":{"ha":1075,"x_min":83,"x_max":992,"o":"m 83 0 l 83 1060 l 336 1060 l 672 529 q 703 471 690 499 q 733 388 717 443 l 756 393 q 745 458 747 432 q 743 528 743 485 l 743 1060 l 992 1060 l 992 0 l 739 0 l 400 539 q 369 594 382 567 q 342 675 357 621 l 319 669 q 330 605 328 631 q 332 536 332 579 l 332 0 l 83 0 z "},"Ń":{"ha":1075,"x_min":83,"x_max":992,"o":"m 83 0 l 83 1060 l 336 1060 l 672 529 q 703 471 690 499 q 733 388 717 443 l 756 393 q 745 458 747 432 q 743 528 743 485 l 743 1060 l 992 1060 l 992 0 l 739 0 l 400 539 q 369 594 382 567 q 342 675 357 621 l 319 669 q 330 605 328 631 q 332 536 332 579 l 332 0 l 83 0 m 610 1131 l 442 1131 l 600 1332 l 825 1332 l 610 1131 z "},"Ň":{"ha":1075,"x_min":83,"x_max":992,"o":"m 83 0 l 83 1060 l 336 1060 l 672 529 q 703 471 690 499 q 733 388 717 443 l 756 393 q 745 458 747 432 q 743 528 743 485 l 743 1060 l 992 1060 l 992 0 l 739 0 l 400 539 q 369 594 382 567 q 342 675 357 621 l 319 669 q 330 605 328 631 q 332 536 332 579 l 332 0 l 83 0 m 528 1086 l 293 1332 l 475 1332 l 496 1303 q 528 1231 528 1260 l 547 1231 q 579 1303 547 1260 l 600 1332 l 782 1332 l 547 1086 l 528 1086 z "},"Ņ":{"ha":1075,"x_min":83,"x_max":992,"o":"m 83 0 l 83 1060 l 336 1060 l 672 529 q 703 471 690 499 q 733 388 717 443 l 756 393 q 745 458 747 432 q 743 528 743 485 l 743 1060 l 992 1060 l 992 0 l 739 0 l 400 539 q 369 594 382 567 q 342 675 357 621 l 319 669 q 330 605 328 631 q 332 536 332 579 l 332 0 l 83 0 m 461 -221 q 553 -182 536 -221 q 557 -161 557 -174 l 546 -161 q 501 -182 533 -182 q 458 -167 475 -182 q 442 -121 442 -151 q 467 -67 442 -87 q 532 -46 492 -46 q 607 -74 581 -46 q 633 -146 633 -103 q 461 -272 633 -272 l 461 -221 z "},"Ñ":{"ha":1075,"x_min":83,"x_max":992,"o":"m 83 0 l 83 1060 l 336 1060 l 672 529 q 703 471 690 499 q 733 388 717 443 l 756 393 q 745 458 747 432 q 743 528 743 485 l 743 1060 l 992 1060 l 992 0 l 739 0 l 400 539 q 369 594 382 567 q 342 675 357 621 l 319 669 q 330 605 328 631 q 332 536 332 579 l 332 0 l 83 0 m 629 1107 q 551 1124 582 1107 q 489 1172 521 1142 q 461 1196 471 1189 q 440 1203 451 1203 q 401 1108 406 1203 l 278 1108 q 328 1276 282 1214 q 449 1338 374 1338 q 520 1320 490 1338 q 583 1272 550 1303 q 610 1249 600 1257 q 631 1242 621 1242 q 656 1265 646 1242 q 667 1332 665 1288 l 794 1332 q 749 1162 788 1217 q 629 1107 710 1107 z "},"O":{"ha":1147,"x_min":44,"x_max":1101,"o":"m 574 -24 q 281 51 400 -24 q 103 252 161 126 q 44 531 44 378 q 103 808 44 683 q 280 1008 161 933 q 574 1082 399 1082 q 866 1008 747 1082 q 1043 808 985 933 q 1101 531 1101 683 q 1043 252 1101 378 q 866 51 985 126 q 574 -24 747 -24 m 574 199 q 768 288 697 199 q 839 531 839 378 q 768 771 839 682 q 574 860 697 860 q 378 771 450 860 q 307 531 307 682 q 378 288 307 378 q 574 199 450 199 z "},"Ó":{"ha":1147,"x_min":44,"x_max":1101,"o":"m 574 -24 q 281 51 400 -24 q 103 252 161 126 q 44 531 44 378 q 103 808 44 683 q 280 1008 161 933 q 574 1082 399 1082 q 866 1008 747 1082 q 1043 808 985 933 q 1101 531 1101 683 q 1043 252 1101 378 q 866 51 985 126 q 574 -24 747 -24 m 574 199 q 768 288 697 199 q 839 531 839 378 q 768 771 839 682 q 574 860 697 860 q 378 771 450 860 q 307 531 307 682 q 378 288 307 378 q 574 199 450 199 m 644 1131 l 476 1131 l 635 1332 l 860 1332 l 644 1131 z "},"Ô":{"ha":1147,"x_min":44,"x_max":1101,"o":"m 574 -24 q 281 51 400 -24 q 103 252 161 126 q 44 531 44 378 q 103 808 44 683 q 280 1008 161 933 q 574 1082 399 1082 q 866 1008 747 1082 q 1043 808 985 933 q 1101 531 1101 683 q 1043 252 1101 378 q 866 51 985 126 q 574 -24 747 -24 m 574 199 q 768 288 697 199 q 839 531 839 378 q 768 771 839 682 q 574 860 697 860 q 378 771 450 860 q 307 531 307 682 q 378 288 307 378 q 574 199 450 199 m 328 1131 l 563 1378 l 582 1378 l 817 1131 l 635 1131 l 614 1160 q 582 1232 582 1203 l 563 1232 q 531 1160 563 1203 l 510 1131 l 328 1131 z "},"Ö":{"ha":1147,"x_min":44,"x_max":1101,"o":"m 574 -24 q 281 51 400 -24 q 103 252 161 126 q 44 531 44 378 q 103 808 44 683 q 280 1008 161 933 q 574 1082 399 1082 q 866 1008 747 1082 q 1043 808 985 933 q 1101 531 1101 683 q 1043 252 1101 378 q 866 51 985 126 q 574 -24 747 -24 m 574 199 q 768 288 697 199 q 839 531 839 378 q 768 771 839 682 q 574 860 697 860 q 378 771 450 860 q 307 531 307 682 q 378 288 307 378 q 574 199 450 199 m 419 1114 q 326 1147 364 1114 q 288 1233 288 1179 q 326 1321 288 1288 q 419 1354 364 1354 q 513 1321 475 1354 q 551 1233 551 1288 q 513 1147 551 1179 q 419 1114 475 1114 m 724 1114 q 630 1147 668 1114 q 592 1233 592 1179 q 630 1321 592 1288 q 724 1354 668 1354 q 817 1321 779 1354 q 856 1233 856 1288 q 817 1147 856 1179 q 724 1114 779 1114 z "},"Ò":{"ha":1147,"x_min":44,"x_max":1101,"o":"m 574 -24 q 281 51 400 -24 q 103 252 161 126 q 44 531 44 378 q 103 808 44 683 q 280 1008 161 933 q 574 1082 399 1082 q 866 1008 747 1082 q 1043 808 985 933 q 1101 531 1101 683 q 1043 252 1101 378 q 866 51 985 126 q 574 -24 747 -24 m 574 199 q 768 288 697 199 q 839 531 839 378 q 768 771 839 682 q 574 860 697 860 q 378 771 450 860 q 307 531 307 682 q 378 288 307 378 q 574 199 450 199 m 510 1332 l 668 1131 l 500 1131 l 285 1332 l 510 1332 z "},"Ő":{"ha":1147,"x_min":44,"x_max":1101,"o":"m 574 -24 q 281 51 400 -24 q 103 252 161 126 q 44 531 44 378 q 103 808 44 683 q 280 1008 161 933 q 574 1082 399 1082 q 866 1008 747 1082 q 1043 808 985 933 q 1101 531 1101 683 q 1043 252 1101 378 q 866 51 985 126 q 574 -24 747 -24 m 574 199 q 768 288 697 199 q 839 531 839 378 q 768 771 839 682 q 574 860 697 860 q 378 771 450 860 q 307 531 307 682 q 378 288 307 378 q 574 199 450 199 m 510 1131 l 342 1131 l 504 1332 l 700 1332 l 510 1131 m 801 1131 l 633 1131 l 796 1332 l 1008 1332 l 801 1131 z "},"Ō":{"ha":1147,"x_min":44,"x_max":1101,"o":"m 574 -24 q 281 51 400 -24 q 103 252 161 126 q 44 531 44 378 q 103 808 44 683 q 280 1008 161 933 q 574 1082 399 1082 q 866 1008 747 1082 q 1043 808 985 933 q 1101 531 1101 683 q 1043 252 1101 378 q 866 51 985 126 q 574 -24 747 -24 m 574 199 q 768 288 697 199 q 839 531 839 378 q 768 771 839 682 q 574 860 697 860 q 378 771 450 860 q 307 531 307 682 q 378 288 307 378 q 574 199 450 199 m 782 1132 l 363 1132 l 363 1240 l 782 1240 l 782 1132 z "},"Ø":{"ha":1147,"x_min":44,"x_max":1101,"o":"m 1008 871 q 1101 531 1101 728 q 1043 252 1101 378 q 866 51 985 126 q 574 -24 747 -24 q 226 90 363 -24 l 154 18 l 57 111 l 138 190 q 68 348 92 261 q 44 531 44 435 q 103 808 44 683 q 280 1008 161 933 q 574 1082 399 1082 q 918 969 783 1082 l 992 1043 l 1088 950 l 1008 871 m 307 531 q 329 382 307 444 l 744 797 q 574 860 678 860 q 378 771 450 860 q 307 531 307 682 m 574 199 q 768 288 697 199 q 839 531 839 378 q 817 679 839 617 l 400 264 q 574 199 469 199 z "},"Ǿ":{"ha":1147,"x_min":44,"x_max":1101,"o":"m 1008 871 q 1101 531 1101 728 q 1043 252 1101 378 q 866 51 985 126 q 574 -24 747 -24 q 226 90 363 -24 l 154 18 l 57 111 l 138 190 q 68 348 92 261 q 44 531 44 435 q 103 808 44 683 q 280 1008 161 933 q 574 1082 399 1082 q 918 969 783 1082 l 992 1043 l 1088 950 l 1008 871 m 307 531 q 329 382 307 444 l 744 797 q 574 860 678 860 q 378 771 450 860 q 307 531 307 682 m 574 199 q 768 288 697 199 q 839 531 839 378 q 817 679 839 617 l 400 264 q 574 199 469 199 m 644 1131 l 476 1131 l 635 1332 l 860 1332 l 644 1131 z "},"Õ":{"ha":1147,"x_min":44,"x_max":1101,"o":"m 574 -24 q 281 51 400 -24 q 103 252 161 126 q 44 531 44 378 q 103 808 44 683 q 280 1008 161 933 q 574 1082 399 1082 q 866 1008 747 1082 q 1043 808 985 933 q 1101 531 1101 683 q 1043 252 1101 378 q 866 51 985 126 q 574 -24 747 -24 m 574 199 q 768 288 697 199 q 839 531 839 378 q 768 771 839 682 q 574 860 697 860 q 378 771 450 860 q 307 531 307 682 q 378 288 307 378 q 574 199 450 199 m 664 1107 q 586 1124 617 1107 q 524 1172 556 1142 q 496 1196 506 1189 q 475 1203 486 1203 q 436 1108 440 1203 l 313 1108 q 363 1276 317 1214 q 483 1338 408 1338 q 555 1320 525 1338 q 618 1272 585 1303 q 645 1249 635 1257 q 665 1242 656 1242 q 690 1265 681 1242 q 701 1332 700 1288 l 829 1332 q 783 1162 822 1217 q 664 1107 744 1107 z "},"Œ":{"ha":1628,"x_min":44,"x_max":1568,"o":"m 550 -24 q 273 51 388 -24 q 101 252 158 126 q 44 531 44 378 q 101 808 44 683 q 272 1008 158 933 q 550 1082 386 1082 q 729 1045 649 1082 q 842 953 810 1008 l 858 960 q 848 993 851 978 q 844 1026 844 1008 l 844 1060 l 1568 1060 l 1568 838 l 1093 838 l 1093 640 l 1522 640 l 1522 419 l 1093 419 l 1093 222 l 1568 222 l 1568 0 l 844 0 l 844 26 q 858 99 844 68 l 843 108 q 731 11 810 46 q 550 -24 653 -24 m 574 199 q 768 288 697 199 q 839 531 839 378 q 768 771 839 682 q 574 860 697 860 q 378 771 450 860 q 307 531 307 682 q 378 288 307 378 q 574 199 450 199 z "},"P":{"ha":949,"x_min":83,"x_max":918,"o":"m 83 0 l 83 1060 l 583 1060 q 828 983 739 1060 q 918 740 918 906 q 876 563 918 638 q 757 448 833 488 q 583 408 681 408 l 332 408 l 332 0 l 83 0 m 549 624 q 672 732 672 624 q 641 810 672 783 q 549 838 610 838 l 332 838 l 332 624 l 549 624 z "},"Þ":{"ha":933,"x_min":83,"x_max":917,"o":"m 83 0 l 83 1060 l 331 1060 l 331 921 l 582 921 q 826 844 736 921 q 917 608 917 768 q 874 435 917 508 q 755 322 831 361 q 582 283 679 283 l 331 283 l 331 0 l 83 0 m 554 500 q 640 525 610 500 q 671 601 671 550 q 640 673 671 649 q 554 697 610 697 l 331 697 l 331 500 l 554 500 z "},"Q":{"ha":1150,"x_min":44,"x_max":1101,"o":"m 775 -54 q 762 -33 772 -50 q 751 -3 751 -15 q 765 28 751 13 l 746 38 q 676 -7 721 8 q 574 -24 629 -24 q 281 51 400 -24 q 103 252 161 126 q 44 531 44 378 q 103 808 44 683 q 280 1008 161 933 q 574 1082 399 1082 q 866 1008 747 1082 q 1043 808 985 933 q 1101 531 1101 683 q 1063 299 1101 407 q 947 115 1024 190 l 1097 -121 l 817 -121 l 775 -54 m 574 199 q 769 285 700 199 q 839 531 839 371 q 769 775 839 690 q 574 860 700 860 q 377 774 447 860 q 307 531 307 689 q 377 285 307 371 q 574 199 447 199 z "},"R":{"ha":983,"x_min":83,"x_max":950,"o":"m 83 0 l 83 1060 l 583 1060 q 828 983 739 1060 q 918 740 918 906 q 902 624 918 679 q 857 532 886 568 q 744 475 813 479 l 738 456 q 769 437 758 451 q 792 392 779 422 l 950 0 l 688 0 l 533 408 l 332 408 l 332 0 l 83 0 m 549 624 q 672 732 672 624 q 641 810 672 783 q 549 838 610 838 l 332 838 l 332 624 l 549 624 z "},"Ŕ":{"ha":983,"x_min":83,"x_max":950,"o":"m 83 0 l 83 1060 l 583 1060 q 828 983 739 1060 q 918 740 918 906 q 902 624 918 679 q 857 532 886 568 q 744 475 813 479 l 738 456 q 769 437 758 451 q 792 392 779 422 l 950 0 l 688 0 l 533 408 l 332 408 l 332 0 l 83 0 m 549 624 q 672 732 672 624 q 641 810 672 783 q 549 838 610 838 l 332 838 l 332 624 l 549 624 m 547 1131 l 379 1131 l 538 1332 l 763 1332 l 547 1131 z "},"Ř":{"ha":983,"x_min":83,"x_max":950,"o":"m 83 0 l 83 1060 l 583 1060 q 828 983 739 1060 q 918 740 918 906 q 902 624 918 679 q 857 532 886 568 q 744 475 813 479 l 738 456 q 769 437 758 451 q 792 392 779 422 l 950 0 l 688 0 l 533 408 l 332 408 l 332 0 l 83 0 m 549 624 q 672 732 672 624 q 641 810 672 783 q 549 838 610 838 l 332 838 l 332 624 l 549 624 m 465 1086 l 231 1332 l 413 1332 l 433 1303 q 465 1231 465 1260 l 485 1231 q 517 1303 485 1260 l 538 1332 l 719 1332 l 485 1086 l 465 1086 z "},"Ŗ":{"ha":983,"x_min":83,"x_max":950,"o":"m 83 0 l 83 1060 l 583 1060 q 828 983 739 1060 q 918 740 918 906 q 902 624 918 679 q 857 532 886 568 q 744 475 813 479 l 738 456 q 769 437 758 451 q 792 392 779 422 l 950 0 l 688 0 l 533 408 l 332 408 l 332 0 l 83 0 m 549 624 q 672 732 672 624 q 641 810 672 783 q 549 838 610 838 l 332 838 l 332 624 l 549 624 m 433 -221 q 525 -182 508 -221 q 529 -161 529 -174 l 518 -161 q 474 -182 506 -182 q 431 -167 447 -182 q 414 -121 414 -151 q 439 -67 414 -87 q 504 -46 464 -46 q 579 -74 553 -46 q 606 -146 606 -103 q 433 -272 606 -272 l 433 -221 z "},"S":{"ha":989,"x_min":43,"x_max":943,"o":"m 529 -24 q 310 13 417 -24 q 128 135 203 49 q 43 360 53 221 l 300 360 q 528 185 346 185 q 645 215 597 185 q 693 303 693 244 q 663 367 693 342 q 588 406 633 392 q 461 438 543 419 q 260 494 338 465 q 127 587 183 524 q 71 758 71 650 q 123 937 71 864 q 264 1046 175 1010 q 464 1082 353 1082 q 675 1042 578 1082 q 836 923 772 1003 q 917 729 900 843 l 660 729 q 588 835 640 797 q 458 874 536 874 q 359 850 400 874 q 318 779 318 826 q 347 720 318 743 q 419 683 375 697 q 542 651 463 669 q 746 593 665 624 q 885 496 826 563 q 943 315 943 429 q 893 135 943 211 q 750 17 843 58 q 529 -24 657 -24 z "},"Ś":{"ha":989,"x_min":43,"x_max":943,"o":"m 529 -24 q 310 13 417 -24 q 128 135 203 49 q 43 360 53 221 l 300 360 q 528 185 346 185 q 645 215 597 185 q 693 303 693 244 q 663 367 693 342 q 588 406 633 392 q 461 438 543 419 q 260 494 338 465 q 127 587 183 524 q 71 758 71 650 q 123 937 71 864 q 264 1046 175 1010 q 464 1082 353 1082 q 675 1042 578 1082 q 836 923 772 1003 q 917 729 900 843 l 660 729 q 588 835 640 797 q 458 874 536 874 q 359 850 400 874 q 318 779 318 826 q 347 720 318 743 q 419 683 375 697 q 542 651 463 669 q 746 593 665 624 q 885 496 826 563 q 943 315 943 429 q 893 135 943 211 q 750 17 843 58 q 529 -24 657 -24 m 567 1131 l 399 1131 l 557 1332 l 782 1332 l 567 1131 z "},"Š":{"ha":989,"x_min":43,"x_max":943,"o":"m 529 -24 q 310 13 417 -24 q 128 135 203 49 q 43 360 53 221 l 300 360 q 528 185 346 185 q 645 215 597 185 q 693 303 693 244 q 663 367 693 342 q 588 406 633 392 q 461 438 543 419 q 260 494 338 465 q 127 587 183 524 q 71 758 71 650 q 123 937 71 864 q 264 1046 175 1010 q 464 1082 353 1082 q 675 1042 578 1082 q 836 923 772 1003 q 917 729 900 843 l 660 729 q 588 835 640 797 q 458 874 536 874 q 359 850 400 874 q 318 779 318 826 q 347 720 318 743 q 419 683 375 697 q 542 651 463 669 q 746 593 665 624 q 885 496 826 563 q 943 315 943 429 q 893 135 943 211 q 750 17 843 58 q 529 -24 657 -24 m 485 1086 l 250 1332 l 432 1332 l 453 1303 q 485 1231 485 1260 l 504 1231 q 536 1303 504 1260 l 557 1332 l 739 1332 l 504 1086 l 485 1086 z "},"Ş":{"ha":989,"x_min":43,"x_max":943,"o":"m 943 315 q 893 135 943 211 q 750 17 843 58 q 531 -24 657 -24 q 500 -44 522 -31 l 507 -57 q 535 -56 517 -56 q 611 -72 583 -56 q 645 -107 635 -86 q 656 -158 656 -128 q 603 -256 656 -222 q 467 -289 550 -289 q 333 -268 400 -289 l 333 -183 q 454 -211 408 -211 q 501 -199 485 -211 q 517 -164 517 -186 q 470 -108 517 -122 q 343 -93 424 -93 l 414 -14 q 158 101 263 11 q 43 360 54 192 l 300 360 q 528 185 346 185 q 645 215 597 185 q 693 303 693 244 q 663 367 693 342 q 588 406 633 392 q 461 438 543 419 q 260 494 338 465 q 127 587 183 524 q 71 758 71 650 q 123 937 71 864 q 264 1046 175 1010 q 464 1082 353 1082 q 675 1042 578 1082 q 836 923 772 1003 q 917 729 900 843 l 660 729 q 588 835 640 797 q 458 874 536 874 q 359 850 400 874 q 318 779 318 826 q 347 720 318 743 q 419 683 375 697 q 542 651 463 669 q 746 593 665 624 q 885 496 826 563 q 943 315 943 429 z "},"Ș":{"ha":989,"x_min":43,"x_max":943,"o":"m 529 -24 q 310 13 417 -24 q 128 135 203 49 q 43 360 53 221 l 300 360 q 528 185 346 185 q 645 215 597 185 q 693 303 693 244 q 663 367 693 342 q 588 406 633 392 q 461 438 543 419 q 260 494 338 465 q 127 587 183 524 q 71 758 71 650 q 123 937 71 864 q 264 1046 175 1010 q 464 1082 353 1082 q 675 1042 578 1082 q 836 923 772 1003 q 917 729 900 843 l 660 729 q 588 835 640 797 q 458 874 536 874 q 359 850 400 874 q 318 779 318 826 q 347 720 318 743 q 419 683 375 697 q 542 651 463 669 q 746 593 665 624 q 885 496 826 563 q 943 315 943 429 q 893 135 943 211 q 750 17 843 58 q 529 -24 657 -24 m 418 -221 q 510 -182 493 -221 q 514 -161 514 -174 l 503 -161 q 458 -182 490 -182 q 415 -167 432 -182 q 399 -121 399 -151 q 424 -67 399 -87 q 489 -46 449 -46 q 564 -74 538 -46 q 590 -146 590 -103 q 418 -272 590 -272 l 418 -221 z "},"ẞ":{"ha":976,"x_min":83,"x_max":931,"o":"m 83 625 q 106 834 83 750 q 182 974 129 918 q 499 1082 282 1082 q 684 1047 599 1082 q 832 953 769 1011 l 832 743 l 761 675 q 685 618 731 644 l 689 599 q 799 574 750 601 q 895 476 860 542 q 931 328 931 410 q 799 63 931 126 q 536 0 668 0 l 415 0 l 415 222 l 547 222 q 645 252 608 222 q 682 333 682 282 q 538 438 682 438 l 447 438 l 447 628 l 578 756 q 615 785 597 775 q 657 794 633 794 l 657 817 q 605 828 625 817 q 582 842 585 840 q 499 860 547 860 q 374 810 413 860 q 342 743 353 786 q 332 625 332 700 l 332 0 l 83 0 l 83 625 z "},"T":{"ha":868,"x_min":11,"x_max":857,"o":"m 558 0 l 310 0 l 310 838 l 11 838 l 11 1060 l 857 1060 l 857 838 l 558 838 l 558 0 z "},"Ť":{"ha":868,"x_min":11,"x_max":857,"o":"m 558 0 l 310 0 l 310 838 l 11 838 l 11 1060 l 857 1060 l 857 838 l 558 838 l 558 0 m 425 1086 l 190 1332 l 372 1332 l 393 1303 q 425 1231 425 1260 l 444 1231 q 476 1303 444 1260 l 497 1332 l 679 1332 l 444 1086 l 425 1086 z "},"Ţ":{"ha":868,"x_min":11,"x_max":857,"o":"m 558 0 l 501 0 q 440 -44 469 -25 l 447 -57 q 475 -56 457 -56 q 551 -72 524 -56 q 585 -107 575 -86 q 596 -158 596 -128 q 543 -256 596 -222 q 407 -289 490 -289 q 274 -268 340 -289 l 274 -183 q 394 -211 349 -211 q 441 -199 425 -211 q 457 -164 457 -186 q 410 -108 457 -122 q 283 -93 364 -93 l 367 0 l 310 0 l 310 838 l 11 838 l 11 1060 l 857 1060 l 857 838 l 558 838 l 558 0 z "},"Ț":{"ha":868,"x_min":11,"x_max":857,"o":"m 558 0 l 310 0 l 310 838 l 11 838 l 11 1060 l 857 1060 l 857 838 l 558 838 l 558 0 m 358 -221 q 450 -182 433 -221 q 454 -161 454 -174 l 443 -161 q 399 -182 431 -182 q 356 -167 372 -182 q 339 -121 339 -151 q 364 -67 339 -87 q 429 -46 389 -46 q 504 -74 478 -46 q 531 -146 531 -103 q 358 -272 531 -272 l 358 -221 z "},"U":{"ha":1047,"x_min":72,"x_max":974,"o":"m 524 -24 q 181 89 289 -24 q 72 396 72 201 l 72 1060 l 322 1060 l 322 396 q 367 251 322 304 q 524 199 411 199 q 680 251 636 199 q 724 396 724 304 l 724 1060 l 974 1060 l 974 396 q 865 89 974 201 q 524 -24 757 -24 z "},"Ú":{"ha":1047,"x_min":72,"x_max":974,"o":"m 524 -24 q 181 89 289 -24 q 72 396 72 201 l 72 1060 l 322 1060 l 322 396 q 367 251 322 304 q 524 199 411 199 q 680 251 636 199 q 724 396 724 304 l 724 1060 l 974 1060 l 974 396 q 865 89 974 201 q 524 -24 757 -24 m 596 1131 l 428 1131 l 586 1332 l 811 1332 l 596 1131 z "},"Û":{"ha":1047,"x_min":72,"x_max":974,"o":"m 524 -24 q 181 89 289 -24 q 72 396 72 201 l 72 1060 l 322 1060 l 322 396 q 367 251 322 304 q 524 199 411 199 q 680 251 636 199 q 724 396 724 304 l 724 1060 l 974 1060 l 974 396 q 865 89 974 201 q 524 -24 757 -24 m 279 1131 l 514 1378 l 533 1378 l 768 1131 l 586 1131 l 565 1160 q 533 1232 533 1203 l 514 1232 q 482 1160 514 1203 l 461 1131 l 279 1131 z "},"Ü":{"ha":1047,"x_min":72,"x_max":974,"o":"m 524 -24 q 181 89 289 -24 q 72 396 72 201 l 72 1060 l 322 1060 l 322 396 q 367 251 322 304 q 524 199 411 199 q 680 251 636 199 q 724 396 724 304 l 724 1060 l 974 1060 l 974 396 q 865 89 974 201 q 524 -24 757 -24 m 371 1114 q 277 1147 315 1114 q 239 1233 239 1179 q 277 1321 239 1288 q 371 1354 315 1354 q 465 1321 426 1354 q 503 1233 503 1288 q 465 1147 503 1179 q 371 1114 426 1114 m 675 1114 q 581 1147 619 1114 q 543 1233 543 1179 q 581 1321 543 1288 q 675 1354 619 1354 q 769 1321 731 1354 q 807 1233 807 1288 q 769 1147 807 1179 q 675 1114 731 1114 z "},"Ù":{"ha":1047,"x_min":72,"x_max":974,"o":"m 524 -24 q 181 89 289 -24 q 72 396 72 201 l 72 1060 l 322 1060 l 322 396 q 367 251 322 304 q 524 199 411 199 q 680 251 636 199 q 724 396 724 304 l 724 1060 l 974 1060 l 974 396 q 865 89 974 201 q 524 -24 757 -24 m 461 1332 l 619 1131 l 451 1131 l 236 1332 l 461 1332 z "},"Ű":{"ha":1047,"x_min":72,"x_max":974,"o":"m 524 -24 q 181 89 289 -24 q 72 396 72 201 l 72 1060 l 322 1060 l 322 396 q 367 251 322 304 q 524 199 411 199 q 680 251 636 199 q 724 396 724 304 l 724 1060 l 974 1060 l 974 396 q 865 89 974 201 q 524 -24 757 -24 m 461 1131 l 293 1131 l 456 1332 l 651 1332 l 461 1131 m 753 1131 l 585 1131 l 747 1332 l 960 1332 l 753 1131 z "},"Ū":{"ha":1047,"x_min":72,"x_max":974,"o":"m 524 -24 q 181 89 289 -24 q 72 396 72 201 l 72 1060 l 322 1060 l 322 396 q 367 251 322 304 q 524 199 411 199 q 680 251 636 199 q 724 396 724 304 l 724 1060 l 974 1060 l 974 396 q 865 89 974 201 q 524 -24 757 -24 m 733 1132 l 314 1132 l 314 1240 l 733 1240 l 733 1132 z "},"Ų":{"ha":1047,"x_min":72,"x_max":974,"o":"m 724 1060 l 974 1060 l 974 396 q 895 123 974 231 q 649 -14 817 15 q 571 -69 590 -51 q 551 -110 551 -87 q 599 -147 551 -147 q 671 -128 632 -147 l 671 -271 q 558 -289 617 -289 q 389 -175 389 -289 q 420 -87 389 -119 q 531 -28 451 -54 l 531 -24 l 524 -24 q 181 89 289 -24 q 72 396 72 201 l 72 1060 l 322 1060 l 322 396 q 367 251 322 304 q 524 199 411 199 q 680 251 636 199 q 724 396 724 304 l 724 1060 z "},"Ů":{"ha":1047,"x_min":72,"x_max":974,"o":"m 524 -24 q 181 89 289 -24 q 72 396 72 201 l 72 1060 l 322 1060 l 322 396 q 367 251 322 304 q 524 199 411 199 q 680 251 636 199 q 724 396 724 304 l 724 1060 l 974 1060 l 974 396 q 865 89 974 201 q 524 -24 757 -24 m 524 1060 q 430 1085 472 1060 q 363 1154 388 1111 q 339 1246 339 1197 q 364 1338 339 1296 q 431 1406 389 1381 q 524 1431 474 1431 q 616 1406 574 1431 q 683 1338 658 1381 q 708 1246 708 1296 q 684 1152 708 1194 q 617 1085 660 1110 q 524 1060 575 1060 m 524 1176 q 573 1197 554 1176 q 592 1249 592 1217 q 574 1296 592 1278 q 524 1314 556 1314 q 474 1295 492 1314 q 456 1249 456 1276 q 475 1197 456 1217 q 524 1176 494 1176 z "},"V":{"ha":983,"x_min":-6,"x_max":989,"o":"m 357 0 l -6 1060 l 258 1060 l 454 404 q 481 254 481 315 l 503 254 q 529 404 503 315 l 725 1060 l 989 1060 l 626 0 l 357 0 z "},"W":{"ha":1581,"x_min":15,"x_max":1565,"o":"m 268 0 l 15 1060 l 276 1060 l 436 314 q 445 274 438 307 q 453 189 453 240 l 475 189 q 481 272 475 239 q 489 314 488 306 l 619 1060 l 961 1060 l 1092 314 q 1099 272 1093 306 q 1106 189 1106 239 l 1128 189 q 1135 274 1128 240 q 1144 314 1143 307 l 1304 1060 l 1565 1060 l 1313 0 l 910 0 l 810 672 q 801 789 801 728 l 779 789 q 771 672 779 728 l 671 0 l 268 0 z "},"Ẃ":{"ha":1581,"x_min":15,"x_max":1565,"o":"m 268 0 l 15 1060 l 276 1060 l 436 314 q 445 274 438 307 q 453 189 453 240 l 475 189 q 481 272 475 239 q 489 314 488 306 l 619 1060 l 961 1060 l 1092 314 q 1099 272 1093 306 q 1106 189 1106 239 l 1128 189 q 1135 274 1128 240 q 1144 314 1143 307 l 1304 1060 l 1565 1060 l 1313 0 l 910 0 l 810 672 q 801 789 801 728 l 779 789 q 771 672 779 728 l 671 0 l 268 0 m 863 1131 l 694 1131 l 853 1332 l 1078 1332 l 863 1131 z "},"Ŵ":{"ha":1581,"x_min":15,"x_max":1565,"o":"m 268 0 l 15 1060 l 276 1060 l 436 314 q 445 274 438 307 q 453 189 453 240 l 475 189 q 481 272 475 239 q 489 314 488 306 l 619 1060 l 961 1060 l 1092 314 q 1099 272 1093 306 q 1106 189 1106 239 l 1128 189 q 1135 274 1128 240 q 1144 314 1143 307 l 1304 1060 l 1565 1060 l 1313 0 l 910 0 l 810 672 q 801 789 801 728 l 779 789 q 771 672 779 728 l 671 0 l 268 0 m 546 1131 l 781 1378 l 800 1378 l 1035 1131 l 853 1131 l 832 1160 q 800 1232 800 1203 l 781 1232 q 749 1160 781 1203 l 728 1131 l 546 1131 z "},"Ẅ":{"ha":1581,"x_min":15,"x_max":1565,"o":"m 268 0 l 15 1060 l 276 1060 l 436 314 q 445 274 438 307 q 453 189 453 240 l 475 189 q 481 272 475 239 q 489 314 488 306 l 619 1060 l 961 1060 l 1092 314 q 1099 272 1093 306 q 1106 189 1106 239 l 1128 189 q 1135 274 1128 240 q 1144 314 1143 307 l 1304 1060 l 1565 1060 l 1313 0 l 910 0 l 810 672 q 801 789 801 728 l 779 789 q 771 672 779 728 l 671 0 l 268 0 m 638 1114 q 544 1147 582 1114 q 506 1233 506 1179 q 544 1321 506 1288 q 638 1354 582 1354 q 731 1321 693 1354 q 769 1233 769 1288 q 731 1147 769 1179 q 638 1114 693 1114 m 942 1114 q 848 1147 886 1114 q 810 1233 810 1179 q 848 1321 810 1288 q 942 1354 886 1354 q 1035 1321 997 1354 q 1074 1233 1074 1288 q 1035 1147 1074 1179 q 942 1114 997 1114 z "},"Ẁ":{"ha":1581,"x_min":15,"x_max":1565,"o":"m 268 0 l 15 1060 l 276 1060 l 436 314 q 445 274 438 307 q 453 189 453 240 l 475 189 q 481 272 475 239 q 489 314 488 306 l 619 1060 l 961 1060 l 1092 314 q 1099 272 1093 306 q 1106 189 1106 239 l 1128 189 q 1135 274 1128 240 q 1144 314 1143 307 l 1304 1060 l 1565 1060 l 1313 0 l 910 0 l 810 672 q 801 789 801 728 l 779 789 q 771 672 779 728 l 671 0 l 268 0 m 728 1332 l 886 1131 l 718 1131 l 503 1332 l 728 1332 z "},"X":{"ha":1040,"x_min":3,"x_max":1038,"o":"m 6 0 l 349 526 l 3 1060 l 299 1060 l 467 782 q 502 716 493 739 q 511 671 511 693 l 529 671 q 538 716 529 693 q 574 782 547 739 l 742 1060 l 1038 1060 l 692 526 l 1035 0 l 740 0 l 571 263 q 538 325 547 301 q 529 374 529 349 l 511 374 q 502 325 511 349 q 469 263 493 301 l 300 0 l 6 0 z "},"Y":{"ha":997,"x_min":-11,"x_max":1008,"o":"m 368 0 l 368 421 l -11 1060 l 279 1060 l 453 744 q 481 685 475 707 q 488 633 488 664 l 510 633 q 516 685 510 664 q 544 744 522 707 l 718 1060 l 1008 1060 l 629 421 l 629 0 l 368 0 z "},"Ý":{"ha":997,"x_min":-11,"x_max":1008,"o":"m 368 0 l 368 421 l -11 1060 l 279 1060 l 453 744 q 481 685 475 707 q 488 633 488 664 l 510 633 q 516 685 510 664 q 544 744 522 707 l 718 1060 l 1008 1060 l 629 421 l 629 0 l 368 0 m 568 1131 l 400 1131 l 558 1332 l 783 1332 l 568 1131 z "},"Ŷ":{"ha":997,"x_min":-11,"x_max":1008,"o":"m 368 0 l 368 421 l -11 1060 l 279 1060 l 453 744 q 481 685 475 707 q 488 633 488 664 l 510 633 q 516 685 510 664 q 544 744 522 707 l 718 1060 l 1008 1060 l 629 421 l 629 0 l 368 0 m 251 1131 l 486 1378 l 506 1378 l 740 1131 l 558 1131 l 538 1160 q 506 1232 506 1203 l 486 1232 q 454 1160 486 1203 l 433 1131 l 251 1131 z "},"Ÿ":{"ha":997,"x_min":-11,"x_max":1008,"o":"m 368 0 l 368 421 l -11 1060 l 279 1060 l 453 744 q 481 685 475 707 q 488 633 488 664 l 510 633 q 516 685 510 664 q 544 744 522 707 l 718 1060 l 1008 1060 l 629 421 l 629 0 l 368 0 m 343 1114 q 249 1147 288 1114 q 211 1233 211 1179 q 249 1321 211 1288 q 343 1354 288 1354 q 437 1321 399 1354 q 475 1233 475 1288 q 437 1147 475 1179 q 343 1114 399 1114 m 647 1114 q 553 1147 592 1114 q 515 1233 515 1179 q 553 1321 515 1288 q 647 1354 592 1354 q 741 1321 703 1354 q 779 1233 779 1288 q 741 1147 779 1179 q 647 1114 703 1114 z "},"Ỳ":{"ha":997,"x_min":-11,"x_max":1008,"o":"m 368 0 l 368 421 l -11 1060 l 279 1060 l 453 744 q 481 685 475 707 q 488 633 488 664 l 510 633 q 516 685 510 664 q 544 744 522 707 l 718 1060 l 1008 1060 l 629 421 l 629 0 l 368 0 m 433 1332 l 592 1131 l 424 1131 l 208 1332 l 433 1332 z "},"Z":{"ha":867,"x_min":36,"x_max":824,"o":"m 36 0 l 36 168 l 443 747 q 485 802 468 783 q 522 835 501 821 l 514 854 q 469 841 492 844 q 394 838 446 838 l 65 838 l 65 1060 l 821 1060 l 821 883 l 417 306 q 372 247 385 263 q 342 222 358 232 l 354 203 q 392 218 372 214 q 457 222 413 222 l 824 222 l 824 0 l 36 0 z "},"Ź":{"ha":867,"x_min":36,"x_max":824,"o":"m 36 0 l 36 168 l 443 747 q 485 802 468 783 q 522 835 501 821 l 514 854 q 469 841 492 844 q 394 838 446 838 l 65 838 l 65 1060 l 821 1060 l 821 883 l 417 306 q 372 247 385 263 q 342 222 358 232 l 354 203 q 392 218 372 214 q 457 222 413 222 l 824 222 l 824 0 l 36 0 m 508 1131 l 340 1131 l 499 1332 l 724 1332 l 508 1131 z "},"Ž":{"ha":867,"x_min":36,"x_max":824,"o":"m 36 0 l 36 168 l 443 747 q 485 802 468 783 q 522 835 501 821 l 514 854 q 469 841 492 844 q 394 838 446 838 l 65 838 l 65 1060 l 821 1060 l 821 883 l 417 306 q 372 247 385 263 q 342 222 358 232 l 354 203 q 392 218 372 214 q 457 222 413 222 l 824 222 l 824 0 l 36 0 m 426 1086 l 192 1332 l 374 1332 l 394 1303 q 426 1231 426 1260 l 446 1231 q 478 1303 446 1260 l 499 1332 l 681 1332 l 446 1086 l 426 1086 z "},"Ż":{"ha":867,"x_min":36,"x_max":824,"o":"m 36 0 l 36 168 l 443 747 q 485 802 468 783 q 522 835 501 821 l 514 854 q 469 841 492 844 q 394 838 446 838 l 65 838 l 65 1060 l 821 1060 l 821 883 l 417 306 q 372 247 385 263 q 342 222 358 232 l 354 203 q 392 218 372 214 q 457 222 413 222 l 824 222 l 824 0 l 36 0 m 436 1114 q 342 1147 381 1114 q 304 1233 304 1179 q 342 1321 304 1288 q 436 1354 381 1354 q 530 1321 492 1354 q 568 1233 568 1288 q 530 1147 568 1179 q 436 1114 492 1114 z "},"a":{"ha":835,"x_min":46,"x_max":767,"o":"m 304 -17 q 119 45 192 -17 q 46 221 46 107 q 144 411 46 346 q 227 449 182 435 q 331 474 272 463 l 535 510 q 503 601 531 569 q 424 629 476 629 q 349 601 382 629 q 307 525 315 574 l 75 525 q 141 682 89 619 q 267 774 193 744 q 425 804 342 804 q 560 785 497 804 q 669 726 624 765 q 736 635 715 688 q 762 525 757 582 q 767 374 767 468 l 767 0 l 533 0 l 533 13 q 554 83 533 49 l 533 96 q 476 24 517 53 q 304 -17 417 -17 m 372 160 q 457 179 414 160 q 508 218 492 194 q 539 297 526 240 q 547 318 542 311 q 565 326 553 325 l 561 349 l 442 325 l 396 317 q 335 301 357 310 q 300 279 314 293 q 279 229 279 258 q 306 177 279 194 q 372 160 332 160 z "},"á":{"ha":835,"x_min":46,"x_max":767,"o":"m 304 -17 q 119 45 192 -17 q 46 221 46 107 q 144 411 46 346 q 227 449 182 435 q 331 474 272 463 l 535 510 q 503 601 531 569 q 424 629 476 629 q 349 601 382 629 q 307 525 315 574 l 75 525 q 141 682 89 619 q 267 774 193 744 q 425 804 342 804 q 560 785 497 804 q 669 726 624 765 q 736 635 715 688 q 762 525 757 582 q 767 374 767 468 l 767 0 l 533 0 l 533 13 q 554 83 533 49 l 533 96 q 476 24 517 53 q 304 -17 417 -17 m 372 160 q 457 179 414 160 q 508 218 492 194 q 539 297 526 240 q 547 318 542 311 q 565 326 553 325 l 561 349 l 442 325 l 396 317 q 335 301 357 310 q 300 279 314 293 q 279 229 279 258 q 306 177 279 194 q 372 160 332 160 m 499 858 l 331 858 l 489 1060 l 714 1060 l 499 858 z "},"ă":{"ha":835,"x_min":46,"x_max":767,"o":"m 304 -17 q 119 45 192 -17 q 46 221 46 107 q 144 411 46 346 q 227 449 182 435 q 331 474 272 463 l 535 510 q 503 601 531 569 q 424 629 476 629 q 349 601 382 629 q 307 525 315 574 l 75 525 q 141 682 89 619 q 267 774 193 744 q 425 804 342 804 q 560 785 497 804 q 669 726 624 765 q 736 635 715 688 q 762 525 757 582 q 767 374 767 468 l 767 0 l 533 0 l 533 13 q 554 83 533 49 l 533 96 q 476 24 517 53 q 304 -17 417 -17 m 372 160 q 457 179 414 160 q 508 218 492 194 q 539 297 526 240 q 547 318 542 311 q 565 326 553 325 l 561 349 l 442 325 l 396 317 q 335 301 357 310 q 300 279 314 293 q 279 229 279 258 q 306 177 279 194 q 372 160 332 160 m 426 842 q 253 899 313 842 q 189 1060 194 957 l 315 1060 q 353 989 322 1013 q 426 965 383 965 q 500 990 471 965 q 536 1060 529 1014 l 664 1060 q 598 900 658 958 q 426 842 538 842 z "},"â":{"ha":835,"x_min":46,"x_max":767,"o":"m 304 -17 q 119 45 192 -17 q 46 221 46 107 q 144 411 46 346 q 227 449 182 435 q 331 474 272 463 l 535 510 q 503 601 531 569 q 424 629 476 629 q 349 601 382 629 q 307 525 315 574 l 75 525 q 141 682 89 619 q 267 774 193 744 q 425 804 342 804 q 560 785 497 804 q 669 726 624 765 q 736 635 715 688 q 762 525 757 582 q 767 374 767 468 l 767 0 l 533 0 l 533 13 q 554 83 533 49 l 533 96 q 476 24 517 53 q 304 -17 417 -17 m 372 160 q 457 179 414 160 q 508 218 492 194 q 539 297 526 240 q 547 318 542 311 q 565 326 553 325 l 561 349 l 442 325 l 396 317 q 335 301 357 310 q 300 279 314 293 q 279 229 279 258 q 306 177 279 194 q 372 160 332 160 m 182 858 l 417 1106 l 436 1106 l 671 858 l 489 858 l 468 888 q 436 960 436 931 l 417 960 q 385 888 417 931 l 364 858 l 182 858 z "},"ä":{"ha":835,"x_min":46,"x_max":767,"o":"m 304 -17 q 119 45 192 -17 q 46 221 46 107 q 144 411 46 346 q 227 449 182 435 q 331 474 272 463 l 535 510 q 503 601 531 569 q 424 629 476 629 q 349 601 382 629 q 307 525 315 574 l 75 525 q 141 682 89 619 q 267 774 193 744 q 425 804 342 804 q 560 785 497 804 q 669 726 624 765 q 736 635 715 688 q 762 525 757 582 q 767 374 767 468 l 767 0 l 533 0 l 533 13 q 554 83 533 49 l 533 96 q 476 24 517 53 q 304 -17 417 -17 m 372 160 q 457 179 414 160 q 508 218 492 194 q 539 297 526 240 q 547 318 542 311 q 565 326 553 325 l 561 349 l 442 325 l 396 317 q 335 301 357 310 q 300 279 314 293 q 279 229 279 258 q 306 177 279 194 q 372 160 332 160 m 274 842 q 180 874 218 842 q 142 961 142 907 q 180 1049 142 1015 q 274 1082 218 1082 q 367 1049 329 1082 q 406 961 406 1015 q 367 874 406 907 q 274 842 329 842 m 578 842 q 484 874 522 842 q 446 961 446 907 q 484 1049 446 1015 q 578 1082 522 1082 q 672 1049 633 1082 q 710 961 710 1015 q 672 874 710 907 q 578 842 633 842 z "},"à":{"ha":835,"x_min":46,"x_max":767,"o":"m 304 -17 q 119 45 192 -17 q 46 221 46 107 q 144 411 46 346 q 227 449 182 435 q 331 474 272 463 l 535 510 q 503 601 531 569 q 424 629 476 629 q 349 601 382 629 q 307 525 315 574 l 75 525 q 141 682 89 619 q 267 774 193 744 q 425 804 342 804 q 560 785 497 804 q 669 726 624 765 q 736 635 715 688 q 762 525 757 582 q 767 374 767 468 l 767 0 l 533 0 l 533 13 q 554 83 533 49 l 533 96 q 476 24 517 53 q 304 -17 417 -17 m 372 160 q 457 179 414 160 q 508 218 492 194 q 539 297 526 240 q 547 318 542 311 q 565 326 553 325 l 561 349 l 442 325 l 396 317 q 335 301 357 310 q 300 279 314 293 q 279 229 279 258 q 306 177 279 194 q 372 160 332 160 m 364 1060 l 522 858 l 354 858 l 139 1060 l 364 1060 z "},"ā":{"ha":835,"x_min":46,"x_max":767,"o":"m 304 -17 q 119 45 192 -17 q 46 221 46 107 q 144 411 46 346 q 227 449 182 435 q 331 474 272 463 l 535 510 q 503 601 531 569 q 424 629 476 629 q 349 601 382 629 q 307 525 315 574 l 75 525 q 141 682 89 619 q 267 774 193 744 q 425 804 342 804 q 560 785 497 804 q 669 726 624 765 q 736 635 715 688 q 762 525 757 582 q 767 374 767 468 l 767 0 l 533 0 l 533 13 q 554 83 533 49 l 533 96 q 476 24 517 53 q 304 -17 417 -17 m 372 160 q 457 179 414 160 q 508 218 492 194 q 539 297 526 240 q 547 318 542 311 q 565 326 553 325 l 561 349 l 442 325 l 396 317 q 335 301 357 310 q 300 279 314 293 q 279 229 279 258 q 306 177 279 194 q 372 160 332 160 m 636 860 l 217 860 l 217 968 l 636 968 l 636 860 z "},"ą":{"ha":835,"x_min":46,"x_max":767,"o":"m 767 0 q 669 -66 692 -46 q 647 -110 647 -86 q 694 -147 647 -147 q 767 -128 728 -147 l 767 -271 q 654 -289 713 -289 q 485 -175 485 -289 q 516 -87 485 -119 q 626 -28 547 -54 l 626 0 l 533 0 l 533 13 q 554 83 533 49 l 533 96 q 476 24 517 53 q 304 -17 417 -17 q 119 45 192 -17 q 46 221 46 107 q 144 411 46 346 q 227 449 182 435 q 331 474 272 463 l 535 510 q 503 601 531 569 q 424 629 476 629 q 349 601 382 629 q 307 525 315 574 l 75 525 q 141 682 89 619 q 267 774 193 744 q 425 804 342 804 q 560 785 497 804 q 669 726 624 765 q 736 635 715 688 q 762 525 757 582 q 767 374 767 468 l 767 0 m 539 297 q 547 318 542 311 q 565 326 553 325 l 561 349 l 442 325 l 396 317 q 335 301 357 310 q 300 279 314 293 q 279 229 279 258 q 306 177 279 194 q 372 160 332 160 q 457 179 414 160 q 508 218 492 194 q 539 297 526 240 z "},"å":{"ha":835,"x_min":46,"x_max":767,"o":"m 669 726 q 736 635 715 688 q 762 525 757 582 q 767 374 767 468 l 767 0 l 533 0 l 533 13 q 554 83 533 49 l 533 96 q 476 24 517 53 q 304 -17 417 -17 q 119 45 192 -17 q 46 221 46 107 q 144 411 46 346 q 227 449 182 435 q 331 474 272 463 l 535 510 q 503 601 531 569 q 424 629 476 629 q 349 601 382 629 q 307 525 315 574 l 75 525 q 172 715 93 646 q 361 800 250 783 q 275 868 308 819 q 242 974 242 917 q 267 1066 242 1024 q 334 1133 292 1108 q 426 1158 376 1158 q 519 1133 476 1158 q 586 1066 561 1108 q 611 974 611 1024 q 578 867 611 915 q 493 800 546 819 q 669 726 601 785 m 426 1042 q 376 1023 394 1042 q 358 976 358 1004 q 378 924 358 944 q 426 904 397 904 q 476 924 457 904 q 494 976 494 944 q 476 1024 494 1006 q 426 1042 458 1042 m 539 297 q 547 318 542 311 q 565 326 553 325 l 561 349 l 442 325 l 396 317 q 335 301 357 310 q 300 279 314 293 q 279 229 279 258 q 306 177 279 194 q 372 160 332 160 q 457 179 414 160 q 508 218 492 194 q 539 297 526 240 z "},"ã":{"ha":835,"x_min":46,"x_max":767,"o":"m 304 -17 q 119 45 192 -17 q 46 221 46 107 q 144 411 46 346 q 227 449 182 435 q 331 474 272 463 l 535 510 q 503 601 531 569 q 424 629 476 629 q 349 601 382 629 q 307 525 315 574 l 75 525 q 141 682 89 619 q 267 774 193 744 q 425 804 342 804 q 560 785 497 804 q 669 726 624 765 q 736 635 715 688 q 762 525 757 582 q 767 374 767 468 l 767 0 l 533 0 l 533 13 q 554 83 533 49 l 533 96 q 476 24 517 53 q 304 -17 417 -17 m 372 160 q 457 179 414 160 q 508 218 492 194 q 539 297 526 240 q 547 318 542 311 q 565 326 553 325 l 561 349 l 442 325 l 396 317 q 335 301 357 310 q 300 279 314 293 q 279 229 279 258 q 306 177 279 194 q 372 160 332 160 m 518 835 q 440 852 471 835 q 378 900 410 869 q 350 924 360 917 q 329 931 340 931 q 290 836 294 931 l 167 836 q 217 1003 171 942 q 338 1065 263 1065 q 409 1048 379 1065 q 472 1000 439 1031 q 499 977 489 985 q 519 969 510 969 q 544 992 535 969 q 556 1060 554 1015 l 683 1060 q 638 890 676 944 q 518 835 599 835 z "},"æ":{"ha":1390,"x_min":46,"x_max":1346,"o":"m 332 -17 q 124 44 201 -17 q 46 221 46 106 q 144 411 46 346 q 227 449 182 435 q 331 474 272 463 l 535 510 q 503 601 531 569 q 424 629 476 629 q 349 601 382 629 q 307 525 315 574 l 75 525 q 141 682 89 619 q 267 774 193 744 q 425 804 342 804 q 611 753 544 804 q 654 708 639 729 l 685 708 q 799 781 738 758 q 939 804 861 804 q 1141 761 1049 804 q 1290 624 1233 718 q 1346 385 1346 529 l 1346 344 l 886 344 q 771 350 794 344 l 764 329 q 781 318 775 326 q 793 292 786 310 q 819 243 806 260 q 958 183 867 183 q 1047 208 1010 183 q 1099 272 1083 233 l 1333 272 q 1200 64 1297 144 q 946 -17 1103 -17 q 751 28 832 -17 q 628 156 671 74 l 596 156 q 493 26 565 72 q 332 -17 425 -17 m 782 493 q 824 507 807 504 q 861 510 840 510 l 1033 510 q 1071 507 1054 510 q 1113 493 1088 504 l 1122 514 q 1109 522 1113 517 q 1101 536 1106 526 q 1072 581 1092 561 q 947 626 1026 626 q 822 581 868 626 q 793 536 803 561 q 785 522 789 526 q 772 514 782 517 l 782 493 m 372 160 q 457 179 414 160 q 511 223 496 197 q 539 297 526 249 q 547 318 542 311 q 565 326 553 325 l 561 349 l 396 317 q 335 301 357 310 q 300 279 314 293 q 279 229 279 258 q 306 177 279 194 q 372 160 332 160 z "},"ǽ":{"ha":1390,"x_min":46,"x_max":1346,"o":"m 332 -17 q 124 44 201 -17 q 46 221 46 106 q 144 411 46 346 q 227 449 182 435 q 331 474 272 463 l 535 510 q 503 601 531 569 q 424 629 476 629 q 349 601 382 629 q 307 525 315 574 l 75 525 q 141 682 89 619 q 267 774 193 744 q 425 804 342 804 q 611 753 544 804 q 654 708 639 729 l 685 708 q 799 781 738 758 q 939 804 861 804 q 1141 761 1049 804 q 1290 624 1233 718 q 1346 385 1346 529 l 1346 344 l 886 344 q 771 350 794 344 l 764 329 q 781 318 775 326 q 793 292 786 310 q 819 243 806 260 q 958 183 867 183 q 1047 208 1010 183 q 1099 272 1083 233 l 1333 272 q 1200 64 1297 144 q 946 -17 1103 -17 q 751 28 832 -17 q 628 156 671 74 l 596 156 q 493 26 565 72 q 332 -17 425 -17 m 782 493 q 824 507 807 504 q 861 510 840 510 l 1033 510 q 1071 507 1054 510 q 1113 493 1088 504 l 1122 514 q 1109 522 1113 517 q 1101 536 1106 526 q 1072 581 1092 561 q 947 626 1026 626 q 822 581 868 626 q 793 536 803 561 q 785 522 789 526 q 772 514 782 517 l 782 493 m 372 160 q 457 179 414 160 q 511 223 496 197 q 539 297 526 249 q 547 318 542 311 q 565 326 553 325 l 561 349 l 396 317 q 335 301 357 310 q 300 279 314 293 q 279 229 279 258 q 306 177 279 194 q 372 160 332 160 m 768 858 l 600 858 l 758 1060 l 983 1060 l 768 858 z "},"b":{"ha":901,"x_min":76,"x_max":854,"o":"m 511 -17 q 393 7 442 -17 q 306 92 344 31 l 286 78 q 305 46 300 61 q 310 8 310 31 l 310 0 l 76 0 l 76 1060 l 310 1060 l 310 779 q 305 742 310 757 q 286 710 300 726 l 306 696 q 393 781 344 757 q 511 804 442 804 q 689 752 611 804 q 810 606 767 700 q 854 394 854 513 q 810 181 854 275 q 689 35 767 88 q 511 -17 611 -17 m 446 182 q 571 241 524 182 q 618 394 618 300 q 571 547 618 488 q 446 606 524 606 q 321 547 368 606 q 274 394 274 489 q 321 240 274 299 q 446 182 368 182 z "},"c":{"ha":879,"x_min":44,"x_max":842,"o":"m 454 -17 q 240 35 332 -17 q 96 180 147 86 q 44 399 44 274 q 95 610 44 518 q 239 753 146 703 q 454 804 332 804 q 706 729 603 804 q 840 525 810 654 l 585 525 q 538 597 569 574 q 454 619 506 619 q 331 560 376 619 q 285 399 285 501 q 331 231 285 292 q 454 169 376 169 q 543 195 511 169 q 588 272 575 221 l 842 272 q 708 60 813 138 q 454 -17 604 -17 z "},"ć":{"ha":879,"x_min":44,"x_max":842,"o":"m 454 -17 q 240 35 332 -17 q 96 180 147 86 q 44 399 44 274 q 95 610 44 518 q 239 753 146 703 q 454 804 332 804 q 706 729 603 804 q 840 525 810 654 l 585 525 q 538 597 569 574 q 454 619 506 619 q 331 560 376 619 q 285 399 285 501 q 331 231 285 292 q 454 169 376 169 q 543 195 511 169 q 588 272 575 221 l 842 272 q 708 60 813 138 q 454 -17 604 -17 m 513 858 l 344 858 l 503 1060 l 728 1060 l 513 858 z "},"č":{"ha":879,"x_min":44,"x_max":842,"o":"m 454 -17 q 240 35 332 -17 q 96 180 147 86 q 44 399 44 274 q 95 610 44 518 q 239 753 146 703 q 454 804 332 804 q 706 729 603 804 q 840 525 810 654 l 585 525 q 538 597 569 574 q 454 619 506 619 q 331 560 376 619 q 285 399 285 501 q 331 231 285 292 q 454 169 376 169 q 543 195 511 169 q 588 272 575 221 l 842 272 q 708 60 813 138 q 454 -17 604 -17 m 431 814 l 196 1060 l 378 1060 l 399 1031 q 431 958 431 988 l 450 958 q 482 1031 450 988 l 503 1060 l 685 1060 l 450 814 l 431 814 z "},"ç":{"ha":879,"x_min":44,"x_max":842,"o":"m 842 272 q 720 69 815 144 q 488 -15 625 -7 q 446 -44 481 -21 l 453 -57 q 481 -56 463 -56 q 557 -72 529 -56 q 591 -107 581 -86 q 601 -158 601 -128 q 549 -256 601 -222 q 413 -289 496 -289 q 279 -268 346 -289 l 279 -183 q 400 -211 354 -211 q 447 -199 431 -211 q 463 -164 463 -186 q 416 -108 463 -122 q 289 -93 369 -93 l 365 -8 q 131 126 218 18 q 44 399 44 235 q 95 610 44 518 q 239 753 146 703 q 454 804 332 804 q 706 729 603 804 q 840 525 810 654 l 585 525 q 538 597 569 574 q 454 619 506 619 q 331 560 376 619 q 285 399 285 501 q 331 231 285 292 q 454 169 376 169 q 543 195 511 169 q 588 272 575 221 l 842 272 z "},"ċ":{"ha":879,"x_min":44,"x_max":842,"o":"m 454 -17 q 240 35 332 -17 q 96 180 147 86 q 44 399 44 274 q 95 610 44 518 q 239 753 146 703 q 454 804 332 804 q 706 729 603 804 q 840 525 810 654 l 585 525 q 538 597 569 574 q 454 619 506 619 q 331 560 376 619 q 285 399 285 501 q 331 231 285 292 q 454 169 376 169 q 543 195 511 169 q 588 272 575 221 l 842 272 q 708 60 813 138 q 454 -17 604 -17 m 440 842 q 347 874 385 842 q 308 961 308 907 q 347 1049 308 1015 q 440 1082 385 1082 q 534 1049 496 1082 q 572 961 572 1015 q 534 874 572 907 q 440 842 496 842 z "},"d":{"ha":901,"x_min":47,"x_max":825,"o":"m 390 -17 q 213 35 290 -17 q 91 181 135 88 q 47 394 47 275 q 91 606 47 513 q 213 752 135 700 q 390 804 290 804 q 508 781 460 804 q 596 696 557 757 l 615 710 q 597 742 601 726 q 592 779 592 757 l 592 1060 l 825 1060 l 825 0 l 592 0 l 592 8 q 597 46 592 31 q 615 78 601 61 l 596 92 q 508 7 557 31 q 390 -17 460 -17 m 456 182 q 581 240 533 182 q 628 394 628 299 q 581 547 628 489 q 456 606 533 606 q 331 547 378 606 q 283 394 283 488 q 331 241 283 300 q 456 182 378 182 z "},"ð":{"ha":861,"x_min":19,"x_max":811,"o":"m 401 -24 q 203 24 290 -24 q 68 160 117 72 q 19 361 19 247 q 63 549 19 471 q 185 669 107 628 q 363 710 263 710 q 482 689 424 710 q 586 619 540 668 q 563 741 589 686 q 490 833 538 796 l 360 757 l 315 833 l 390 875 q 325 881 367 881 q 214 864 265 881 l 119 1049 q 339 1082 219 1082 q 608 1003 499 1082 l 708 1060 l 753 983 l 679 940 q 811 507 811 789 q 702 110 811 244 q 401 -24 593 -24 m 406 192 q 523 240 475 192 q 571 361 571 289 q 523 476 571 429 q 406 524 475 524 q 290 476 338 524 q 242 361 242 429 q 289 240 242 289 q 406 192 336 192 z "},"ď":{"ha":1307,"x_min":47,"x_max":1242,"o":"m 390 -17 q 213 35 290 -17 q 91 181 135 88 q 47 394 47 275 q 91 606 47 513 q 213 752 135 700 q 390 804 290 804 q 508 781 460 804 q 596 696 557 757 l 615 710 q 597 742 601 726 q 592 779 592 757 l 592 1060 l 825 1060 l 825 0 l 592 0 l 592 8 q 597 46 592 31 q 615 78 601 61 l 596 92 q 508 7 557 31 q 390 -17 460 -17 m 456 182 q 581 240 533 182 q 628 394 628 299 q 581 547 628 489 q 456 606 533 606 q 331 547 378 606 q 283 394 283 488 q 331 241 283 300 q 456 182 378 182 z "},"e":{"ha":900,"x_min":44,"x_max":856,"o":"m 456 -17 q 240 35 333 -17 q 95 179 146 88 q 44 388 44 271 q 88 588 44 493 q 223 744 132 683 q 449 804 314 804 q 651 761 558 804 q 799 624 743 718 q 856 385 856 529 l 856 344 l 396 344 q 281 350 304 344 l 274 329 q 290 318 285 326 q 303 292 296 310 q 329 243 315 260 q 468 183 376 183 q 556 208 519 183 q 608 272 593 233 l 843 272 q 710 64 807 144 q 456 -17 613 -17 m 292 493 q 333 507 317 504 q 371 510 350 510 l 543 510 q 581 507 564 510 q 622 493 597 504 l 632 514 q 619 522 622 517 q 611 536 615 526 q 582 581 601 561 q 457 626 536 626 q 332 581 378 626 q 303 536 313 561 q 295 522 299 526 q 282 514 292 517 l 292 493 z "},"é":{"ha":900,"x_min":44,"x_max":856,"o":"m 456 -17 q 240 35 333 -17 q 95 179 146 88 q 44 388 44 271 q 88 588 44 493 q 223 744 132 683 q 449 804 314 804 q 651 761 558 804 q 799 624 743 718 q 856 385 856 529 l 856 344 l 396 344 q 281 350 304 344 l 274 329 q 290 318 285 326 q 303 292 296 310 q 329 243 315 260 q 468 183 376 183 q 556 208 519 183 q 608 272 593 233 l 843 272 q 710 64 807 144 q 456 -17 613 -17 m 292 493 q 333 507 317 504 q 371 510 350 510 l 543 510 q 581 507 564 510 q 622 493 597 504 l 632 514 q 619 522 622 517 q 611 536 615 526 q 582 581 601 561 q 457 626 536 626 q 332 581 378 626 q 303 536 313 561 q 295 522 299 526 q 282 514 292 517 l 292 493 m 524 858 l 356 858 l 514 1060 l 739 1060 l 524 858 z "},"ě":{"ha":900,"x_min":44,"x_max":856,"o":"m 456 -17 q 240 35 333 -17 q 95 179 146 88 q 44 388 44 271 q 88 588 44 493 q 223 744 132 683 q 449 804 314 804 q 651 761 558 804 q 799 624 743 718 q 856 385 856 529 l 856 344 l 396 344 q 281 350 304 344 l 274 329 q 290 318 285 326 q 303 292 296 310 q 329 243 315 260 q 468 183 376 183 q 556 208 519 183 q 608 272 593 233 l 843 272 q 710 64 807 144 q 456 -17 613 -17 m 292 493 q 333 507 317 504 q 371 510 350 510 l 543 510 q 581 507 564 510 q 622 493 597 504 l 632 514 q 619 522 622 517 q 611 536 615 526 q 582 581 601 561 q 457 626 536 626 q 332 581 378 626 q 303 536 313 561 q 295 522 299 526 q 282 514 292 517 l 292 493 m 442 814 l 207 1060 l 389 1060 l 410 1031 q 442 958 442 988 l 461 958 q 493 1031 461 988 l 514 1060 l 696 1060 l 461 814 l 442 814 z "},"ê":{"ha":900,"x_min":44,"x_max":856,"o":"m 456 -17 q 240 35 333 -17 q 95 179 146 88 q 44 388 44 271 q 88 588 44 493 q 223 744 132 683 q 449 804 314 804 q 651 761 558 804 q 799 624 743 718 q 856 385 856 529 l 856 344 l 396 344 q 281 350 304 344 l 274 329 q 290 318 285 326 q 303 292 296 310 q 329 243 315 260 q 468 183 376 183 q 556 208 519 183 q 608 272 593 233 l 843 272 q 710 64 807 144 q 456 -17 613 -17 m 292 493 q 333 507 317 504 q 371 510 350 510 l 543 510 q 581 507 564 510 q 622 493 597 504 l 632 514 q 619 522 622 517 q 611 536 615 526 q 582 581 601 561 q 457 626 536 626 q 332 581 378 626 q 303 536 313 561 q 295 522 299 526 q 282 514 292 517 l 292 493 m 207 858 l 442 1106 l 461 1106 l 696 858 l 514 858 l 493 888 q 461 960 461 931 l 442 960 q 410 888 442 931 l 389 858 l 207 858 z "},"ë":{"ha":900,"x_min":44,"x_max":856,"o":"m 456 -17 q 240 35 333 -17 q 95 179 146 88 q 44 388 44 271 q 88 588 44 493 q 223 744 132 683 q 449 804 314 804 q 651 761 558 804 q 799 624 743 718 q 856 385 856 529 l 856 344 l 396 344 q 281 350 304 344 l 274 329 q 290 318 285 326 q 303 292 296 310 q 329 243 315 260 q 468 183 376 183 q 556 208 519 183 q 608 272 593 233 l 843 272 q 710 64 807 144 q 456 -17 613 -17 m 292 493 q 333 507 317 504 q 371 510 350 510 l 543 510 q 581 507 564 510 q 622 493 597 504 l 632 514 q 619 522 622 517 q 611 536 615 526 q 582 581 601 561 q 457 626 536 626 q 332 581 378 626 q 303 536 313 561 q 295 522 299 526 q 282 514 292 517 l 292 493 m 299 842 q 205 874 243 842 q 167 961 167 907 q 205 1049 167 1015 q 299 1082 243 1082 q 392 1049 354 1082 q 431 961 431 1015 q 392 874 431 907 q 299 842 354 842 m 603 842 q 509 874 547 842 q 471 961 471 907 q 509 1049 471 1015 q 603 1082 547 1082 q 697 1049 658 1082 q 735 961 735 1015 q 697 874 735 907 q 603 842 658 842 z "},"ė":{"ha":900,"x_min":44,"x_max":856,"o":"m 456 -17 q 240 35 333 -17 q 95 179 146 88 q 44 388 44 271 q 88 588 44 493 q 223 744 132 683 q 449 804 314 804 q 651 761 558 804 q 799 624 743 718 q 856 385 856 529 l 856 344 l 396 344 q 281 350 304 344 l 274 329 q 290 318 285 326 q 303 292 296 310 q 329 243 315 260 q 468 183 376 183 q 556 208 519 183 q 608 272 593 233 l 843 272 q 710 64 807 144 q 456 -17 613 -17 m 292 493 q 333 507 317 504 q 371 510 350 510 l 543 510 q 581 507 564 510 q 622 493 597 504 l 632 514 q 619 522 622 517 q 611 536 615 526 q 582 581 601 561 q 457 626 536 626 q 332 581 378 626 q 303 536 313 561 q 295 522 299 526 q 282 514 292 517 l 292 493 m 451 842 q 358 874 396 842 q 319 961 319 907 q 358 1049 319 1015 q 451 1082 396 1082 q 545 1049 507 1082 q 583 961 583 1015 q 545 874 583 907 q 451 842 507 842 z "},"è":{"ha":900,"x_min":44,"x_max":856,"o":"m 456 -17 q 240 35 333 -17 q 95 179 146 88 q 44 388 44 271 q 88 588 44 493 q 223 744 132 683 q 449 804 314 804 q 651 761 558 804 q 799 624 743 718 q 856 385 856 529 l 856 344 l 396 344 q 281 350 304 344 l 274 329 q 290 318 285 326 q 303 292 296 310 q 329 243 315 260 q 468 183 376 183 q 556 208 519 183 q 608 272 593 233 l 843 272 q 710 64 807 144 q 456 -17 613 -17 m 292 493 q 333 507 317 504 q 371 510 350 510 l 543 510 q 581 507 564 510 q 622 493 597 504 l 632 514 q 619 522 622 517 q 611 536 615 526 q 582 581 601 561 q 457 626 536 626 q 332 581 378 626 q 303 536 313 561 q 295 522 299 526 q 282 514 292 517 l 292 493 m 389 1060 l 547 858 l 379 858 l 164 1060 l 389 1060 z "},"ē":{"ha":900,"x_min":44,"x_max":856,"o":"m 456 -17 q 240 35 333 -17 q 95 179 146 88 q 44 388 44 271 q 88 588 44 493 q 223 744 132 683 q 449 804 314 804 q 651 761 558 804 q 799 624 743 718 q 856 385 856 529 l 856 344 l 396 344 q 281 350 304 344 l 274 329 q 290 318 285 326 q 303 292 296 310 q 329 243 315 260 q 468 183 376 183 q 556 208 519 183 q 608 272 593 233 l 843 272 q 710 64 807 144 q 456 -17 613 -17 m 292 493 q 333 507 317 504 q 371 510 350 510 l 543 510 q 581 507 564 510 q 622 493 597 504 l 632 514 q 619 522 622 517 q 611 536 615 526 q 582 581 601 561 q 457 626 536 626 q 332 581 378 626 q 303 536 313 561 q 295 522 299 526 q 282 514 292 517 l 292 493 m 661 860 l 242 860 l 242 968 l 661 968 l 661 860 z "},"ę":{"ha":900,"x_min":44,"x_max":856,"o":"m 396 344 q 281 350 304 344 l 274 329 q 290 318 285 326 q 303 292 296 310 q 329 243 315 260 q 468 183 376 183 q 556 208 519 183 q 608 272 593 233 l 843 272 q 747 99 814 172 q 574 -3 679 25 q 480 -67 501 -47 q 458 -110 458 -86 q 506 -147 458 -147 q 578 -128 539 -147 l 578 -271 q 465 -289 524 -289 q 296 -175 296 -289 q 327 -87 296 -119 q 438 -28 358 -54 l 438 -17 q 231 40 319 -12 q 93 183 142 93 q 44 388 44 274 q 88 588 44 493 q 223 744 132 683 q 449 804 314 804 q 651 761 558 804 q 799 624 743 718 q 856 385 856 529 l 856 344 l 396 344 m 332 581 q 303 536 313 561 q 295 522 299 526 q 282 514 292 517 l 292 493 q 333 507 317 504 q 371 510 350 510 l 543 510 q 581 507 564 510 q 622 493 597 504 l 632 514 q 619 522 622 517 q 611 536 615 526 q 582 581 601 561 q 457 626 536 626 q 332 581 378 626 z "},"f":{"ha":525,"x_min":29,"x_max":496,"o":"m 142 0 l 142 607 l 29 607 l 29 788 l 142 788 l 142 864 q 200 1008 142 957 q 367 1060 258 1060 l 496 1060 l 496 881 l 424 881 q 392 869 406 881 q 378 829 378 858 l 378 824 q 364 788 378 800 l 378 774 q 435 788 392 788 l 496 788 l 496 607 l 378 607 l 378 0 l 142 0 z "},"g":{"ha":903,"x_min":49,"x_max":826,"o":"m 447 -289 q 200 -231 303 -289 q 74 -28 97 -174 l 307 -28 q 358 -96 325 -76 q 446 -115 392 -115 q 557 -81 521 -115 q 593 7 593 -46 l 593 36 q 598 74 593 58 q 617 106 603 89 l 597 119 q 510 35 558 58 q 392 11 461 11 q 215 63 293 11 q 92 204 136 114 q 49 407 49 294 q 92 610 49 519 q 215 753 136 701 q 392 804 293 804 q 510 781 461 804 q 597 696 558 757 l 617 710 q 598 742 603 726 q 593 779 593 757 l 593 788 l 826 788 l 826 67 q 724 -210 826 -131 q 447 -289 622 -289 m 457 210 q 581 266 533 210 q 629 407 629 322 q 581 549 629 493 q 457 606 533 606 q 333 549 381 606 q 285 407 285 492 q 332 266 285 322 q 457 210 379 210 z "},"ğ":{"ha":903,"x_min":49,"x_max":826,"o":"m 447 -289 q 200 -231 303 -289 q 74 -28 97 -174 l 307 -28 q 358 -96 325 -76 q 446 -115 392 -115 q 557 -81 521 -115 q 593 7 593 -46 l 593 36 q 598 74 593 58 q 617 106 603 89 l 597 119 q 510 35 558 58 q 392 11 461 11 q 215 63 293 11 q 92 204 136 114 q 49 407 49 294 q 92 610 49 519 q 215 753 136 701 q 392 804 293 804 q 510 781 461 804 q 597 696 558 757 l 617 710 q 598 742 603 726 q 593 779 593 757 l 593 788 l 826 788 l 826 67 q 724 -210 826 -131 q 447 -289 622 -289 m 457 210 q 581 266 533 210 q 629 407 629 322 q 581 549 629 493 q 457 606 533 606 q 333 549 381 606 q 285 407 285 492 q 332 266 285 322 q 457 210 379 210 m 451 842 q 278 899 338 842 q 214 1060 219 957 l 340 1060 q 378 989 347 1013 q 451 965 408 965 q 525 990 496 965 q 561 1060 554 1014 l 689 1060 q 623 900 683 958 q 451 842 563 842 z "},"ģ":{"ha":903,"x_min":49,"x_max":826,"o":"m 447 -289 q 200 -231 303 -289 q 74 -28 97 -174 l 307 -28 q 358 -96 325 -76 q 446 -115 392 -115 q 557 -81 521 -115 q 593 7 593 -46 l 593 36 q 598 74 593 58 q 617 106 603 89 l 597 119 q 510 35 558 58 q 392 11 461 11 q 215 63 293 11 q 92 204 136 114 q 49 407 49 294 q 92 610 49 519 q 215 753 136 701 q 392 804 293 804 q 510 781 461 804 q 597 696 558 757 l 617 710 q 598 742 603 726 q 593 779 593 757 l 593 788 l 826 788 l 826 67 q 724 -210 826 -131 q 447 -289 622 -289 m 457 210 q 581 266 533 210 q 629 407 629 322 q 581 549 629 493 q 457 606 533 606 q 333 549 381 606 q 285 407 285 492 q 332 266 285 322 q 457 210 379 210 m 471 821 q 376 860 408 821 q 344 964 344 900 q 400 1103 344 1044 q 576 1165 456 1161 l 576 1079 q 476 1055 511 1079 q 442 983 440 1031 l 454 983 q 471 1001 461 996 q 499 1007 481 1007 q 559 982 533 1007 q 585 917 585 957 q 553 847 585 874 q 471 821 522 821 z "},"ġ":{"ha":903,"x_min":49,"x_max":826,"o":"m 447 -289 q 200 -231 303 -289 q 74 -28 97 -174 l 307 -28 q 358 -96 325 -76 q 446 -115 392 -115 q 557 -81 521 -115 q 593 7 593 -46 l 593 36 q 598 74 593 58 q 617 106 603 89 l 597 119 q 510 35 558 58 q 392 11 461 11 q 215 63 293 11 q 92 204 136 114 q 49 407 49 294 q 92 610 49 519 q 215 753 136 701 q 392 804 293 804 q 510 781 461 804 q 597 696 558 757 l 617 710 q 598 742 603 726 q 593 779 593 757 l 593 788 l 826 788 l 826 67 q 724 -210 826 -131 q 447 -289 622 -289 m 457 210 q 581 266 533 210 q 629 407 629 322 q 581 549 629 493 q 457 606 533 606 q 333 549 381 606 q 285 407 285 492 q 332 266 285 322 q 457 210 379 210 m 451 842 q 358 874 396 842 q 319 961 319 907 q 358 1049 319 1015 q 451 1082 396 1082 q 545 1049 507 1082 q 583 961 583 1015 q 545 874 583 907 q 451 842 507 842 z "},"h":{"ha":867,"x_min":76,"x_max":796,"o":"m 76 0 l 76 1060 l 310 1060 l 310 779 q 305 742 310 757 q 286 710 300 726 l 306 696 q 393 781 344 757 q 511 804 442 804 q 765 668 706 804 q 791 576 786 622 q 796 440 796 529 l 796 0 l 563 0 l 563 443 q 555 535 563 501 q 529 588 547 568 q 443 617 501 617 q 339 576 371 617 q 310 443 310 538 l 310 0 l 76 0 z "},"i":{"ha":386,"x_min":61,"x_max":325,"o":"m 310 0 l 76 0 l 76 788 l 310 788 l 310 0 m 193 842 q 99 874 138 842 q 61 961 61 907 q 99 1049 61 1015 q 193 1082 138 1082 q 287 1049 249 1082 q 325 961 325 1015 q 287 874 325 907 q 193 842 249 842 z "},"ı":{"ha":386,"x_min":76,"x_max":310,"o":"m 310 0 l 76 0 l 76 788 l 310 788 l 310 0 z "},"í":{"ha":386,"x_min":76,"x_max":481,"o":"m 310 0 l 76 0 l 76 788 l 310 788 l 310 0 m 265 858 l 97 858 l 256 1060 l 481 1060 l 265 858 z "},"î":{"ha":386,"x_min":-51,"x_max":438,"o":"m 310 0 l 76 0 l 76 788 l 310 788 l 310 0 m -51 858 l 183 1106 l 203 1106 l 438 858 l 256 858 l 235 888 q 203 960 203 931 l 183 960 q 151 888 183 931 l 131 858 l -51 858 z "},"ï":{"ha":386,"x_min":-92,"x_max":476,"o":"m 310 0 l 76 0 l 76 788 l 310 788 l 310 0 m 40 842 q -53 874 -15 842 q -92 961 -92 907 q -53 1049 -92 1015 q 40 1082 -15 1082 q 134 1049 96 1082 q 172 961 172 1015 q 134 874 172 907 q 40 842 96 842 m 344 842 q 251 874 289 842 q 213 961 213 907 q 251 1049 213 1015 q 344 1082 289 1082 q 438 1049 400 1082 q 476 961 476 1015 q 438 874 476 907 q 344 842 400 842 z "},"ì":{"ha":386,"x_min":-94,"x_max":310,"o":"m 310 0 l 76 0 l 76 788 l 310 788 l 310 0 m 131 1060 l 289 858 l 121 858 l -94 1060 l 131 1060 z "},"ī":{"ha":386,"x_min":-17,"x_max":403,"o":"m 310 0 l 76 0 l 76 788 l 310 788 l 310 0 m 403 860 l -17 860 l -17 968 l 403 968 l 403 860 z "},"į":{"ha":386,"x_min":28,"x_max":325,"o":"m 310 0 l 76 0 l 76 788 l 310 788 l 310 0 m 193 842 q 99 874 138 842 q 61 961 61 907 q 99 1049 61 1015 q 193 1082 138 1082 q 287 1049 249 1082 q 325 961 325 1015 q 287 874 325 907 q 193 842 249 842 m 197 -289 q 28 -175 28 -289 q 59 -87 28 -119 q 169 -28 90 -54 l 169 0 l 310 0 q 213 -66 235 -46 q 190 -110 190 -86 q 238 -147 190 -147 q 310 -128 271 -147 l 310 -271 q 197 -289 256 -289 z "},"j":{"ha":386,"x_min":-46,"x_max":325,"o":"m -46 -272 l -46 -82 l 26 -82 q 76 -33 76 -82 l 76 788 l 310 788 l 310 -114 q 263 -231 310 -189 q 129 -272 215 -272 l -46 -272 m 193 842 q 99 874 138 842 q 61 961 61 907 q 99 1049 61 1015 q 193 1082 138 1082 q 287 1049 249 1082 q 325 961 325 1015 q 287 874 325 907 q 193 842 249 842 z "},"ȷ":{"ha":386,"x_min":-46,"x_max":310,"o":"m -46 -272 l -46 -82 l 26 -82 q 76 -33 76 -82 l 76 788 l 310 788 l 310 -114 q 263 -231 310 -189 q 129 -272 215 -272 l -46 -272 z "},"k":{"ha":867,"x_min":76,"x_max":865,"o":"m 76 0 l 76 1060 l 310 1060 l 310 638 q 308 578 310 604 q 296 511 306 551 l 313 504 q 382 592 344 551 l 560 788 l 847 788 l 581 508 q 542 474 561 488 q 518 458 522 461 l 518 439 q 581 375 554 411 l 865 0 l 588 0 l 382 279 q 313 382 338 342 l 296 376 q 308 310 306 336 q 310 253 310 285 l 310 0 l 76 0 z "},"ķ":{"ha":867,"x_min":76,"x_max":865,"o":"m 76 0 l 76 1060 l 310 1060 l 310 638 q 308 578 310 604 q 296 511 306 551 l 313 504 q 382 592 344 551 l 560 788 l 847 788 l 581 508 q 542 474 561 488 q 518 458 522 461 l 518 439 q 581 375 554 411 l 865 0 l 588 0 l 382 279 q 313 382 338 342 l 296 376 q 308 310 306 336 q 310 253 310 285 l 310 0 l 76 0 m 351 -221 q 443 -182 426 -221 q 447 -161 447 -174 l 436 -161 q 392 -182 424 -182 q 349 -167 365 -182 q 332 -121 332 -151 q 357 -67 332 -87 q 422 -46 382 -46 q 497 -74 471 -46 q 524 -146 524 -103 q 351 -272 524 -272 l 351 -221 z "},"ĸ":{"ha":867,"x_min":76,"x_max":865,"o":"m 76 0 l 76 788 l 310 788 l 310 638 q 308 578 310 604 q 296 511 306 551 l 313 504 q 382 592 344 551 l 560 788 l 847 788 l 524 449 l 865 0 l 588 0 l 382 279 q 313 382 338 342 l 296 376 q 308 310 306 336 q 310 253 310 285 l 310 0 l 76 0 z "},"l":{"ha":442,"x_min":72,"x_max":410,"o":"m 253 0 q 119 41 167 0 q 72 157 72 82 l 72 1060 l 306 1060 l 306 238 q 351 189 306 189 l 410 189 l 410 0 l 253 0 z "},"ĺ":{"ha":442,"x_min":72,"x_max":476,"o":"m 253 0 q 119 41 167 0 q 72 157 72 82 l 72 1060 l 306 1060 l 306 238 q 351 189 306 189 l 410 189 l 410 0 l 253 0 m 261 1131 l 93 1131 l 251 1332 l 476 1332 l 261 1131 z "},"ľ":{"ha":771,"x_min":72,"x_max":706,"o":"m 253 0 q 119 41 167 0 q 72 157 72 82 l 72 1060 l 306 1060 l 306 238 q 351 189 306 189 l 410 189 l 410 0 l 253 0 z "},"ļ":{"ha":442,"x_min":72,"x_max":410,"o":"m 253 0 q 119 41 167 0 q 72 157 72 82 l 72 1060 l 306 1060 l 306 238 q 351 189 306 189 l 410 189 l 410 0 l 253 0 m 136 -221 q 228 -182 211 -221 q 232 -161 232 -174 l 221 -161 q 176 -182 208 -182 q 133 -167 150 -182 q 117 -121 117 -151 q 142 -67 117 -87 q 207 -46 167 -46 q 282 -74 256 -46 q 308 -146 308 -103 q 136 -272 308 -272 l 136 -221 z "},"ł":{"ha":442,"x_min":25,"x_max":410,"o":"m 410 189 l 410 0 l 253 0 q 119 41 167 0 q 72 157 72 82 l 72 501 l 25 476 l 25 632 l 72 657 l 72 1060 l 306 1060 l 306 778 l 371 811 l 371 656 l 306 622 l 306 238 q 351 189 306 189 l 410 189 z "},"m":{"ha":1257,"x_min":76,"x_max":1186,"o":"m 76 0 l 76 788 l 310 788 l 310 779 q 305 742 310 757 q 286 710 300 726 l 306 696 q 393 781 344 757 q 511 804 442 804 q 632 776 575 804 q 706 690 689 749 l 724 690 q 803 780 744 756 q 929 804 861 804 q 1122 728 1058 804 q 1186 519 1186 653 l 1186 0 l 953 0 l 953 499 q 928 590 953 563 q 853 617 904 617 q 779 589 807 617 q 756 538 763 569 q 749 456 749 506 l 749 0 l 515 0 l 515 499 q 490 590 515 563 q 413 617 465 617 q 340 588 367 617 q 317 538 324 568 q 310 456 310 507 l 310 0 l 76 0 z "},"n":{"ha":867,"x_min":76,"x_max":796,"o":"m 76 0 l 76 788 l 310 788 l 310 779 q 305 742 310 757 q 286 710 300 726 l 306 696 q 393 781 344 757 q 511 804 442 804 q 765 668 706 804 q 791 576 786 622 q 796 440 796 529 l 796 0 l 563 0 l 563 443 q 555 535 563 501 q 529 588 547 568 q 443 617 501 617 q 339 576 371 617 q 310 443 310 538 l 310 0 l 76 0 z "},"ń":{"ha":867,"x_min":76,"x_max":796,"o":"m 76 0 l 76 788 l 310 788 l 310 779 q 305 742 310 757 q 286 710 300 726 l 306 696 q 393 781 344 757 q 511 804 442 804 q 765 668 706 804 q 791 576 786 622 q 796 440 796 529 l 796 0 l 563 0 l 563 443 q 555 535 563 501 q 529 588 547 568 q 443 617 501 617 q 339 576 371 617 q 310 443 310 538 l 310 0 l 76 0 m 506 858 l 338 858 l 496 1060 l 721 1060 l 506 858 z "},"ň":{"ha":867,"x_min":76,"x_max":796,"o":"m 76 0 l 76 788 l 310 788 l 310 779 q 305 742 310 757 q 286 710 300 726 l 306 696 q 393 781 344 757 q 511 804 442 804 q 765 668 706 804 q 791 576 786 622 q 796 440 796 529 l 796 0 l 563 0 l 563 443 q 555 535 563 501 q 529 588 547 568 q 443 617 501 617 q 339 576 371 617 q 310 443 310 538 l 310 0 l 76 0 m 424 814 l 189 1060 l 371 1060 l 392 1031 q 424 958 424 988 l 443 958 q 475 1031 443 988 l 496 1060 l 678 1060 l 443 814 l 424 814 z "},"ņ":{"ha":867,"x_min":76,"x_max":796,"o":"m 76 0 l 76 788 l 310 788 l 310 779 q 305 742 310 757 q 286 710 300 726 l 306 696 q 393 781 344 757 q 511 804 442 804 q 765 668 706 804 q 791 576 786 622 q 796 440 796 529 l 796 0 l 563 0 l 563 443 q 555 535 563 501 q 529 588 547 568 q 443 617 501 617 q 339 576 371 617 q 310 443 310 538 l 310 0 l 76 0 m 357 -221 q 449 -182 432 -221 q 453 -161 453 -174 l 442 -161 q 397 -182 429 -182 q 354 -167 371 -182 q 338 -121 338 -151 q 363 -67 338 -87 q 428 -46 388 -46 q 503 -74 476 -46 q 529 -146 529 -103 q 357 -272 529 -272 l 357 -221 z "},"ñ":{"ha":867,"x_min":76,"x_max":796,"o":"m 76 0 l 76 788 l 310 788 l 310 779 q 305 742 310 757 q 286 710 300 726 l 306 696 q 393 781 344 757 q 511 804 442 804 q 765 668 706 804 q 791 576 786 622 q 796 440 796 529 l 796 0 l 563 0 l 563 443 q 555 535 563 501 q 529 588 547 568 q 443 617 501 617 q 339 576 371 617 q 310 443 310 538 l 310 0 l 76 0 m 525 835 q 447 852 478 835 q 385 900 417 869 q 357 924 367 917 q 336 931 347 931 q 297 836 301 931 l 174 836 q 224 1003 178 942 q 344 1065 269 1065 q 416 1048 386 1065 q 479 1000 446 1031 q 506 977 496 985 q 526 969 517 969 q 551 992 542 969 q 563 1060 561 1015 l 690 1060 q 644 890 683 944 q 525 835 606 835 z "},"o":{"ha":917,"x_min":44,"x_max":872,"o":"m 458 -17 q 242 35 336 -17 q 97 181 149 86 q 44 399 44 275 q 97 610 44 518 q 242 753 149 703 q 458 804 336 804 q 674 753 581 804 q 820 610 768 701 q 872 399 872 518 q 821 181 872 275 q 676 35 769 86 q 458 -17 582 -17 m 458 183 q 583 242 538 183 q 629 399 629 301 q 583 549 629 492 q 458 606 536 606 q 333 549 381 606 q 285 399 285 492 q 332 242 285 300 q 458 183 379 183 z "},"ó":{"ha":917,"x_min":44,"x_max":872,"o":"m 458 -17 q 242 35 336 -17 q 97 181 149 86 q 44 399 44 275 q 97 610 44 518 q 242 753 149 703 q 458 804 336 804 q 674 753 581 804 q 820 610 768 701 q 872 399 872 518 q 821 181 872 275 q 676 35 769 86 q 458 -17 582 -17 m 458 183 q 583 242 538 183 q 629 399 629 301 q 583 549 629 492 q 458 606 536 606 q 333 549 381 606 q 285 399 285 492 q 332 242 285 300 q 458 183 379 183 m 531 858 l 363 858 l 521 1060 l 746 1060 l 531 858 z "},"ô":{"ha":917,"x_min":44,"x_max":872,"o":"m 458 -17 q 242 35 336 -17 q 97 181 149 86 q 44 399 44 275 q 97 610 44 518 q 242 753 149 703 q 458 804 336 804 q 674 753 581 804 q 820 610 768 701 q 872 399 872 518 q 821 181 872 275 q 676 35 769 86 q 458 -17 582 -17 m 458 183 q 583 242 538 183 q 629 399 629 301 q 583 549 629 492 q 458 606 536 606 q 333 549 381 606 q 285 399 285 492 q 332 242 285 300 q 458 183 379 183 m 214 858 l 449 1106 l 468 1106 l 703 858 l 521 858 l 500 888 q 468 960 468 931 l 449 960 q 417 888 449 931 l 396 858 l 214 858 z "},"ö":{"ha":917,"x_min":44,"x_max":872,"o":"m 458 -17 q 242 35 336 -17 q 97 181 149 86 q 44 399 44 275 q 97 610 44 518 q 242 753 149 703 q 458 804 336 804 q 674 753 581 804 q 820 610 768 701 q 872 399 872 518 q 821 181 872 275 q 676 35 769 86 q 458 -17 582 -17 m 458 183 q 583 242 538 183 q 629 399 629 301 q 583 549 629 492 q 458 606 536 606 q 333 549 381 606 q 285 399 285 492 q 332 242 285 300 q 458 183 379 183 m 306 842 q 212 874 250 842 q 174 961 174 907 q 212 1049 174 1015 q 306 1082 250 1082 q 399 1049 361 1082 q 438 961 438 1015 q 399 874 438 907 q 306 842 361 842 m 610 842 q 516 874 554 842 q 478 961 478 907 q 516 1049 478 1015 q 610 1082 554 1082 q 703 1049 665 1082 q 742 961 742 1015 q 703 874 742 907 q 610 842 665 842 z "},"ò":{"ha":917,"x_min":44,"x_max":872,"o":"m 458 -17 q 242 35 336 -17 q 97 181 149 86 q 44 399 44 275 q 97 610 44 518 q 242 753 149 703 q 458 804 336 804 q 674 753 581 804 q 820 610 768 701 q 872 399 872 518 q 821 181 872 275 q 676 35 769 86 q 458 -17 582 -17 m 458 183 q 583 242 538 183 q 629 399 629 301 q 583 549 629 492 q 458 606 536 606 q 333 549 381 606 q 285 399 285 492 q 332 242 285 300 q 458 183 379 183 m 396 1060 l 554 858 l 386 858 l 171 1060 l 396 1060 z "},"ő":{"ha":917,"x_min":44,"x_max":894,"o":"m 458 -17 q 242 35 336 -17 q 97 181 149 86 q 44 399 44 275 q 97 610 44 518 q 242 753 149 703 q 458 804 336 804 q 674 753 581 804 q 820 610 768 701 q 872 399 872 518 q 821 181 872 275 q 676 35 769 86 q 458 -17 582 -17 m 458 183 q 583 242 538 183 q 629 399 629 301 q 583 549 629 492 q 458 606 536 606 q 333 549 381 606 q 285 399 285 492 q 332 242 285 300 q 458 183 379 183 m 396 858 l 228 858 l 390 1060 l 586 1060 l 396 858 m 688 858 l 519 858 l 682 1060 l 894 1060 l 688 858 z "},"ō":{"ha":917,"x_min":44,"x_max":872,"o":"m 458 -17 q 242 35 336 -17 q 97 181 149 86 q 44 399 44 275 q 97 610 44 518 q 242 753 149 703 q 458 804 336 804 q 674 753 581 804 q 820 610 768 701 q 872 399 872 518 q 821 181 872 275 q 676 35 769 86 q 458 -17 582 -17 m 458 183 q 583 242 538 183 q 629 399 629 301 q 583 549 629 492 q 458 606 536 606 q 333 549 381 606 q 285 399 285 492 q 332 242 285 300 q 458 183 379 183 m 668 860 l 249 860 l 249 968 l 668 968 l 668 860 z "},"ø":{"ha":917,"x_min":31,"x_max":886,"o":"m 886 726 l 801 642 q 872 399 872 539 q 821 181 872 275 q 676 35 769 86 q 458 -17 582 -17 q 213 53 317 -17 l 128 -32 l 31 61 l 117 147 q 44 399 44 253 q 97 610 44 518 q 242 753 149 703 q 458 804 336 804 q 706 735 601 804 l 790 819 l 886 726 m 285 399 q 293 324 285 357 l 550 579 q 458 606 508 606 q 333 549 381 606 q 285 399 285 492 m 629 399 q 622 463 629 431 l 368 208 q 458 183 408 183 q 583 242 538 183 q 629 399 629 301 z "},"ǿ":{"ha":917,"x_min":31,"x_max":886,"o":"m 886 726 l 801 642 q 872 399 872 539 q 821 181 872 275 q 676 35 769 86 q 458 -17 582 -17 q 213 53 317 -17 l 128 -32 l 31 61 l 117 147 q 44 399 44 253 q 97 610 44 518 q 242 753 149 703 q 458 804 336 804 q 706 735 601 804 l 790 819 l 886 726 m 285 399 q 293 324 285 357 l 550 579 q 458 606 508 606 q 333 549 381 606 q 285 399 285 492 m 629 399 q 622 463 629 431 l 368 208 q 458 183 408 183 q 583 242 538 183 q 629 399 629 301 m 531 858 l 363 858 l 521 1060 l 746 1060 l 531 858 z "},"õ":{"ha":917,"x_min":44,"x_max":872,"o":"m 458 -17 q 242 35 336 -17 q 97 181 149 86 q 44 399 44 275 q 97 610 44 518 q 242 753 149 703 q 458 804 336 804 q 674 753 581 804 q 820 610 768 701 q 872 399 872 518 q 821 181 872 275 q 676 35 769 86 q 458 -17 582 -17 m 458 183 q 583 242 538 183 q 629 399 629 301 q 583 549 629 492 q 458 606 536 606 q 333 549 381 606 q 285 399 285 492 q 332 242 285 300 q 458 183 379 183 m 550 835 q 472 852 503 835 q 410 900 442 869 q 382 924 392 917 q 361 931 372 931 q 322 836 326 931 l 199 836 q 249 1003 203 942 q 369 1065 294 1065 q 441 1048 411 1065 q 504 1000 471 1031 q 531 977 521 985 q 551 969 542 969 q 576 992 567 969 q 588 1060 586 1015 l 715 1060 q 669 890 708 944 q 550 835 631 835 z "},"œ":{"ha":1485,"x_min":44,"x_max":1440,"o":"m 458 -17 q 242 35 336 -17 q 97 181 149 86 q 44 399 44 275 q 97 610 44 518 q 242 753 149 703 q 458 804 336 804 q 740 683 638 804 l 760 683 q 1033 804 853 804 q 1235 761 1143 804 q 1384 624 1328 718 q 1440 385 1440 529 l 1440 344 l 981 344 q 865 350 889 344 l 858 329 q 875 318 869 326 q 888 292 881 310 q 914 243 900 260 q 1053 183 961 183 q 1141 208 1104 183 q 1193 272 1178 233 l 1428 272 q 1294 64 1392 144 q 1040 -17 1197 -17 q 760 104 861 -17 l 740 104 q 458 -17 643 -17 m 876 493 q 918 507 901 504 q 956 510 935 510 l 1128 510 q 1165 507 1149 510 q 1207 493 1182 504 l 1217 514 q 1203 522 1207 517 q 1196 536 1200 526 q 1167 581 1186 561 q 1042 626 1121 626 q 917 581 963 626 q 888 536 897 561 q 880 522 883 526 q 867 514 876 517 l 876 493 m 458 183 q 583 242 538 183 q 629 399 629 301 q 583 549 629 492 q 458 606 536 606 q 333 549 381 606 q 285 399 285 492 q 332 242 285 300 q 458 183 379 183 z "},"p":{"ha":901,"x_min":76,"x_max":854,"o":"m 511 804 q 689 752 611 804 q 810 606 767 700 q 854 393 854 513 q 810 181 854 275 q 689 35 767 88 q 511 -17 611 -17 q 393 7 442 -17 q 306 92 344 31 l 286 78 q 305 46 300 61 q 310 8 310 31 l 310 -272 l 76 -272 l 76 788 l 310 788 l 310 779 q 305 742 310 757 q 286 710 300 726 l 306 696 q 393 781 344 757 q 511 804 442 804 m 446 606 q 321 547 368 606 q 274 393 274 489 q 321 240 274 299 q 446 182 368 182 q 571 241 524 182 q 618 393 618 300 q 571 547 618 488 q 446 606 524 606 z "},"þ":{"ha":901,"x_min":76,"x_max":854,"o":"m 76 -272 l 76 1060 l 310 1060 l 310 779 q 305 742 310 757 q 286 710 300 726 l 306 696 q 393 781 344 757 q 511 804 442 804 q 689 752 611 804 q 810 606 767 700 q 854 393 854 513 q 810 181 854 275 q 689 35 767 88 q 511 -17 611 -17 q 393 7 442 -17 q 306 92 344 31 l 286 78 q 305 46 300 61 q 310 8 310 31 l 310 -272 l 76 -272 m 446 182 q 571 241 524 182 q 618 393 618 300 q 571 547 618 488 q 446 606 524 606 q 321 547 368 606 q 274 393 274 489 q 321 240 274 299 q 446 182 368 182 z "},"q":{"ha":901,"x_min":47,"x_max":929,"o":"m 772 -272 q 639 -231 686 -272 q 592 -115 592 -190 l 592 8 q 597 46 592 31 q 615 78 601 61 l 596 92 q 508 7 557 31 q 390 -17 460 -17 q 213 35 290 -17 q 91 181 135 88 q 47 393 47 275 q 91 606 47 513 q 213 752 135 700 q 390 804 290 804 q 508 781 460 804 q 596 696 557 757 l 615 710 q 597 742 601 726 q 592 779 592 757 l 592 788 l 825 788 l 825 -33 q 872 -82 825 -82 l 929 -82 l 929 -272 l 772 -272 m 456 182 q 581 240 533 182 q 628 393 628 299 q 581 547 628 489 q 456 606 533 606 q 331 547 378 606 q 283 393 283 488 q 331 241 283 300 q 456 182 378 182 z "},"r":{"ha":569,"x_min":76,"x_max":546,"o":"m 76 0 l 76 788 l 310 788 l 310 779 q 305 742 310 757 q 286 710 300 726 l 306 696 q 393 781 344 757 q 511 804 442 804 l 546 804 l 546 582 l 501 582 q 368 540 413 582 q 324 461 338 511 q 310 332 310 411 l 310 0 l 76 0 z "},"ŕ":{"ha":569,"x_min":76,"x_max":546,"o":"m 76 0 l 76 788 l 310 788 l 310 779 q 305 742 310 757 q 286 710 300 726 l 306 696 q 393 781 344 757 q 511 804 442 804 l 546 804 l 546 582 l 501 582 q 368 540 413 582 q 324 461 338 511 q 310 332 310 411 l 310 0 l 76 0 m 331 858 l 163 858 l 321 1060 l 546 1060 l 331 858 z "},"ř":{"ha":569,"x_min":14,"x_max":546,"o":"m 76 0 l 76 788 l 310 788 l 310 779 q 305 742 310 757 q 286 710 300 726 l 306 696 q 393 781 344 757 q 511 804 442 804 l 546 804 l 546 582 l 501 582 q 368 540 413 582 q 324 461 338 511 q 310 332 310 411 l 310 0 l 76 0 m 249 814 l 14 1060 l 196 1060 l 217 1031 q 249 958 249 988 l 268 958 q 300 1031 268 988 l 321 1060 l 503 1060 l 268 814 l 249 814 z "},"ŗ":{"ha":569,"x_min":76,"x_max":546,"o":"m 76 0 l 76 788 l 310 788 l 310 779 q 305 742 310 757 q 286 710 300 726 l 306 696 q 393 781 344 757 q 511 804 442 804 l 546 804 l 546 582 l 501 582 q 368 540 413 582 q 324 461 338 511 q 310 332 310 411 l 310 0 l 76 0 m 117 -221 q 208 -182 192 -221 q 213 -161 213 -174 l 201 -161 q 157 -182 189 -182 q 114 -167 131 -182 q 97 -121 97 -151 q 122 -67 97 -87 q 188 -46 147 -46 q 263 -74 236 -46 q 289 -146 289 -103 q 117 -272 289 -272 l 117 -221 z "},"s":{"ha":817,"x_min":40,"x_max":768,"o":"m 431 -17 q 256 12 340 -17 q 113 105 172 40 q 40 272 53 169 l 267 272 q 329 188 285 217 q 428 160 374 160 q 508 179 476 160 q 539 231 539 199 q 500 283 539 267 q 376 317 461 300 q 222 356 283 335 q 117 428 161 378 q 72 564 72 478 q 163 745 72 686 q 389 804 253 804 q 631 731 535 804 q 750 526 728 658 l 529 526 q 475 604 514 579 q 388 629 436 629 q 319 613 344 629 q 293 569 293 596 q 333 517 293 533 q 458 486 372 501 q 615 449 553 469 q 723 379 678 428 q 768 246 768 331 q 727 108 768 168 q 610 16 686 49 q 431 -17 533 -17 z "},"ś":{"ha":817,"x_min":40,"x_max":768,"o":"m 431 -17 q 256 12 340 -17 q 113 105 172 40 q 40 272 53 169 l 267 272 q 329 188 285 217 q 428 160 374 160 q 508 179 476 160 q 539 231 539 199 q 500 283 539 267 q 376 317 461 300 q 222 356 283 335 q 117 428 161 378 q 72 564 72 478 q 163 745 72 686 q 389 804 253 804 q 631 731 535 804 q 750 526 728 658 l 529 526 q 475 604 514 579 q 388 629 436 629 q 319 613 344 629 q 293 569 293 596 q 333 517 293 533 q 458 486 372 501 q 615 449 553 469 q 723 379 678 428 q 768 246 768 331 q 727 108 768 168 q 610 16 686 49 q 431 -17 533 -17 m 479 858 l 311 858 l 469 1060 l 694 1060 l 479 858 z "},"š":{"ha":817,"x_min":40,"x_max":768,"o":"m 431 -17 q 256 12 340 -17 q 113 105 172 40 q 40 272 53 169 l 267 272 q 329 188 285 217 q 428 160 374 160 q 508 179 476 160 q 539 231 539 199 q 500 283 539 267 q 376 317 461 300 q 222 356 283 335 q 117 428 161 378 q 72 564 72 478 q 163 745 72 686 q 389 804 253 804 q 631 731 535 804 q 750 526 728 658 l 529 526 q 475 604 514 579 q 388 629 436 629 q 319 613 344 629 q 293 569 293 596 q 333 517 293 533 q 458 486 372 501 q 615 449 553 469 q 723 379 678 428 q 768 246 768 331 q 727 108 768 168 q 610 16 686 49 q 431 -17 533 -17 m 397 814 l 163 1060 l 344 1060 l 365 1031 q 397 958 397 988 l 417 958 q 449 1031 417 988 l 469 1060 l 651 1060 l 417 814 l 397 814 z "},"ş":{"ha":817,"x_min":40,"x_max":768,"o":"m 768 246 q 684 60 768 132 q 453 -17 600 -11 q 413 -44 428 -36 l 419 -57 q 447 -56 429 -56 q 524 -72 496 -56 q 558 -107 547 -86 q 568 -158 568 -128 q 515 -256 568 -222 q 379 -289 463 -289 q 246 -268 313 -289 l 246 -183 q 367 -211 321 -211 q 413 -199 397 -211 q 429 -164 429 -186 q 383 -108 429 -122 q 256 -93 336 -93 l 332 -8 q 135 81 217 13 q 40 272 54 149 l 267 272 q 329 188 285 217 q 428 160 374 160 q 508 179 476 160 q 539 231 539 199 q 500 283 539 267 q 376 317 461 300 q 222 356 283 335 q 117 428 161 378 q 72 564 72 478 q 163 745 72 686 q 389 804 253 804 q 631 731 535 804 q 750 526 728 658 l 529 526 q 475 604 514 579 q 388 629 436 629 q 319 613 344 629 q 293 569 293 596 q 333 517 293 533 q 458 486 372 501 q 615 449 553 469 q 723 379 678 428 q 768 246 768 331 z "},"ș":{"ha":817,"x_min":40,"x_max":768,"o":"m 431 -17 q 256 12 340 -17 q 113 105 172 40 q 40 272 53 169 l 267 272 q 329 188 285 217 q 428 160 374 160 q 508 179 476 160 q 539 231 539 199 q 500 283 539 267 q 376 317 461 300 q 222 356 283 335 q 117 428 161 378 q 72 564 72 478 q 163 745 72 686 q 389 804 253 804 q 631 731 535 804 q 750 526 728 658 l 529 526 q 475 604 514 579 q 388 629 436 629 q 319 613 344 629 q 293 569 293 596 q 333 517 293 533 q 458 486 372 501 q 615 449 553 469 q 723 379 678 428 q 768 246 768 331 q 727 108 768 168 q 610 16 686 49 q 431 -17 533 -17 m 331 -221 q 422 -182 406 -221 q 426 -161 426 -174 l 415 -161 q 371 -182 403 -182 q 328 -167 344 -182 q 311 -121 311 -151 q 336 -67 311 -87 q 401 -46 361 -46 q 476 -74 450 -46 q 503 -146 503 -103 q 331 -272 503 -272 l 331 -221 z "},"ß":{"ha":969,"x_min":96,"x_max":936,"o":"m 96 656 q 202 970 96 864 q 507 1076 308 1076 q 717 1035 632 1076 q 842 929 801 993 q 882 796 882 865 q 832 642 882 696 q 732 583 797 603 l 732 567 q 844 521 799 553 q 936 313 936 457 q 805 57 936 114 q 544 0 674 0 l 446 0 l 446 208 l 531 208 q 660 241 617 208 q 703 332 703 274 q 542 444 703 444 l 446 444 l 446 633 l 497 633 q 608 663 568 633 q 649 750 649 693 q 612 836 649 804 q 510 868 575 868 q 377 816 425 868 q 329 669 329 764 l 329 0 l 96 0 l 96 656 z "},"t":{"ha":553,"x_min":29,"x_max":507,"o":"m 319 0 q 185 41 233 0 q 138 157 138 82 l 138 606 l 29 606 l 29 788 l 138 788 l 138 1060 l 371 1060 l 371 788 l 507 788 l 507 606 l 371 606 l 371 236 q 418 189 371 189 l 506 189 l 506 0 l 319 0 z "},"ť":{"ha":806,"x_min":29,"x_max":740,"o":"m 319 0 q 185 41 233 0 q 138 157 138 82 l 138 606 l 29 606 l 29 788 l 138 788 l 138 1060 l 371 1060 l 371 788 l 507 788 l 507 606 l 371 606 l 371 236 q 418 189 371 189 l 506 189 l 506 0 l 319 0 z "},"ţ":{"ha":553,"x_min":29,"x_max":507,"o":"m 507 606 l 371 606 l 371 236 q 418 189 371 189 l 506 189 l 506 0 l 382 0 q 321 -44 350 -25 l 328 -57 q 356 -56 338 -56 q 432 -72 404 -56 q 466 -107 456 -86 q 476 -158 476 -128 q 424 -256 476 -222 q 288 -289 371 -289 q 154 -268 221 -289 l 154 -183 q 275 -211 229 -211 q 322 -199 306 -211 q 338 -164 338 -186 q 291 -108 338 -122 q 164 -93 244 -93 l 254 7 q 167 59 197 21 q 138 157 138 97 l 138 606 l 29 606 l 29 788 l 138 788 l 138 1060 l 371 1060 l 371 788 l 507 788 l 507 606 z "},"ț":{"ha":553,"x_min":29,"x_max":507,"o":"m 319 0 q 185 41 233 0 q 138 157 138 82 l 138 606 l 29 606 l 29 788 l 138 788 l 138 1060 l 371 1060 l 371 788 l 507 788 l 507 606 l 371 606 l 371 236 q 418 189 371 189 l 506 189 l 506 0 l 319 0 m 239 -221 q 331 -182 314 -221 q 335 -161 335 -174 l 324 -161 q 279 -182 311 -182 q 236 -167 253 -182 q 219 -121 219 -151 q 244 -67 219 -87 q 310 -46 269 -46 q 385 -74 358 -46 q 411 -146 411 -103 q 239 -272 411 -272 l 239 -221 z "},"u":{"ha":867,"x_min":71,"x_max":790,"o":"m 356 -17 q 101 119 161 -17 q 76 212 81 165 q 71 347 71 258 l 71 788 l 304 788 l 304 344 q 312 253 304 286 q 338 200 319 219 q 424 171 365 171 q 528 211 496 171 q 557 344 557 251 l 557 788 l 790 788 l 790 0 l 557 0 l 557 8 q 562 46 557 31 q 581 78 567 61 l 561 92 q 474 7 522 31 q 356 -17 425 -17 z "},"ú":{"ha":867,"x_min":71,"x_max":790,"o":"m 356 -17 q 101 119 161 -17 q 76 212 81 165 q 71 347 71 258 l 71 788 l 304 788 l 304 344 q 312 253 304 286 q 338 200 319 219 q 424 171 365 171 q 528 211 496 171 q 557 344 557 251 l 557 788 l 790 788 l 790 0 l 557 0 l 557 8 q 562 46 557 31 q 581 78 567 61 l 561 92 q 474 7 522 31 q 356 -17 425 -17 m 506 858 l 338 858 l 496 1060 l 721 1060 l 506 858 z "},"û":{"ha":867,"x_min":71,"x_max":790,"o":"m 356 -17 q 101 119 161 -17 q 76 212 81 165 q 71 347 71 258 l 71 788 l 304 788 l 304 344 q 312 253 304 286 q 338 200 319 219 q 424 171 365 171 q 528 211 496 171 q 557 344 557 251 l 557 788 l 790 788 l 790 0 l 557 0 l 557 8 q 562 46 557 31 q 581 78 567 61 l 561 92 q 474 7 522 31 q 356 -17 425 -17 m 189 858 l 424 1106 l 443 1106 l 678 858 l 496 858 l 475 888 q 443 960 443 931 l 424 960 q 392 888 424 931 l 371 858 l 189 858 z "},"ü":{"ha":867,"x_min":71,"x_max":790,"o":"m 356 -17 q 101 119 161 -17 q 76 212 81 165 q 71 347 71 258 l 71 788 l 304 788 l 304 344 q 312 253 304 286 q 338 200 319 219 q 424 171 365 171 q 528 211 496 171 q 557 344 557 251 l 557 788 l 790 788 l 790 0 l 557 0 l 557 8 q 562 46 557 31 q 581 78 567 61 l 561 92 q 474 7 522 31 q 356 -17 425 -17 m 281 842 q 187 874 225 842 q 149 961 149 907 q 187 1049 149 1015 q 281 1082 225 1082 q 374 1049 336 1082 q 413 961 413 1015 q 374 874 413 907 q 281 842 336 842 m 585 842 q 491 874 529 842 q 453 961 453 907 q 491 1049 453 1015 q 585 1082 529 1082 q 678 1049 640 1082 q 717 961 717 1015 q 678 874 717 907 q 585 842 640 842 z "},"ù":{"ha":867,"x_min":71,"x_max":790,"o":"m 356 -17 q 101 119 161 -17 q 76 212 81 165 q 71 347 71 258 l 71 788 l 304 788 l 304 344 q 312 253 304 286 q 338 200 319 219 q 424 171 365 171 q 528 211 496 171 q 557 344 557 251 l 557 788 l 790 788 l 790 0 l 557 0 l 557 8 q 562 46 557 31 q 581 78 567 61 l 561 92 q 474 7 522 31 q 356 -17 425 -17 m 371 1060 l 529 858 l 361 858 l 146 1060 l 371 1060 z "},"ű":{"ha":867,"x_min":71,"x_max":869,"o":"m 356 -17 q 101 119 161 -17 q 76 212 81 165 q 71 347 71 258 l 71 788 l 304 788 l 304 344 q 312 253 304 286 q 338 200 319 219 q 424 171 365 171 q 528 211 496 171 q 557 344 557 251 l 557 788 l 790 788 l 790 0 l 557 0 l 557 8 q 562 46 557 31 q 581 78 567 61 l 561 92 q 474 7 522 31 q 356 -17 425 -17 m 371 858 l 203 858 l 365 1060 l 561 1060 l 371 858 m 663 858 l 494 858 l 657 1060 l 869 1060 l 663 858 z "},"ū":{"ha":867,"x_min":71,"x_max":790,"o":"m 356 -17 q 101 119 161 -17 q 76 212 81 165 q 71 347 71 258 l 71 788 l 304 788 l 304 344 q 312 253 304 286 q 338 200 319 219 q 424 171 365 171 q 528 211 496 171 q 557 344 557 251 l 557 788 l 790 788 l 790 0 l 557 0 l 557 8 q 562 46 557 31 q 581 78 567 61 l 561 92 q 474 7 522 31 q 356 -17 425 -17 m 643 860 l 224 860 l 224 968 l 643 968 l 643 860 z "},"ų":{"ha":867,"x_min":71,"x_max":790,"o":"m 790 0 q 693 -66 715 -46 q 671 -110 671 -86 q 718 -147 671 -147 q 790 -128 751 -147 l 790 -271 q 678 -289 736 -289 q 508 -175 508 -289 q 540 -87 508 -119 q 650 -28 571 -54 l 650 0 l 557 0 l 557 8 q 562 46 557 31 q 581 78 567 61 l 561 92 q 474 7 522 31 q 356 -17 425 -17 q 101 119 161 -17 q 76 212 81 165 q 71 347 71 258 l 71 788 l 304 788 l 304 344 q 312 253 304 286 q 338 200 319 219 q 424 171 365 171 q 528 211 496 171 q 557 344 557 251 l 557 788 l 790 788 l 790 0 z "},"ů":{"ha":867,"x_min":71,"x_max":790,"o":"m 356 -17 q 101 119 161 -17 q 76 212 81 165 q 71 347 71 258 l 71 788 l 304 788 l 304 344 q 312 253 304 286 q 338 200 319 219 q 424 171 365 171 q 528 211 496 171 q 557 344 557 251 l 557 788 l 790 788 l 790 0 l 557 0 l 557 8 q 562 46 557 31 q 581 78 567 61 l 561 92 q 474 7 522 31 q 356 -17 425 -17 m 433 788 q 340 813 382 788 q 273 882 297 839 q 249 974 249 925 q 274 1066 249 1024 q 341 1133 299 1108 q 433 1158 383 1158 q 526 1133 483 1158 q 593 1066 568 1108 q 618 974 618 1024 q 594 880 618 922 q 527 813 569 838 q 433 788 485 788 m 433 904 q 483 924 464 904 q 501 976 501 944 q 483 1024 501 1006 q 433 1042 465 1042 q 383 1023 401 1042 q 365 976 365 1004 q 385 924 365 944 q 433 904 404 904 z "},"v":{"ha":783,"x_min":8,"x_max":775,"o":"m 299 0 l 8 788 l 256 788 l 361 439 q 378 366 374 399 q 382 293 382 333 l 399 293 q 402 367 399 336 q 418 439 406 399 l 528 788 l 775 788 l 483 0 l 299 0 z "},"w":{"ha":1194,"x_min":13,"x_max":1181,"o":"m 258 0 l 13 788 l 261 788 l 356 413 q 368 304 368 365 l 385 304 q 397 413 385 365 l 494 788 l 694 788 l 793 413 q 806 304 806 365 l 822 304 q 835 413 822 365 l 933 788 l 1181 788 l 929 0 l 708 0 l 624 360 q 604 485 608 426 l 588 485 q 568 360 583 426 l 481 0 l 258 0 z "},"ẃ":{"ha":1194,"x_min":13,"x_max":1181,"o":"m 258 0 l 13 788 l 261 788 l 356 413 q 368 304 368 365 l 385 304 q 397 413 385 365 l 494 788 l 694 788 l 793 413 q 806 304 806 365 l 822 304 q 835 413 822 365 l 933 788 l 1181 788 l 929 0 l 708 0 l 624 360 q 604 485 608 426 l 588 485 q 568 360 583 426 l 481 0 l 258 0 m 668 858 l 500 858 l 658 1060 l 883 1060 l 668 858 z "},"ŵ":{"ha":1194,"x_min":13,"x_max":1181,"o":"m 258 0 l 13 788 l 261 788 l 356 413 q 368 304 368 365 l 385 304 q 397 413 385 365 l 494 788 l 694 788 l 793 413 q 806 304 806 365 l 822 304 q 835 413 822 365 l 933 788 l 1181 788 l 929 0 l 708 0 l 624 360 q 604 485 608 426 l 588 485 q 568 360 583 426 l 481 0 l 258 0 m 351 858 l 586 1106 l 606 1106 l 840 858 l 658 858 l 638 888 q 606 960 606 931 l 586 960 q 554 888 586 931 l 533 858 l 351 858 z "},"ẅ":{"ha":1194,"x_min":13,"x_max":1181,"o":"m 258 0 l 13 788 l 261 788 l 356 413 q 368 304 368 365 l 385 304 q 397 413 385 365 l 494 788 l 694 788 l 793 413 q 806 304 806 365 l 822 304 q 835 413 822 365 l 933 788 l 1181 788 l 929 0 l 708 0 l 624 360 q 604 485 608 426 l 588 485 q 568 360 583 426 l 481 0 l 258 0 m 443 842 q 349 874 388 842 q 311 961 311 907 q 349 1049 311 1015 q 443 1082 388 1082 q 537 1049 499 1082 q 575 961 575 1015 q 537 874 575 907 q 443 842 499 842 m 747 842 q 653 874 692 842 q 615 961 615 907 q 653 1049 615 1015 q 747 1082 692 1082 q 841 1049 803 1082 q 879 961 879 1015 q 841 874 879 907 q 747 842 803 842 z "},"ẁ":{"ha":1194,"x_min":13,"x_max":1181,"o":"m 258 0 l 13 788 l 261 788 l 356 413 q 368 304 368 365 l 385 304 q 397 413 385 365 l 494 788 l 694 788 l 793 413 q 806 304 806 365 l 822 304 q 835 413 822 365 l 933 788 l 1181 788 l 929 0 l 708 0 l 624 360 q 604 485 608 426 l 588 485 q 568 360 583 426 l 481 0 l 258 0 m 533 1060 l 692 858 l 524 858 l 308 1060 l 533 1060 z "},"x":{"ha":839,"x_min":10,"x_max":831,"o":"m 11 0 l 271 399 l 10 788 l 274 788 l 371 628 q 407 544 397 585 l 426 544 q 463 628 438 589 l 561 788 l 831 788 l 563 399 l 829 0 l 563 0 l 461 168 q 426 251 438 206 l 407 251 q 393 207 400 225 q 374 168 386 189 l 274 0 l 11 0 z "},"y":{"ha":800,"x_min":10,"x_max":788,"o":"m 96 -272 l 96 -82 l 190 -82 q 246 -71 224 -82 q 282 -28 268 -60 l 289 -11 l 10 788 l 260 788 l 378 343 q 396 236 396 279 l 413 236 q 429 343 413 274 l 536 788 l 788 788 l 508 -50 q 408 -222 468 -171 q 236 -272 347 -272 l 96 -272 z "},"ý":{"ha":800,"x_min":10,"x_max":788,"o":"m 96 -272 l 96 -82 l 190 -82 q 246 -71 224 -82 q 282 -28 268 -60 l 289 -11 l 10 788 l 260 788 l 378 343 q 396 236 396 279 l 413 236 q 429 343 413 274 l 536 788 l 788 788 l 508 -50 q 408 -222 468 -171 q 236 -272 347 -272 l 96 -272 m 464 858 l 296 858 l 454 1060 l 679 1060 l 464 858 z "},"ŷ":{"ha":800,"x_min":10,"x_max":788,"o":"m 96 -272 l 96 -82 l 190 -82 q 246 -71 224 -82 q 282 -28 268 -60 l 289 -11 l 10 788 l 260 788 l 378 343 q 396 236 396 279 l 413 236 q 429 343 413 274 l 536 788 l 788 788 l 508 -50 q 408 -222 468 -171 q 236 -272 347 -272 l 96 -272 m 147 858 l 382 1106 l 401 1106 l 636 858 l 454 858 l 433 888 q 401 960 401 931 l 382 960 q 350 888 382 931 l 329 858 l 147 858 z "},"ÿ":{"ha":800,"x_min":10,"x_max":788,"o":"m 96 -272 l 96 -82 l 190 -82 q 246 -71 224 -82 q 282 -28 268 -60 l 289 -11 l 10 788 l 260 788 l 378 343 q 396 236 396 279 l 413 236 q 429 343 413 274 l 536 788 l 788 788 l 508 -50 q 408 -222 468 -171 q 236 -272 347 -272 l 96 -272 m 239 842 q 145 874 183 842 q 107 961 107 907 q 145 1049 107 1015 q 239 1082 183 1082 q 333 1049 294 1082 q 371 961 371 1015 q 333 874 371 907 q 239 842 294 842 m 543 842 q 449 874 488 842 q 411 961 411 907 q 449 1049 411 1015 q 543 1082 488 1082 q 637 1049 599 1082 q 675 961 675 1015 q 637 874 675 907 q 543 842 599 842 z "},"ỳ":{"ha":800,"x_min":10,"x_max":788,"o":"m 96 -272 l 96 -82 l 190 -82 q 246 -71 224 -82 q 282 -28 268 -60 l 289 -11 l 10 788 l 260 788 l 378 343 q 396 236 396 279 l 413 236 q 429 343 413 274 l 536 788 l 788 788 l 508 -50 q 408 -222 468 -171 q 236 -272 347 -272 l 96 -272 m 329 1060 l 488 858 l 319 858 l 104 1060 l 329 1060 z "},"z":{"ha":792,"x_min":40,"x_max":744,"o":"m 40 0 l 40 140 l 351 499 q 456 601 403 558 l 449 618 q 394 606 414 608 q 351 604 375 604 l 63 604 l 63 788 l 744 788 l 744 636 l 449 290 q 401 238 422 260 q 343 186 379 215 l 351 169 q 406 181 386 179 q 449 183 425 183 l 744 183 l 744 0 l 40 0 z "},"ź":{"ha":792,"x_min":40,"x_max":744,"o":"m 40 0 l 40 140 l 351 499 q 456 601 403 558 l 449 618 q 394 606 414 608 q 351 604 375 604 l 63 604 l 63 788 l 744 788 l 744 636 l 449 290 q 401 238 422 260 q 343 186 379 215 l 351 169 q 406 181 386 179 q 449 183 425 183 l 744 183 l 744 0 l 40 0 m 471 858 l 303 858 l 461 1060 l 686 1060 l 471 858 z "},"ž":{"ha":792,"x_min":40,"x_max":744,"o":"m 40 0 l 40 140 l 351 499 q 456 601 403 558 l 449 618 q 394 606 414 608 q 351 604 375 604 l 63 604 l 63 788 l 744 788 l 744 636 l 449 290 q 401 238 422 260 q 343 186 379 215 l 351 169 q 406 181 386 179 q 449 183 425 183 l 744 183 l 744 0 l 40 0 m 389 814 l 154 1060 l 336 1060 l 357 1031 q 389 958 389 988 l 408 958 q 440 1031 408 988 l 461 1060 l 643 1060 l 408 814 l 389 814 z "},"ż":{"ha":792,"x_min":40,"x_max":744,"o":"m 40 0 l 40 140 l 351 499 q 456 601 403 558 l 449 618 q 394 606 414 608 q 351 604 375 604 l 63 604 l 63 788 l 744 788 l 744 636 l 449 290 q 401 238 422 260 q 343 186 379 215 l 351 169 q 406 181 386 179 q 449 183 425 183 l 744 183 l 744 0 l 40 0 m 399 842 q 305 874 343 842 q 267 961 267 907 q 305 1049 267 1015 q 399 1082 343 1082 q 492 1049 454 1082 q 531 961 531 1015 q 492 874 531 907 q 399 842 454 842 z "},"ﬁ":{"ha":911,"x_min":29,"x_max":850,"o":"m 142 0 l 142 607 l 29 607 l 29 788 l 142 788 l 142 864 q 200 1008 142 957 q 367 1060 258 1060 l 496 1060 l 496 881 l 424 881 q 392 869 406 881 q 378 829 378 858 l 378 824 q 364 788 378 800 l 378 774 q 435 788 392 788 l 496 788 l 496 607 l 378 607 l 378 0 l 142 0 m 835 0 l 601 0 l 601 788 l 835 788 l 835 0 m 718 842 q 624 874 663 842 q 586 961 586 907 q 624 1049 586 1015 q 718 1082 663 1082 q 812 1049 774 1082 q 850 961 850 1015 q 812 874 850 907 q 718 842 774 842 z "},"ﬂ":{"ha":967,"x_min":29,"x_max":935,"o":"m 142 0 l 142 607 l 29 607 l 29 788 l 142 788 l 142 864 q 200 1008 142 957 q 367 1060 258 1060 l 496 1060 l 496 881 l 424 881 q 392 869 406 881 q 378 829 378 858 l 378 824 q 364 788 378 800 l 378 774 q 435 788 392 788 l 496 788 l 496 607 l 378 607 l 378 0 l 142 0 m 778 0 q 644 41 692 0 q 597 157 597 82 l 597 1060 l 831 1060 l 831 238 q 876 189 831 189 l 935 189 l 935 0 l 778 0 z "},"ª":{"ha":618,"x_min":46,"x_max":550,"o":"m 226 503 q 97 546 149 503 q 46 668 46 589 q 115 801 46 756 q 246 846 157 828 l 389 871 q 365 935 385 915 q 311 954 347 954 q 258 935 281 954 q 229 882 235 915 l 67 882 q 151 1028 82 979 q 311 1076 219 1076 q 406 1063 361 1076 q 482 1022 451 1050 q 539 928 528 983 q 550 775 550 874 l 550 514 l 388 514 l 388 522 q 401 572 388 546 l 388 581 q 347 531 376 550 q 226 503 304 503 m 275 626 q 333 639 304 626 q 369 667 357 650 q 392 722 381 681 q 410 743 396 742 l 407 758 q 353 747 372 750 q 324 742 335 744 l 292 736 q 224 710 243 726 q 210 675 210 693 q 275 626 210 626 z "},"º":{"ha":669,"x_min":44,"x_max":625,"o":"m 335 503 q 183 539 249 503 q 81 640 118 575 q 44 793 44 706 q 81 941 44 876 q 183 1041 117 1006 q 335 1076 249 1076 q 487 1041 421 1076 q 589 941 553 1006 q 625 793 625 876 q 546 583 625 663 q 335 503 467 503 m 335 642 q 422 683 389 642 q 454 793 454 725 q 422 898 454 858 q 335 938 389 938 q 247 898 281 938 q 214 793 214 858 q 247 683 214 724 q 335 642 281 642 z "},"Δ":{"ha":1000,"x_min":3,"x_max":997,"o":"m 997 0 l 3 0 l 365 1060 l 635 1060 l 997 0 m 333 201 q 374 213 357 211 q 414 215 392 215 l 586 215 q 626 213 608 215 q 667 201 643 211 l 679 217 q 644 300 657 256 l 538 656 q 511 806 511 744 l 489 806 q 463 656 489 744 l 356 300 q 321 217 343 256 l 333 201 z "},"π":{"ha":901,"x_min":42,"x_max":843,"o":"m 122 0 l 122 586 l 42 586 l 42 788 l 843 788 l 843 586 l 729 586 l 729 226 q 740 192 729 201 q 776 182 751 182 l 843 182 l 843 0 l 721 0 q 562 48 617 0 q 507 188 507 96 l 507 586 l 346 586 l 346 0 l 122 0 z "},"⁄":{"ha":246,"x_min":-260,"x_max":506,"o":"m -132 0 l -260 0 l 378 1060 l 506 1060 l -132 0 z "},".":{"ha":319,"x_min":29,"x_max":290,"o":"m 163 -17 q 69 22 108 -17 q 29 115 29 61 q 69 206 29 168 q 163 244 108 244 q 252 206 214 244 q 290 115 290 168 q 253 22 290 61 q 163 -17 215 -17 z "},",":{"ha":319,"x_min":19,"x_max":319,"o":"m 31 -117 q 156 -83 111 -117 q 199 17 200 -49 l 182 17 q 162 -8 175 0 q 126 -15 149 -15 q 52 19 85 -15 q 19 110 19 54 q 58 208 19 171 q 161 244 97 244 q 279 190 239 244 q 319 44 319 135 q 250 -149 319 -68 q 31 -236 181 -229 l 31 -117 z "},":":{"ha":319,"x_min":29,"x_max":290,"o":"m 161 469 q 68 508 107 469 q 29 601 29 547 q 68 693 29 654 q 161 732 107 732 q 252 693 214 732 q 290 601 290 654 q 252 509 290 549 q 161 469 214 469 m 161 -17 q 67 22 106 -17 q 29 115 29 61 q 68 206 29 168 q 161 244 107 244 q 252 206 214 244 q 290 115 290 168 q 252 22 290 61 q 161 -17 214 -17 z "},";":{"ha":319,"x_min":22,"x_max":322,"o":"m 153 469 q 61 508 100 469 q 22 601 22 547 q 60 693 22 654 q 153 732 99 732 q 244 694 206 732 q 283 601 283 656 q 244 508 283 547 q 153 469 206 469 m 33 -117 q 158 -83 114 -117 q 201 17 203 -49 l 185 17 q 165 -8 178 0 q 129 -15 151 -15 q 55 19 88 -15 q 22 110 22 54 q 61 208 22 171 q 164 244 100 244 q 282 190 242 244 q 322 44 322 135 q 253 -149 322 -68 q 33 -236 183 -229 l 33 -117 z "},"…":{"ha":938,"x_min":29,"x_max":908,"o":"m 163 -17 q 69 22 108 -17 q 29 114 29 60 q 68 206 29 168 q 163 244 107 244 q 252 206 214 244 q 290 114 290 167 q 252 22 290 60 q 163 -17 214 -17 m 469 -17 q 377 22 415 -17 q 339 114 339 60 q 377 206 339 167 q 469 244 415 244 q 562 206 524 244 q 600 114 600 167 q 561 22 600 60 q 469 -17 522 -17 m 778 -17 q 685 22 724 -17 q 647 114 647 60 q 685 206 647 167 q 778 244 724 244 q 869 206 831 244 q 908 114 908 167 q 869 22 908 60 q 778 -17 831 -17 z "},"!":{"ha":406,"x_min":71,"x_max":332,"o":"m 104 332 q 99 400 101 376 q 85 669 85 578 l 85 1060 l 318 1060 l 318 669 q 303 374 318 554 q 300 332 303 360 l 104 332 m 203 -17 q 109 22 147 -17 q 71 115 71 61 q 110 206 71 168 q 203 244 149 244 q 294 206 256 244 q 332 115 332 168 q 294 22 332 61 q 203 -17 256 -17 z "},"¡":{"ha":517,"x_min":146,"x_max":407,"o":"m 275 804 q 369 765 331 804 q 407 672 407 726 q 368 581 407 619 q 275 543 329 543 q 184 581 222 543 q 146 672 146 619 q 184 765 146 726 q 275 804 222 804 m 374 456 q 379 388 376 411 q 393 118 393 210 l 393 -272 l 160 -272 l 160 118 q 175 414 160 233 q 178 456 175 428 l 374 456 z "},"?":{"ha":779,"x_min":33,"x_max":733,"o":"m 276 401 q 297 525 276 476 q 345 601 317 574 q 419 658 374 628 q 490 719 468 693 q 513 792 513 746 q 478 872 513 846 q 390 899 443 899 q 288 855 328 899 q 243 728 249 811 l 33 728 q 86 920 38 840 q 215 1041 135 1000 q 397 1082 296 1082 q 638 1006 543 1082 q 733 779 733 929 q 716 672 733 715 q 674 603 699 629 q 607 547 649 578 q 532 481 558 511 q 496 400 506 451 l 482 329 l 276 329 l 276 401 m 378 -17 q 285 22 324 -17 q 247 114 247 61 q 285 206 247 167 q 378 244 324 244 q 469 206 431 244 q 508 115 508 168 q 470 22 508 61 q 378 -17 432 -17 z "},"¿":{"ha":707,"x_min":-3,"x_max":697,"o":"m 353 804 q 445 765 407 804 q 483 674 483 726 q 445 582 483 621 q 353 543 407 543 q 261 581 300 543 q 222 672 222 619 q 261 766 222 728 q 353 804 300 804 m 454 386 q 434 263 454 311 q 385 187 414 214 q 311 129 357 160 q 240 68 263 94 q 218 -4 218 42 q 253 -85 218 -58 q 340 -111 288 -111 q 442 -67 403 -111 q 488 60 482 -24 l 697 60 q 644 -133 693 -53 q 515 -253 596 -212 q 333 -294 435 -294 q 92 -218 188 -294 q -3 8 -3 -142 q 15 115 -3 72 q 57 184 32 158 q 124 240 82 210 q 199 306 172 276 q 235 388 225 336 l 249 458 l 454 458 l 454 386 z "},"·":{"ha":433,"x_min":100,"x_max":333,"o":"m 215 439 q 133 474 167 439 q 100 556 100 508 q 134 639 100 604 q 215 674 168 674 q 299 640 264 674 q 333 556 333 606 q 299 474 333 508 q 215 439 264 439 z "},"•":{"ha":533,"x_min":89,"x_max":444,"o":"m 267 183 q 141 235 193 183 q 89 361 89 288 q 141 487 89 435 q 267 539 193 539 q 392 487 340 539 q 444 361 444 435 q 392 235 444 288 q 267 183 340 183 z "},"*":{"ha":600,"x_min":36,"x_max":563,"o":"m 85 669 q 148 731 115 703 q 242 793 181 758 l 236 811 q 169 808 186 808 q 81 814 117 808 q 36 821 44 819 l 88 965 q 168 926 135 944 q 249 865 201 907 l 264 878 q 233 972 242 936 q 217 1060 225 1008 l 382 1060 q 368 976 376 1014 q 338 879 360 939 l 353 867 q 435 927 400 907 q 511 965 469 947 l 563 821 q 440 810 496 810 q 364 813 422 810 l 358 794 q 448 734 417 761 q 514 669 479 707 l 381 581 q 340 672 356 635 q 308 761 324 708 l 289 761 q 218 581 264 678 l 85 669 z "},"#":{"ha":1035,"x_min":53,"x_max":983,"o":"m 328 0 l 154 0 l 221 304 l 53 304 l 53 461 l 254 461 l 286 613 l 113 613 l 113 776 l 321 776 l 388 1060 l 563 1060 l 497 768 l 647 768 l 708 1060 l 885 1060 l 815 768 l 983 768 l 983 613 l 783 613 l 747 461 l 922 461 l 922 304 l 715 304 l 649 0 l 476 0 l 542 304 l 390 304 l 328 0 m 458 613 l 429 461 l 578 461 l 610 613 l 458 613 z "},"/":{"ha":675,"x_min":-37,"x_max":661,"o":"m 661 1060 l 169 -154 l -37 -154 l 456 1060 l 661 1060 z "},"\\":{"ha":675,"x_min":14,"x_max":713,"o":"m 713 -154 l 506 -154 l 14 1060 l 219 1060 l 713 -154 z "},"‣":{"ha":635,"x_min":135,"x_max":635,"o":"m 635 400 l 135 107 l 135 692 l 635 400 z "},"(":{"ha":417,"x_min":69,"x_max":404,"o":"m 214 -153 q 106 152 142 -21 q 69 529 69 325 q 106 906 69 733 q 214 1211 142 1079 l 404 1211 q 283 905 322 1071 q 244 529 244 739 q 283 153 244 319 q 404 -153 322 -12 l 214 -153 z "},")":{"ha":417,"x_min":13,"x_max":347,"o":"m 13 -153 q 133 153 94 -12 q 172 529 172 319 q 133 905 172 739 q 13 1211 94 1071 l 203 1211 q 311 906 275 1079 q 347 529 347 733 q 311 152 347 325 q 203 -153 275 -21 l 13 -153 z "},"{":{"ha":464,"x_min":24,"x_max":433,"o":"m 299 -153 q 169 -94 213 -153 q 125 69 125 -35 l 125 314 q 99 406 125 378 q 24 449 72 433 l 24 610 q 99 653 72 625 q 125 744 125 681 l 125 989 q 169 1152 125 1093 q 299 1211 213 1211 l 433 1211 l 433 1069 l 378 1069 q 326 1046 339 1069 q 314 985 314 1022 l 314 740 q 274 600 314 647 q 151 542 233 553 l 151 517 q 274 458 233 506 q 314 318 314 411 l 314 74 q 326 13 314 36 q 378 -11 339 -11 l 433 -11 l 433 -153 l 299 -153 z "},"}":{"ha":464,"x_min":31,"x_max":440,"o":"m 31 -153 l 31 -11 l 86 -11 q 138 13 125 -11 q 150 74 150 36 l 150 318 q 190 458 150 411 q 313 517 231 506 l 313 542 q 190 600 231 553 q 150 740 150 647 l 150 985 q 138 1046 150 1022 q 86 1069 125 1069 l 31 1069 l 31 1211 l 165 1211 q 295 1152 251 1211 q 339 989 339 1093 l 339 744 q 365 653 339 681 q 440 610 392 625 l 440 449 q 365 406 392 433 q 339 314 339 378 l 339 69 q 295 -94 339 -35 q 165 -153 251 -153 l 31 -153 z "},"[":{"ha":475,"x_min":117,"x_max":463,"o":"m 463 -153 l 117 -153 l 117 1211 l 463 1211 l 463 1063 l 294 1063 l 294 -4 l 463 -4 l 463 -153 z "},"]":{"ha":475,"x_min":13,"x_max":358,"o":"m 358 1211 l 358 -153 l 13 -153 l 13 -4 l 181 -4 l 181 1063 l 13 1063 l 13 1211 l 358 1211 z "},"-":{"ha":526,"x_min":36,"x_max":490,"o":"m 490 343 l 36 343 l 36 542 l 490 542 l 490 343 z "},"­":{"ha":561,"x_min":0,"x_max":561,"o":"m 561 358 l 0 358 l 0 525 l 561 525 l 561 358 z "},"–":{"ha":760,"x_min":32,"x_max":728,"o":"m 728 358 l 32 358 l 32 525 l 728 525 l 728 358 z "},"—":{"ha":1536,"x_min":0,"x_max":1536,"o":"m 1536 358 l 0 358 l 0 525 l 1536 525 l 1536 358 z "},"―":{"ha":1119,"x_min":88,"x_max":1032,"o":"m 1032 381 l 88 381 l 88 519 l 1032 519 l 1032 381 z "},"_":{"ha":615,"x_min":-19,"x_max":633,"o":"m 633 -168 l -19 -168 l -19 0 l 633 0 l 633 -168 z "},"‚":{"ha":319,"x_min":19,"x_max":319,"o":"m 31 -117 q 156 -83 111 -117 q 199 17 200 -49 l 182 17 q 162 -8 175 0 q 126 -15 149 -15 q 52 19 85 -15 q 19 110 19 54 q 58 208 19 171 q 161 244 97 244 q 279 190 239 244 q 319 44 319 135 q 250 -149 319 -68 q 31 -236 181 -229 l 31 -117 z "},"„":{"ha":660,"x_min":19,"x_max":660,"o":"z "},"“":{"ha":793,"x_min":65,"x_max":706,"o":"m 354 961 q 229 927 274 961 q 186 828 185 893 l 203 828 q 223 852 210 844 q 258 860 236 860 q 333 825 300 860 q 365 735 365 790 q 326 637 365 674 q 224 600 288 600 q 106 655 146 600 q 65 800 65 710 q 135 993 65 913 q 354 1081 204 1074 l 354 961 m 694 961 q 569 927 614 961 q 526 828 525 893 l 543 828 q 563 852 550 844 q 599 860 576 860 q 673 825 640 860 q 706 735 706 790 q 667 637 706 674 q 564 600 628 600 q 446 655 486 600 q 406 800 406 710 q 475 993 406 913 q 694 1081 544 1074 l 694 961 z "},"”":{"ha":792,"x_min":86,"x_max":726,"o":"m 97 715 q 222 749 178 715 q 265 849 267 783 l 249 849 q 228 824 242 832 q 193 817 215 817 q 119 851 151 817 q 86 942 86 886 q 125 1040 86 1003 q 228 1076 164 1076 q 346 1022 306 1076 q 386 876 386 967 q 317 683 386 764 q 97 596 247 603 l 97 715 m 438 715 q 563 749 518 715 q 606 849 607 783 l 589 849 q 569 824 582 832 q 533 817 556 817 q 459 851 492 817 q 426 942 426 886 q 465 1040 426 1003 q 568 1076 504 1076 q 686 1022 646 1076 q 726 876 726 967 q 657 683 726 764 q 438 596 588 603 l 438 715 z "},"‘":{"ha":453,"x_min":65,"x_max":365,"o":"m 224 599 q 106 653 146 599 q 65 799 65 708 q 135 992 65 911 q 354 1079 204 1072 l 354 960 q 229 926 274 960 q 186 826 185 892 l 203 826 q 223 851 210 843 q 258 858 236 858 q 333 824 300 858 q 365 733 365 789 q 326 635 365 672 q 224 599 288 599 z "},"’":{"ha":451,"x_min":86,"x_max":386,"o":"m 97 715 q 222 749 178 715 q 265 849 267 783 l 249 849 q 228 824 242 832 q 193 817 215 817 q 119 851 151 817 q 86 942 86 886 q 125 1040 86 1003 q 228 1076 164 1076 q 346 1022 306 1076 q 386 876 386 967 q 317 683 386 764 q 97 596 247 603 l 97 715 z "},"«":{"ha":800,"x_min":-11,"x_max":694,"o":"m 322 111 l -11 382 l 322 656 l 322 461 l 279 428 q 240 401 254 410 q 204 392 225 393 l 204 372 q 241 363 225 371 q 279 339 257 354 l 322 307 l 322 111 m 694 111 l 361 382 l 694 656 l 694 461 l 651 428 q 612 401 626 410 q 576 392 597 393 l 576 372 q 613 363 597 371 q 651 339 629 354 l 694 307 l 694 111 z "},"»":{"ha":800,"x_min":106,"x_max":811,"o":"m 106 111 l 106 307 l 149 339 q 187 363 171 354 q 224 372 203 371 l 224 392 q 188 401 203 393 q 149 428 174 410 l 106 461 l 106 656 l 439 382 l 106 111 m 478 111 l 478 307 l 521 339 q 559 363 543 354 q 596 372 575 371 l 596 392 q 560 401 575 393 q 521 428 546 410 l 478 461 l 478 656 l 811 382 l 478 111 z "},"‹":{"ha":428,"x_min":-11,"x_max":322,"o":"m 322 111 l -11 382 l 322 656 l 322 461 l 279 428 q 240 401 254 410 q 204 392 225 393 l 204 372 q 241 363 225 371 q 279 339 257 354 l 322 307 l 322 111 z "},"›":{"ha":428,"x_min":106,"x_max":439,"o":"m 106 111 l 106 307 l 149 339 q 187 363 171 354 q 224 372 203 371 l 224 392 q 188 401 203 393 q 149 428 174 410 l 106 461 l 106 656 l 439 382 l 106 111 z "},"\"":{"ha":518,"x_min":51,"x_max":465,"o":"m 204 650 l 51 650 l 51 1060 l 204 1060 l 204 650 m 465 650 l 313 650 l 313 1060 l 465 1060 l 465 650 z "},"'":{"ha":256,"x_min":51,"x_max":204,"o":"m 204 650 l 51 650 l 51 1060 l 204 1060 l 204 650 z "}," ":{"ha":333,"x_min":0,"x_max":0,"o":""},"¢":{"ha":889,"x_min":50,"x_max":847,"o":"m 410 -14 q 147 118 244 7 q 50 399 50 229 q 94 598 50 510 q 220 740 139 686 q 410 804 301 794 l 410 926 l 493 926 l 493 807 q 723 717 629 793 q 844 525 817 642 l 592 525 q 556 581 579 557 q 533 599 549 586 q 510 626 517 611 l 493 622 l 493 165 l 510 161 q 544 200 518 179 q 572 229 563 217 q 593 272 585 249 l 847 272 q 725 70 819 146 q 493 -15 631 -6 l 493 -139 l 410 -139 l 410 -14 m 410 172 l 410 619 l 393 622 q 360 582 389 606 q 339 561 339 561 q 290 399 290 500 q 336 239 290 296 l 360 214 q 381 191 371 203 q 393 168 390 179 l 410 172 z "},"¤":{"ha":889,"x_min":43,"x_max":846,"o":"m 163 71 l 43 196 l 133 285 q 82 471 82 369 q 133 658 82 574 l 49 749 l 164 874 l 260 779 q 446 833 338 833 q 632 782 547 833 l 724 871 l 846 751 l 754 661 q 807 472 807 572 q 754 283 807 369 l 846 193 l 726 71 l 632 163 q 444 111 547 111 q 257 163 343 111 l 163 71 m 444 279 q 515 294 481 279 q 579 338 550 308 q 620 401 606 365 q 635 472 635 436 q 621 543 635 508 q 579 604 607 578 q 516 647 551 632 q 443 661 481 661 q 371 647 406 661 q 310 604 336 632 q 254 468 254 547 q 268 397 254 432 q 308 336 282 363 q 371 294 335 310 q 444 279 407 279 z "},"$":{"ha":889,"x_min":35,"x_max":853,"o":"m 424 28 q 158 127 269 43 q 35 375 47 211 l 268 375 q 324 278 286 313 q 372 238 343 258 l 422 199 l 436 210 q 424 296 424 254 l 424 443 q 219 506 297 471 q 101 597 142 540 q 60 742 60 654 q 108 901 60 836 q 240 999 157 967 q 424 1032 322 1032 l 424 1179 l 500 1179 l 500 1029 q 720 924 633 1006 q 822 711 807 843 l 597 711 q 564 783 583 756 q 539 811 557 793 l 503 853 l 488 844 q 500 776 500 806 l 500 636 q 767 532 681 600 q 853 335 853 464 q 758 114 853 196 q 500 26 664 32 l 500 -132 l 424 -132 l 424 28 m 436 644 q 424 732 424 690 l 424 794 q 436 861 424 822 l 422 872 q 367 842 392 853 q 335 828 343 832 q 285 763 285 804 q 344 683 285 713 q 369 671 349 681 q 422 633 390 661 l 436 644 m 501 197 q 554 229 506 200 q 589 250 572 239 q 626 319 626 276 q 590 390 626 363 q 556 410 581 397 q 501 447 531 424 l 488 436 q 500 350 500 392 l 500 286 q 488 208 500 249 l 501 197 z "},"€":{"ha":889,"x_min":79,"x_max":768,"o":"m 669 -24 q 342 73 464 -24 q 168 332 219 169 l 79 332 l 79 482 l 153 482 l 153 540 l 153 588 l 79 588 l 79 742 l 172 742 q 347 991 229 900 q 669 1082 465 1082 q 768 1075 715 1082 l 768 844 q 669 858 726 858 q 508 807 575 858 q 433 744 433 744 l 443 728 q 492 740 475 738 q 528 742 508 742 l 725 742 l 725 588 l 403 588 l 403 538 l 403 482 l 725 482 l 725 332 l 528 332 q 487 334 506 332 q 435 346 468 336 l 426 329 q 479 276 461 299 q 508 249 503 253 q 669 194 578 194 q 768 210 722 194 l 768 -17 q 669 -24 717 -24 z "},"ƒ":{"ha":618,"x_min":76,"x_max":549,"o":"m 76 -272 l 76 -90 l 153 -90 q 188 -80 176 -90 q 199 -46 199 -69 l 199 600 l 76 600 l 76 788 l 199 788 l 199 872 q 253 1012 199 964 q 411 1060 307 1060 l 549 1060 l 549 879 l 467 879 q 432 869 443 879 q 421 835 421 858 l 421 788 l 549 788 l 549 600 l 421 600 l 421 -85 q 366 -224 421 -176 q 207 -272 311 -272 l 76 -272 z "},"£":{"ha":889,"x_min":72,"x_max":826,"o":"m 72 211 q 215 256 167 217 q 263 356 263 296 q 214 501 263 421 l 79 501 l 79 649 l 108 649 q 142 645 128 649 q 176 635 157 642 l 189 650 q 151 768 151 690 q 196 936 151 865 q 315 1044 240 1007 q 482 1082 390 1082 q 642 1047 568 1082 q 765 941 715 1011 q 826 771 814 871 l 604 771 q 563 856 596 829 q 486 883 531 883 q 392 849 424 883 q 361 757 361 815 q 382 649 361 711 l 649 649 l 649 501 l 532 501 q 485 503 506 501 q 439 515 465 506 l 428 499 q 472 342 472 406 q 458 278 472 307 q 401 210 443 249 l 414 185 q 481 208 457 204 q 547 213 506 213 l 822 213 l 822 0 l 72 0 l 72 211 z "},"¥":{"ha":889,"x_min":-24,"x_max":917,"o":"m 318 0 l 318 181 l 99 181 l 99 344 l 318 344 l 318 414 l 99 414 l 99 576 l 135 576 q 188 574 171 576 q 232 563 204 572 l 240 579 q 205 618 213 604 q 196 635 197 632 l -24 1060 l 265 1060 l 406 744 q 419 714 410 733 q 434 676 429 694 q 439 633 439 657 l 458 633 q 464 683 458 664 q 478 720 469 703 q 489 744 486 738 l 628 1060 l 917 1060 l 697 635 q 682 608 690 619 q 653 579 674 597 l 661 563 q 707 574 690 572 q 760 576 724 576 l 796 576 l 796 414 l 578 414 l 578 344 l 796 344 l 796 181 l 578 181 l 578 0 l 318 0 z "},"+":{"ha":889,"x_min":53,"x_max":836,"o":"m 529 78 l 358 78 l 358 385 l 53 385 l 53 553 l 358 553 l 358 860 l 529 860 l 529 553 l 836 553 l 836 385 l 529 385 l 529 78 z "},"−":{"ha":889,"x_min":111,"x_max":779,"o":"m 779 388 l 111 388 l 111 556 l 779 556 l 779 388 z "},"×":{"ha":889,"x_min":110,"x_max":783,"o":"m 447 350 l 231 132 l 110 253 l 326 471 l 111 686 l 229 806 l 446 589 l 663 806 l 783 685 l 567 468 l 783 251 l 665 132 l 447 350 z "},"÷":{"ha":889,"x_min":101,"x_max":789,"o":"m 568 608 l 321 608 l 321 824 l 568 824 l 568 608 m 789 388 l 101 388 l 101 556 l 789 556 l 789 388 m 568 107 l 321 107 l 321 322 l 568 322 l 568 107 z "},"=":{"ha":889,"x_min":125,"x_max":764,"o":"m 764 574 l 125 574 l 125 764 l 764 764 l 764 574 m 764 215 l 125 215 l 125 407 l 764 407 l 764 215 z "},">":{"ha":783,"x_min":61,"x_max":735,"o":"m 61 131 l 61 351 l 394 460 q 463 475 435 472 q 497 479 492 478 l 497 496 q 463 500 492 497 q 394 515 435 503 l 61 624 l 61 844 l 735 610 l 735 368 l 61 131 z "},"<":{"ha":783,"x_min":49,"x_max":722,"o":"m 722 131 l 49 368 l 49 610 l 722 844 l 722 624 l 389 515 q 320 500 349 503 q 286 496 292 497 l 286 479 q 320 475 292 478 q 389 460 349 472 l 722 351 l 722 131 z "},"±":{"ha":965,"x_min":92,"x_max":875,"o":"m 568 228 l 397 228 l 397 424 l 92 424 l 92 592 l 397 592 l 397 788 l 568 788 l 568 592 l 875 592 l 875 424 l 568 424 l 568 228 m 875 0 l 92 0 l 92 168 l 875 168 l 875 0 z "},"~":{"ha":732,"x_min":51,"x_max":568,"o":"z "},"^":{"ha":789,"x_min":38,"x_max":751,"o":"m 38 386 l 275 1060 l 517 1060 l 751 386 l 531 386 l 429 697 q 403 822 411 756 l 386 822 q 358 697 379 763 l 258 386 l 38 386 z "},"%":{"ha":1072,"x_min":50,"x_max":1022,"o":"m 286 581 q 168 610 222 581 q 82 697 114 640 q 50 832 50 754 q 81 967 50 910 q 165 1053 113 1024 q 282 1082 218 1082 q 401 1049 347 1082 q 485 958 454 1015 q 515 831 515 900 q 485 705 515 763 q 403 614 456 647 q 286 581 350 581 m 282 0 l 104 0 l 779 1060 l 958 1060 l 282 0 m 286 751 q 329 774 313 751 q 346 831 346 797 q 327 892 346 871 q 282 913 308 913 q 238 894 256 913 q 219 832 219 876 q 286 751 219 751 m 793 -24 q 675 6 729 -24 q 589 93 621 36 q 557 228 557 150 q 588 362 557 306 q 672 447 619 418 q 789 476 725 476 q 908 443 854 476 q 992 352 961 410 q 1022 225 1022 294 q 992 100 1022 157 q 910 10 963 43 q 793 -24 857 -24 m 793 144 q 836 167 818 144 q 854 225 854 190 q 835 286 854 265 q 789 307 815 307 q 726 228 726 307 q 793 144 726 144 z "},"‰":{"ha":1589,"x_min":50,"x_max":1539,"o":"m 286 581 q 168 610 222 581 q 82 697 114 640 q 50 832 50 754 q 81 967 50 910 q 165 1053 113 1024 q 282 1082 218 1082 q 401 1049 347 1082 q 485 958 454 1015 q 515 831 515 900 q 485 705 515 763 q 403 614 456 647 q 286 581 350 581 m 282 0 l 104 0 l 779 1060 l 958 1060 l 282 0 m 286 751 q 329 774 313 751 q 346 831 346 797 q 327 892 346 871 q 282 913 308 913 q 238 894 256 913 q 219 832 219 876 q 286 751 219 751 m 793 -24 q 675 6 729 -24 q 589 93 621 36 q 557 228 557 150 q 588 362 557 306 q 672 447 619 418 q 789 476 725 476 q 908 443 854 476 q 992 352 961 410 q 1022 225 1022 294 q 992 100 1022 157 q 910 10 963 43 q 793 -24 857 -24 m 1310 -24 q 1192 6 1246 -24 q 1106 93 1138 36 q 1074 228 1074 150 q 1105 362 1074 306 q 1189 447 1136 418 q 1306 476 1242 476 q 1424 443 1371 476 q 1508 352 1478 410 q 1539 225 1539 294 q 1509 100 1539 157 q 1426 10 1479 43 q 1310 -24 1374 -24 m 793 144 q 836 167 818 144 q 854 225 854 190 q 835 286 854 265 q 789 307 815 307 q 726 228 726 307 q 793 144 726 144 m 1310 144 q 1353 167 1335 144 q 1371 225 1371 190 q 1351 286 1371 265 q 1306 307 1332 307 q 1243 228 1243 307 q 1310 144 1243 144 z "},"◊":{"ha":974,"x_min":19,"x_max":953,"o":"m 661 0 l 313 0 l 19 531 l 311 1060 l 660 1060 l 953 529 l 661 0 m 289 531 l 485 129 l 685 531 l 486 931 l 289 531 z "},"":{"ha":1228,"x_min":83,"x_max":1143,"o":"m 96 0 q 83 14 83 0 l 83 1046 q 96 1060 83 1060 l 1129 1060 q 1143 1046 1143 1060 l 1143 14 q 1129 0 1143 0 l 96 0 m 272 110 q 328 131 307 110 q 351 162 343 146 q 371 206 360 178 q 417 301 389 256 q 510 415 444 347 l 544 451 q 556 457 550 457 q 568 453 561 457 q 592 444 578 447 q 606 426 606 440 l 606 376 q 598 283 606 317 q 576 218 590 250 q 563 167 563 190 q 578 132 563 147 q 613 117 593 117 q 649 132 633 117 q 664 167 664 147 q 650 218 664 190 q 628 283 636 250 q 621 376 621 317 l 621 426 q 635 444 621 440 q 656 453 653 450 q 667 457 661 457 q 679 451 674 457 l 715 415 q 810 302 782 349 q 856 206 838 256 q 872 163 864 179 q 897 131 881 147 q 953 110 921 110 q 1010 131 989 110 q 1033 189 1033 154 q 1011 244 1033 224 q 978 269 994 261 q 936 286 963 278 q 839 331 885 304 q 726 425 793 358 l 690 461 q 685 474 685 467 q 689 483 685 478 q 699 508 697 500 q 715 524 703 524 l 765 524 q 860 515 826 524 q 925 493 894 507 q 943 485 928 492 q 976 479 958 479 q 1011 494 996 479 q 1026 531 1026 510 q 1011 566 1026 550 q 976 582 996 582 q 943 576 958 582 q 925 568 928 569 q 860 546 894 554 q 765 538 826 538 l 715 538 q 699 553 703 538 q 689 574 693 567 q 685 585 685 581 q 690 596 685 590 l 726 632 q 840 727 793 699 q 936 771 888 756 q 958 780 942 774 q 988 794 975 786 q 1010 813 1000 801 q 1033 869 1033 839 q 1010 926 1033 903 q 953 949 988 949 q 897 928 918 949 q 874 897 882 913 q 854 851 865 881 q 809 754 836 800 q 715 642 782 708 l 681 608 q 668 603 676 603 q 658 606 663 603 q 635 615 651 610 q 621 633 621 619 l 621 683 q 628 776 621 743 q 650 842 636 810 q 664 893 664 869 q 649 928 664 913 q 614 943 633 943 q 578 928 593 943 q 563 893 563 913 q 576 842 563 869 q 598 776 590 810 q 606 683 606 743 l 606 633 q 592 615 606 619 q 581 612 589 614 q 568 606 574 610 q 558 603 564 603 q 544 608 550 603 l 510 642 q 413 757 442 710 q 369 853 385 804 q 351 896 360 879 q 328 928 343 913 q 272 950 306 950 q 217 928 242 950 q 193 869 193 904 q 215 813 193 835 q 247 789 231 797 q 289 771 263 781 q 385 725 339 753 q 499 632 431 697 l 535 597 q 540 586 540 592 q 536 575 540 582 q 526 553 533 571 q 510 538 522 538 l 460 538 q 365 546 399 538 q 300 568 331 554 q 282 576 297 569 q 249 582 267 582 q 214 566 229 582 q 199 531 199 550 q 214 494 199 510 q 249 479 229 479 q 282 485 267 479 q 300 493 297 492 q 365 515 331 507 q 460 524 399 524 l 510 524 q 526 508 522 524 q 538 485 533 492 q 540 475 540 476 q 535 463 540 468 l 499 425 q 385 330 432 357 q 289 286 339 303 q 245 268 261 276 q 214 244 229 260 q 192 189 192 224 q 214 132 192 156 q 272 110 236 110 m 613 454 q 560 477 582 454 q 538 531 538 500 q 560 583 538 561 q 613 606 582 606 q 665 583 643 606 q 688 531 688 561 q 665 476 688 499 q 613 454 643 454 m 613 471 q 657 492 643 471 l 649 500 q 613 482 635 482 q 579 497 593 482 q 565 531 565 511 q 580 564 565 550 q 613 578 594 578 q 650 560 635 578 l 657 568 q 613 589 643 589 q 571 572 589 589 q 553 531 553 554 q 571 489 553 507 q 613 471 589 471 z "},"@":{"ha":1389,"x_min":36,"x_max":1354,"o":"m 688 -260 q 350 -176 499 -260 q 119 55 201 -93 q 36 390 36 203 q 121 738 36 582 q 358 983 206 893 q 703 1072 510 1072 q 1038 988 889 1072 q 1270 754 1186 904 q 1354 414 1354 604 q 1310 171 1354 278 q 1187 3 1267 64 q 1003 -58 1107 -58 q 869 -8 914 -58 q 826 143 824 43 l 811 147 q 581 25 722 25 q 454 60 511 25 q 364 165 397 96 q 331 331 331 235 q 382 560 331 451 q 523 735 433 669 q 721 801 613 801 q 821 776 779 801 q 896 688 863 750 l 914 690 q 906 742 906 728 q 908 764 906 747 l 1046 764 l 1028 678 q 963 358 983 471 q 942 183 942 244 q 963 98 942 124 q 1022 72 983 72 q 1120 116 1076 72 q 1190 237 1164 160 q 1215 411 1215 314 q 1151 685 1215 565 q 970 869 1086 804 q 706 935 854 935 q 428 864 550 935 q 240 669 307 793 q 172 390 172 544 q 236 124 172 240 q 417 -56 300 8 q 689 -121 535 -121 q 867 -93 788 -121 l 867 -236 q 688 -260 789 -260 m 594 163 q 724 213 665 163 q 815 342 782 263 q 849 507 849 422 q 725 664 849 664 q 594 617 653 664 q 501 492 535 569 q 468 328 468 415 q 594 163 468 163 z "},"&":{"ha":1056,"x_min":51,"x_max":1028,"o":"m 419 -24 q 239 9 324 -24 q 103 106 154 42 q 51 260 51 169 q 88 396 51 329 q 185 508 124 463 q 314 569 244 556 l 315 589 q 203 688 240 621 q 171 811 171 744 q 213 959 171 897 q 326 1051 256 1021 q 479 1082 396 1082 q 690 1022 607 1082 q 774 839 774 961 q 738 700 774 768 q 649 590 701 632 q 628 575 643 586 q 603 559 614 564 q 581 553 593 554 l 578 533 q 615 518 604 526 q 647 481 625 510 l 664 458 q 692 419 682 435 q 710 379 701 403 l 729 375 q 756 451 747 415 q 768 535 764 488 l 982 535 q 867 203 969 343 l 1028 0 l 747 0 q 738 12 744 3 q 728 37 731 21 q 726 79 725 53 l 707 88 q 601 8 667 40 q 419 -24 529 -24 m 463 689 q 554 822 554 756 q 535 876 554 854 q 479 899 515 899 q 424 877 447 899 q 400 821 400 856 q 416 752 400 781 q 463 689 432 724 m 426 174 q 507 185 465 174 q 579 217 549 197 l 410 433 q 313 355 344 392 q 281 272 281 318 q 323 199 281 225 q 426 174 365 174 z "},"¶":{"ha":901,"x_min":26,"x_max":817,"o":"m 367 465 q 199 508 276 471 q 74 610 121 544 q 26 764 26 676 q 74 922 26 854 q 199 1024 121 989 q 367 1060 278 1060 l 522 1060 l 522 -153 l 367 -153 l 367 465 m 817 -153 l 660 -153 l 660 1060 l 817 1060 l 817 -153 z "},"§":{"ha":1022,"x_min":72,"x_max":943,"o":"m 536 -329 q 323 -297 425 -329 q 151 -186 221 -264 q 72 19 81 -108 l 326 19 q 396 -90 340 -57 q 525 -124 451 -124 q 639 -98 593 -124 q 685 -26 685 -72 q 653 39 685 14 q 575 79 622 64 q 450 111 528 94 l 388 126 q 176 219 256 160 q 96 397 96 278 q 123 508 96 460 q 210 581 150 557 l 210 610 q 124 668 151 619 q 96 782 96 717 q 149 944 96 876 q 292 1047 203 1011 q 489 1082 382 1082 q 688 1044 596 1082 q 838 931 779 1006 q 908 751 897 856 l 669 751 q 608 842 656 811 q 492 874 560 874 q 394 851 432 874 q 356 790 356 828 q 383 740 356 760 q 450 708 411 719 q 561 679 489 696 l 601 671 q 849 572 756 638 q 943 369 943 507 q 917 254 943 306 q 829 186 892 203 l 829 158 q 917 98 892 146 q 943 -14 943 50 q 894 -179 943 -108 q 753 -290 844 -250 q 536 -329 661 -329 m 626 282 q 669 313 654 293 q 685 358 685 332 q 654 423 685 397 q 568 467 624 449 l 497 486 q 475 488 490 488 q 392 465 428 488 q 356 407 356 443 q 369 365 356 381 q 416 335 382 349 q 518 306 450 322 q 626 282 565 294 z "},"©":{"ha":1190,"x_min":57,"x_max":1132,"o":"m 594 -8 q 324 63 447 -8 q 129 258 201 135 q 57 528 57 381 q 128 802 57 678 q 323 999 200 926 q 594 1071 446 1071 q 866 999 743 1071 q 1060 802 989 926 q 1132 528 1132 678 q 1060 258 1132 381 q 865 63 988 135 q 594 -8 742 -8 m 594 131 q 796 183 704 131 q 940 328 888 236 q 993 528 993 419 q 940 733 993 640 q 797 878 888 825 q 594 932 706 932 q 392 878 483 932 q 249 733 301 825 q 196 528 196 640 q 249 328 196 419 q 393 183 301 236 q 594 131 485 131 m 594 236 q 449 275 515 236 q 344 381 383 314 q 306 528 306 447 q 344 675 306 608 q 449 781 383 742 q 594 819 515 819 q 718 790 657 819 q 819 713 779 761 l 707 626 q 652 667 685 653 q 586 681 619 681 q 479 636 524 681 q 435 528 435 592 q 479 419 435 464 q 586 375 524 375 q 652 389 619 375 q 707 429 685 403 l 819 343 q 719 265 781 294 q 594 236 657 236 z "},"®":{"ha":665,"x_min":50,"x_max":614,"o":"m 332 518 q 190 556 254 518 q 88 658 125 593 q 50 800 50 722 q 88 942 50 878 q 190 1044 125 1007 q 332 1082 254 1082 q 474 1044 410 1082 q 576 942 539 1007 q 614 800 614 878 q 576 658 614 722 q 474 556 539 593 q 332 518 410 518 m 332 569 q 447 601 394 569 q 531 685 500 632 q 563 800 563 738 q 531 915 563 863 q 447 999 500 968 q 332 1031 394 1031 q 217 999 269 1031 q 133 915 164 968 q 101 800 101 863 q 133 685 101 738 q 217 601 164 632 q 332 569 269 569 m 211 636 l 211 964 l 365 964 q 441 940 413 964 q 469 865 469 915 q 464 829 469 847 q 450 800 458 811 q 435 789 444 794 q 417 783 426 783 l 415 778 q 428 763 424 769 q 436 743 432 756 l 479 636 l 397 636 l 350 763 l 288 763 l 288 636 l 211 636 m 354 829 q 393 863 393 829 q 383 887 393 878 q 354 896 372 896 l 288 896 l 288 829 l 354 829 z "},"™":{"ha":935,"x_min":3,"x_max":906,"o":"m 238 636 l 107 636 l 107 943 l 3 943 l 3 1060 l 342 1060 l 342 943 l 238 943 l 238 636 m 413 636 l 413 1060 l 621 1060 l 647 860 q 651 831 647 856 q 654 778 654 806 l 663 778 q 667 828 663 803 q 671 860 671 854 l 696 1060 l 906 1060 l 906 636 l 774 636 l 774 863 q 775 902 774 883 q 781 944 776 921 l 771 944 q 763 893 767 914 q 757 864 758 872 l 722 636 l 596 636 l 563 864 q 554 911 557 901 l 549 944 l 539 944 q 544 902 543 921 q 546 863 546 883 l 546 636 l 413 636 z "},"°":{"ha":619,"x_min":89,"x_max":529,"o":"m 310 640 q 199 670 250 640 q 119 751 149 700 q 89 861 89 801 q 119 973 89 922 q 200 1053 149 1024 q 310 1082 251 1082 q 420 1052 369 1082 q 500 972 471 1022 q 529 861 529 921 q 500 751 529 801 q 420 670 471 700 q 310 640 369 640 m 310 774 q 373 799 347 774 q 399 861 399 825 q 373 923 399 897 q 310 949 347 949 q 247 923 272 949 q 221 861 221 897 q 247 799 221 825 q 310 774 272 774 z "},"|":{"ha":472,"x_min":147,"x_max":325,"o":"m 325 -153 l 147 -153 l 147 1211 l 325 1211 l 325 -153 z "},"¦":{"ha":472,"x_min":147,"x_max":325,"o":"m 325 611 l 147 611 l 147 1211 l 325 1211 l 325 611 m 325 -153 l 147 -153 l 147 447 l 325 447 l 325 -153 z "},"†":{"ha":811,"x_min":14,"x_max":797,"o":"m 490 -272 l 319 -272 l 319 585 l 14 585 l 14 753 l 319 753 l 319 1060 l 490 1060 l 490 753 l 797 753 l 797 585 l 490 585 l 490 -272 z "},"№":{"ha":1811,"x_min":83,"x_max":1767,"o":"m 1422 397 q 1242 440 1321 397 q 1121 562 1164 483 q 1078 743 1078 640 q 1121 920 1078 843 q 1242 1040 1164 997 q 1422 1082 1321 1082 q 1602 1039 1524 1082 q 1724 919 1681 996 q 1767 743 1767 842 q 1724 562 1767 640 q 1603 440 1682 483 q 1422 397 1525 397 m 83 0 l 83 1060 l 336 1060 l 672 529 q 703 471 690 499 q 733 388 717 443 l 756 393 q 745 458 747 432 q 743 528 743 485 l 743 1060 l 992 1060 l 992 0 l 739 0 l 400 539 q 369 594 382 567 q 342 675 357 621 l 319 669 q 330 605 328 631 q 332 536 332 579 l 332 0 l 83 0 m 1422 564 q 1526 613 1488 564 q 1565 743 1565 663 q 1526 868 1565 821 q 1422 915 1488 915 q 1317 867 1357 915 q 1278 743 1278 819 q 1317 613 1278 661 q 1422 564 1357 564 m 1715 176 l 1129 176 l 1129 347 l 1715 347 l 1715 176 z "},"̈":{"ha":0,"x_min":-571,"x_max":-3,"o":"m -439 842 q -533 874 -494 842 q -571 961 -571 907 q -533 1049 -571 1015 q -439 1082 -494 1082 q -345 1049 -383 1082 q -307 961 -307 1015 q -345 874 -307 907 q -439 842 -383 842 m -135 842 q -228 874 -190 842 q -267 961 -267 907 q -228 1049 -267 1015 q -135 1082 -190 1082 q -41 1049 -79 1082 q -3 961 -3 1015 q -41 874 -3 907 q -135 842 -79 842 z "},"̇":{"ha":0,"x_min":-267,"x_max":-3,"o":"m -135 842 q -228 874 -190 842 q -267 961 -267 907 q -228 1049 -267 1015 q -135 1082 -190 1082 q -41 1049 -79 1082 q -3 961 -3 1015 q -41 874 -3 907 q -135 842 -79 842 z "},"̀":{"ha":0,"x_min":-386,"x_max":-3,"o":"m -161 1060 l -3 858 l -171 858 l -386 1060 l -161 1060 z "},"́":{"ha":0,"x_min":-386,"x_max":-3,"o":"m -218 858 l -386 858 l -228 1060 l -3 1060 l -218 858 z "},"̋":{"ha":0,"x_min":-669,"x_max":-3,"o":"m -501 858 l -669 858 l -507 1060 l -311 1060 l -501 858 m -210 858 l -378 858 l -215 1060 l -3 1060 l -210 858 z "},"̂":{"ha":0,"x_min":-492,"x_max":-3,"o":"m -492 858 l -257 1106 l -237 1106 l -3 858 l -185 858 l -206 888 q -237 960 -237 931 l -257 960 q -289 888 -257 931 l -310 858 l -492 858 z "},"̌":{"ha":0,"x_min":-492,"x_max":-3,"o":"m -257 814 l -492 1060 l -310 1060 l -289 1031 q -257 958 -257 988 l -237 958 q -206 1031 -237 988 l -185 1060 l -3 1060 l -237 814 l -257 814 z "},"̆":{"ha":0,"x_min":-478,"x_max":-3,"o":"m -240 842 q -413 899 -354 842 q -478 1060 -472 957 l -351 1060 q -314 989 -344 1013 q -240 965 -283 965 q -167 990 -196 965 q -131 1060 -137 1014 l -3 1060 q -69 900 -8 958 q -240 842 -129 842 z "},"̊":{"ha":0,"x_min":-372,"x_max":-3,"o":"m -187 793 q -281 819 -239 793 q -348 888 -324 844 q -372 979 -372 931 q -347 1072 -372 1029 q -280 1139 -322 1114 q -187 1164 -237 1164 q -95 1139 -137 1164 q -28 1072 -53 1114 q -3 979 -3 1029 q -27 885 -3 928 q -94 818 -51 843 q -187 793 -136 793 m -187 910 q -138 930 -157 910 q -119 982 -119 950 q -137 1029 -119 1011 q -187 1047 -156 1047 q -237 1028 -219 1047 q -256 982 -256 1010 q -236 930 -256 950 q -187 910 -217 910 z "},"̃":{"ha":0,"x_min":-519,"x_max":-3,"o":"m -168 835 q -246 852 -215 835 q -308 900 -276 869 q -336 924 -326 917 q -357 931 -346 931 q -396 836 -392 931 l -519 836 q -469 1003 -515 942 q -349 1065 -424 1065 q -277 1048 -307 1065 q -214 1000 -247 1031 q -187 977 -197 985 q -167 969 -176 969 q -142 992 -151 969 q -131 1060 -132 1015 l -3 1060 q -49 890 -10 944 q -168 835 -87 835 z "},"̄":{"ha":0,"x_min":-422,"x_max":-3,"o":"m -3 860 l -422 860 l -422 968 l -3 968 l -3 860 z "},"̏":{"ha":0,"x_min":-642,"x_max":-3,"o":"m -412 813 q -440 825 -431 813 l -635 1032 q -642 1046 -642 1042 q -622 1060 -642 1060 l -465 1060 q -439 1046 -449 1060 l -299 839 q -294 825 -294 831 q -312 813 -294 813 l -412 813 m -121 813 q -149 825 -137 813 l -329 1032 q -336 1047 -336 1042 q -331 1056 -336 1053 q -317 1060 -326 1060 l -174 1060 q -147 1046 -157 1060 l -7 839 q -3 825 -3 831 q -21 813 -3 813 l -121 813 z "},"̒":{"ha":0,"x_min":-243,"x_max":-3,"o":"m -117 821 q -211 860 -179 821 q -243 964 -243 900 q -187 1103 -243 1044 q -11 1165 -132 1161 l -11 1079 q -112 1055 -76 1079 q -146 983 -147 1031 l -133 983 q -117 1001 -126 996 q -89 1007 -107 1007 q -28 982 -54 1007 q -3 917 -3 957 q -34 847 -3 874 q -117 821 -65 821 z "},"̛":{"ha":0,"x_min":-240,"x_max":-3,"o":"m -240 869 q -163 905 -185 869 q -142 986 -142 940 l -142 1060 l -3 1060 l -3 1000 q -61 820 -3 890 q -240 750 -119 750 l -240 869 z "},"̦":{"ha":0,"x_min":-194,"x_max":-3,"o":"m -175 -221 q -83 -182 -100 -221 q -79 -161 -79 -174 l -90 -161 q -135 -182 -103 -182 q -178 -167 -161 -182 q -194 -121 -194 -151 q -169 -67 -194 -87 q -104 -46 -144 -46 q -29 -74 -56 -46 q -3 -146 -3 -103 q -175 -272 -3 -272 l -175 -221 z "},"̧":{"ha":0,"x_min":-325,"x_max":-3,"o":"m -192 -289 q -325 -268 -258 -289 l -325 -183 q -204 -211 -250 -211 q -158 -199 -174 -211 q -142 -164 -142 -186 q -188 -108 -142 -122 q -315 -93 -235 -93 l -203 32 l -64 32 q -106 -7 -86 10 q -158 -44 -125 -24 l -151 -57 q -124 -56 -142 -56 q -47 -72 -75 -56 q -13 -107 -24 -86 q -3 -158 -3 -128 q -56 -256 -3 -222 q -192 -289 -108 -289 z "},"̨":{"ha":0,"x_min":-285,"x_max":-3,"o":"m -115 -289 q -285 -175 -285 -289 q -253 -87 -285 -119 q -143 -28 -222 -54 l -143 0 l -3 0 q -100 -66 -78 -46 q -122 -110 -122 -86 q -75 -147 -122 -147 q -3 -128 -42 -147 l -3 -271 q -115 -289 -57 -289 z "},"̷":{"ha":0,"x_min":-349,"x_max":-3,"o":"m -3 564 l -349 385 l -349 540 l -3 719 l -3 564 z "},"̸":{"ha":0,"x_min":-858,"x_max":-3,"o":"m -3 758 l -761 0 l -858 93 l -99 851 l -3 758 z "},"¨":{"ha":574,"x_min":3,"x_max":571,"o":"m 135 842 q 41 874 79 842 q 3 961 3 907 q 41 1049 3 1015 q 135 1082 79 1082 q 228 1049 190 1082 q 267 961 267 1015 q 228 874 267 907 q 135 842 190 842 m 439 842 q 345 874 383 842 q 307 961 307 907 q 345 1049 307 1015 q 439 1082 383 1082 q 533 1049 494 1082 q 571 961 571 1015 q 533 874 571 907 q 439 842 494 842 z "},"˙":{"ha":269,"x_min":3,"x_max":267,"o":"m 135 842 q 41 874 79 842 q 3 961 3 907 q 41 1049 3 1015 q 135 1082 79 1082 q 228 1049 190 1082 q 267 961 267 1015 q 228 874 267 907 q 135 842 190 842 z "},"`":{"ha":389,"x_min":3,"x_max":386,"o":"m 228 1060 l 386 858 l 218 858 l 3 1060 l 228 1060 z "},"´":{"ha":389,"x_min":3,"x_max":386,"o":"m 171 858 l 3 858 l 161 1060 l 386 1060 l 171 858 z "},"˝":{"ha":672,"x_min":3,"x_max":669,"o":"m 171 858 l 3 858 l 165 1060 l 361 1060 l 171 858 m 463 858 l 294 858 l 457 1060 l 669 1060 l 463 858 z "},"ˆ":{"ha":494,"x_min":3,"x_max":492,"o":"m 3 858 l 238 1106 l 257 1106 l 492 858 l 310 858 l 289 888 q 257 960 257 931 l 238 960 q 206 888 238 931 l 185 858 l 3 858 z "},"ˇ":{"ha":494,"x_min":3,"x_max":492,"o":"m 238 814 l 3 1060 l 185 1060 l 206 1031 q 238 958 238 988 l 257 958 q 289 1031 257 988 l 310 1060 l 492 1060 l 257 814 l 238 814 z "},"˘":{"ha":481,"x_min":3,"x_max":478,"o":"m 240 842 q 67 899 126 842 q 3 1060 8 957 l 129 1060 q 167 989 136 1013 q 240 965 197 965 q 314 990 285 965 q 350 1060 343 1014 l 478 1060 q 412 900 472 958 q 240 842 351 842 z "},"˚":{"ha":375,"x_min":3,"x_max":372,"o":"m 188 793 q 94 819 136 793 q 27 888 51 844 q 3 979 3 931 q 28 1072 3 1029 q 95 1139 53 1114 q 188 1164 138 1164 q 280 1139 238 1164 q 347 1072 322 1114 q 372 979 372 1029 q 348 885 372 928 q 281 818 324 843 q 188 793 239 793 m 188 910 q 237 930 218 910 q 256 982 256 950 q 238 1029 256 1011 q 188 1047 219 1047 q 138 1028 156 1047 q 119 982 119 1010 q 139 930 119 950 q 188 910 158 910 z "},"˜":{"ha":522,"x_min":3,"x_max":519,"o":"m 354 835 q 276 852 307 835 q 214 900 246 869 q 186 924 196 917 q 165 931 176 931 q 126 836 131 931 l 3 836 q 53 1003 7 942 q 174 1065 99 1065 q 245 1048 215 1065 q 308 1000 275 1031 q 335 977 325 985 q 356 969 346 969 q 381 992 371 969 q 392 1060 390 1015 l 519 1060 q 474 890 513 944 q 354 835 435 835 z "},"¯":{"ha":425,"x_min":3,"x_max":422,"o":"m 422 860 l 3 860 l 3 968 l 422 968 l 422 860 z "},"¸":{"ha":328,"x_min":3,"x_max":325,"o":"m 136 -289 q 3 -268 69 -289 l 3 -183 q 124 -211 78 -211 q 170 -199 154 -211 q 186 -164 186 -186 q 140 -108 186 -122 q 13 -93 93 -93 l 125 32 l 264 32 q 222 -7 242 10 q 169 -44 203 -24 l 176 -57 q 204 -56 186 -56 q 281 -72 253 -56 q 315 -107 304 -86 q 325 -158 325 -128 q 272 -256 325 -222 q 136 -289 219 -289 z "},"˛":{"ha":288,"x_min":3,"x_max":285,"o":"m 172 -289 q 3 -175 3 -289 q 34 -87 3 -119 q 144 -28 65 -54 l 144 0 l 285 0 q 188 -66 210 -46 q 165 -110 165 -86 q 213 -147 165 -147 q 285 -128 246 -147 l 285 -271 q 172 -289 231 -289 z "}}}
